<svg width="390" height="390" viewBox="0 0 300 300" fill="none" xmlns="http://www.w3.org/2000/svg">
<circle cx="150" cy="150" r="150" fill="url(#paint0_linear_197_654)"/>
<circle cx="150" cy="150" r="150" fill="url(#paint1_radial_197_654)"/>
<circle cx="150" cy="150" r="150" fill="url(#paint2_radial_197_654)"/>
<path d="M86.5363 165.219L84.3025 134.657C84.2475 133.904 84.5844 133.175 85.1941 132.729L93.0979 126.95C93.8711 126.385 94.922 126.388 95.6922 126.957L103.512 132.737C104.11 133.179 104.443 133.894 104.396 134.636L102.468 165.187C102.42 165.945 101.984 166.623 101.314 166.981L95.444 170.117C94.7912 170.466 94.0064 170.461 93.3577 170.105L87.6661 166.978C87.0156 166.621 86.5904 165.959 86.5363 165.219Z" fill="white"/>
<path d="M77.4296 142.563L80.0062 165.042C80.1018 165.876 79.7122 166.691 79.0033 167.141L69.2852 173.303C68.0156 174.108 66.3309 173.424 65.9821 171.962L61.328 152.45C61.1283 151.613 61.4373 150.737 62.1178 150.21L73.9134 141.081C75.2628 140.037 77.2353 140.868 77.4296 142.563Z" fill="white"/>
<path d="M111.584 142.563L109.008 165.042C108.912 165.876 109.302 166.691 110.011 167.141L119.729 173.303C120.998 174.108 122.683 173.424 123.032 171.962L127.686 152.45C127.886 151.613 127.577 150.737 126.896 150.21L115.101 141.081C113.751 140.037 111.779 140.868 111.584 142.563Z" fill="white"/>
<path d="M87.41 165.155L85.1762 134.593C85.1432 134.141 85.3453 133.704 85.7111 133.437L93.615 127.657C94.0789 127.318 94.7094 127.32 95.1716 127.661L102.992 133.442C103.351 133.707 103.55 134.136 103.522 134.581L101.594 165.132C101.565 165.586 101.303 165.994 100.901 166.208L95.0312 169.344C94.6395 169.554 94.1686 169.551 93.7794 169.337L88.0878 166.211C87.6976 165.996 87.4424 165.599 87.41 165.155ZM76.5593 142.663L79.1359 165.142C79.1933 165.642 78.9595 166.131 78.5341 166.401L68.816 172.564C68.0543 173.047 67.0435 172.636 66.8342 171.759L62.18 152.247C62.0603 151.745 62.2457 151.219 62.6539 150.903L74.4496 141.774C75.2592 141.147 76.4427 141.646 76.5593 142.663ZM109.878 165.142L112.455 142.663C112.571 141.646 113.755 141.147 114.564 141.774L126.36 150.903C126.768 151.219 126.954 151.745 126.834 152.247L122.18 171.759C121.971 172.636 120.96 173.047 120.198 172.564L110.48 166.401C110.055 166.131 109.821 165.642 109.878 165.142Z" stroke="url(#paint3_linear_197_654)" stroke-opacity="0.2" stroke-width="1.752"/>
<path d="M142.825 134.364H152.037L160.25 157.824L168.418 134.364H177.63V166.582H170.732V145.709L163.154 166.491H157.255L149.723 145.709V166.582H142.825V134.364Z" fill="#F5F1EE"/>
<path d="M196.653 167.308C192.539 167.308 189.287 166.295 186.897 164.268C184.507 162.241 183.191 159.473 182.949 155.964L189.892 155.646C190.134 157.582 190.83 159.065 191.979 160.093C193.129 161.092 194.717 161.591 196.744 161.591C198.468 161.591 199.799 161.273 200.737 160.638C201.675 160.002 202.144 159.08 202.144 157.87C202.144 157.083 201.947 156.418 201.554 155.873C201.191 155.298 200.495 154.784 199.466 154.33C198.438 153.876 196.94 153.423 194.974 152.969C192.13 152.334 189.892 151.623 188.258 150.836C186.625 150.05 185.43 149.066 184.673 147.887C183.917 146.707 183.539 145.194 183.539 143.349C183.539 141.443 184.023 139.764 184.991 138.312C185.959 136.83 187.351 135.68 189.166 134.863C190.981 134.047 193.129 133.638 195.609 133.638C199.482 133.638 202.522 134.636 204.73 136.633C206.939 138.599 208.239 141.231 208.633 144.529L201.735 144.892C201.554 143.167 200.919 141.821 199.829 140.853C198.771 139.855 197.334 139.356 195.519 139.356C193.976 139.356 192.751 139.704 191.843 140.399C190.966 141.065 190.527 141.972 190.527 143.122C190.527 143.939 190.724 144.62 191.117 145.164C191.51 145.678 192.176 146.132 193.114 146.525C194.082 146.888 195.458 147.251 197.243 147.614C201.569 148.492 204.624 149.732 206.409 151.335C208.224 152.939 209.132 155.011 209.132 157.552C209.132 159.549 208.618 161.288 207.589 162.77C206.591 164.223 205.154 165.342 203.278 166.128C201.403 166.915 199.194 167.308 196.653 167.308Z" fill="#F5F1EE"/>
<path d="M221.437 140.173H211.772V134.364H238V140.173H228.38V166.582H221.437V140.173Z" fill="#F5F1EE"/>
<defs>
<linearGradient id="paint0_linear_197_654" x1="20.8381" y1="7.50369" x2="268.312" y2="300" gradientUnits="userSpaceOnUse">
<stop stop-color="#E31717"/>
<stop offset="1" stop-color="#FFB800"/>
</linearGradient>
<radialGradient id="paint1_radial_197_654" cx="0" cy="0" r="1" gradientUnits="userSpaceOnUse" gradientTransform="translate(195.834 190.84) rotate(-128.988) scale(202.635 253.381)">
<stop stop-color="#E31717" stop-opacity="0"/>
<stop offset="1" stop-color="#FFB800"/>
</radialGradient>
<radialGradient id="paint2_radial_197_654" cx="0" cy="0" r="1" gradientUnits="userSpaceOnUse" gradientTransform="translate(240.807 269.149) rotate(-130.013) scale(237.159 309.276)">
<stop stop-color="#FFB800"/>
<stop offset="0.986758" stop-color="#E31717" stop-opacity="0"/>
</radialGradient>
<linearGradient id="paint3_linear_197_654" x1="94.507" y1="126" x2="94.507" y2="174.947" gradientUnits="userSpaceOnUse">
<stop stop-color="white"/>
<stop offset="1" stop-color="white" stop-opacity="0"/>
</linearGradient>
</defs>
</svg>
