<svg width="67" height="48" viewBox="0 0 67 48" fill="none" xmlns="http://www.w3.org/2000/svg">
<path d="M25.5363 39.2186L23.3025 8.65688C23.2475 7.90364 23.5844 7.17518 24.1941 6.7294L32.0979 0.950264C32.8711 0.38492 33.922 0.38763 34.6922 0.956956L42.5125 6.73713C43.1104 7.17908 43.4433 7.8942 43.3964 8.63625L41.468 39.1872C41.4201 39.9445 40.9836 40.6232 40.3143 40.9808L34.444 44.117C33.7912 44.4657 33.0064 44.4612 32.3577 44.1048L26.6661 40.9785C26.0156 40.6212 25.5904 39.9588 25.5363 39.2186Z" fill="white"/>
<path d="M16.4296 16.5633L19.0062 39.0418C19.1018 39.8758 18.7122 40.6911 18.0033 41.1407L8.28518 47.3034C7.0156 48.1085 5.33091 47.4243 4.9821 45.962L0.327953 26.4504C0.128303 25.6134 0.437299 24.7371 1.11777 24.2104L12.9134 15.0809C14.2628 14.0365 16.2353 14.8681 16.4296 16.5633Z" fill="white"/>
<path d="M50.5845 16.5633L48.0079 39.0418C47.9123 39.8758 48.3018 40.6911 49.0108 41.1407L58.7289 47.3034C59.9985 48.1085 61.6832 47.4243 62.032 45.962L66.6861 26.4504C66.8858 25.6134 66.5768 24.7371 65.8963 24.2104L54.1006 15.0809C52.7513 14.0365 50.7788 14.8681 50.5845 16.5633Z" fill="white"/>
<path d="M26.41 39.1548L24.1762 8.59303C24.1432 8.14108 24.3453 7.704 24.7111 7.43654L32.615 1.6574L32.0979 0.950264L32.615 1.6574C33.0789 1.31819 33.7094 1.31982 34.1716 1.66141L41.9918 7.44159C42.3506 7.70676 42.5503 8.13583 42.5222 8.58106L40.5937 39.132C40.565 39.5864 40.3031 39.9936 39.9015 40.2082L34.0312 43.3443C33.6395 43.5536 33.1686 43.5509 32.7794 43.3371L27.0878 40.2107C26.6976 39.9963 26.4424 39.5989 26.41 39.1548ZM15.5593 16.6631L18.1359 39.1416C18.1933 39.642 17.9595 40.1311 17.5341 40.4009L7.81604 46.5636C7.0543 47.0466 6.04348 46.6362 5.8342 45.7588L1.18005 26.2472C1.06026 25.745 1.24566 25.2192 1.65394 24.9032L13.4496 15.7736C14.2592 15.147 15.4427 15.646 15.5593 16.6631ZM48.8782 39.1416L51.4548 16.6631C51.5713 15.646 52.7548 15.147 53.5645 15.7736L65.3601 24.9032C65.7684 25.2192 65.9538 25.745 65.834 26.2472L61.1799 45.7588C60.9706 46.6362 59.9598 47.0466 59.198 46.5636L49.4799 40.4009C49.0546 40.1311 48.8208 39.642 48.8782 39.1416Z" stroke="url(#paint0_linear_1259_4121)" stroke-opacity="0.2" stroke-width="1.752"/>
<defs>
<linearGradient id="paint0_linear_1259_4121" x1="33.507" y1="0" x2="33.507" y2="48.9466" gradientUnits="userSpaceOnUse">
<stop stop-color="white"/>
<stop offset="1" stop-color="white" stop-opacity="0"/>
</linearGradient>
</defs>
</svg>
