<svg width="100%" height="100%" viewBox="0 0 71 52" fill="none" xmlns="http://www.w3.org/2000/svg">
<path d="M27.0324 42.149L24.7111 9.6895C24.6386 8.6757 25.0871 7.69472 25.9013 7.0863L33.588 1.3421C34.6519 0.547065 36.1132 0.550859 37.173 1.3514L44.7787 7.09686C45.5771 7.69999 46.0201 8.66314 45.9584 9.66185L43.9546 42.1065C43.8913 43.1304 43.3066 44.05 42.4062 44.5416L36.8341 47.5841C35.9319 48.0767 34.8396 48.0702 33.9433 47.567L28.5481 44.5382C27.6734 44.0472 27.104 43.1496 27.0324 42.149Z" fill="url(#paint0_linear_197_1041)"/>
<path d="M27.0324 42.149L24.7111 9.6895C24.6386 8.6757 25.0871 7.69472 25.9013 7.0863L33.588 1.3421C34.6519 0.547065 36.1132 0.550859 37.173 1.3514L44.7787 7.09686C45.5771 7.69999 46.0201 8.66314 45.9584 9.66185L43.9546 42.1065C43.8913 43.1304 43.3066 44.05 42.4062 44.5416L36.8341 47.5841C35.9319 48.0767 34.8396 48.0702 33.9433 47.567L28.5481 44.5382C27.6734 44.0472 27.104 43.1496 27.0324 42.149Z" fill="url(#paint1_radial_197_1041)"/>
<path d="M27.0324 42.149L24.7111 9.6895C24.6386 8.6757 25.0871 7.69472 25.9013 7.0863L33.588 1.3421C34.6519 0.547065 36.1132 0.550859 37.173 1.3514L44.7787 7.09686C45.5771 7.69999 46.0201 8.66314 45.9584 9.66185L43.9546 42.1065C43.8913 43.1304 43.3066 44.05 42.4062 44.5416L36.8341 47.5841C35.9319 48.0767 34.8396 48.0702 33.9433 47.567L28.5481 44.5382C27.6734 44.0472 27.104 43.1496 27.0324 42.149Z" fill="url(#paint2_radial_197_1041)"/>
<path d="M17.5372 19.0977L20.0967 41.9183C20.2227 43.0419 19.7029 44.1401 18.7542 44.755L9.59637 50.6903C7.8618 51.8145 5.53727 50.8774 5.06748 48.8644L0.430352 28.996C0.167661 27.8705 0.57855 26.6945 1.48502 25.9774L12.7205 17.09C14.5576 15.6368 17.2762 16.7699 17.5372 19.0977Z" fill="url(#paint3_linear_197_1041)"/>
<path d="M17.5372 19.0977L20.0967 41.9183C20.2227 43.0419 19.7029 44.1401 18.7542 44.755L9.59637 50.6903C7.8618 51.8145 5.53727 50.8774 5.06748 48.8644L0.430352 28.996C0.167661 27.8705 0.57855 26.6945 1.48502 25.9774L12.7205 17.09C14.5576 15.6368 17.2762 16.7699 17.5372 19.0977Z" fill="url(#paint4_radial_197_1041)"/>
<path d="M17.5372 19.0977L20.0967 41.9183C20.2227 43.0419 19.7029 44.1401 18.7542 44.755L9.59637 50.6903C7.8618 51.8145 5.53727 50.8774 5.06748 48.8644L0.430352 28.996C0.167661 27.8705 0.57855 26.6945 1.48502 25.9774L12.7205 17.09C14.5576 15.6368 17.2762 16.7699 17.5372 19.0977Z" fill="url(#paint5_radial_197_1041)"/>
<path d="M53.4628 19.0977L50.9033 41.9183C50.7773 43.0419 51.2971 44.1401 52.2458 44.755L61.4036 50.6903C63.1382 51.8145 65.4627 50.8774 65.9325 48.8644L70.5696 28.996C70.8323 27.8705 70.4214 26.6945 69.515 25.9774L58.2795 17.09C56.4424 15.6368 53.7238 16.7699 53.4628 19.0977Z" fill="url(#paint6_linear_197_1041)"/>
<path d="M53.4628 19.0977L50.9033 41.9183C50.7773 43.0419 51.2971 44.1401 52.2458 44.755L61.4036 50.6903C63.1382 51.8145 65.4627 50.8774 65.9325 48.8644L70.5696 28.996C70.8323 27.8705 70.4214 26.6945 69.515 25.9774L58.2795 17.09C56.4424 15.6368 53.7238 16.7699 53.4628 19.0977Z" fill="url(#paint7_radial_197_1041)"/>
<path d="M53.4628 19.0977L50.9033 41.9183C50.7773 43.0419 51.2971 44.1401 52.2458 44.755L61.4036 50.6903C63.1382 51.8145 65.4627 50.8774 65.9325 48.8644L70.5696 28.996C70.8323 27.8705 70.4214 26.6945 69.515 25.9774L58.2795 17.09C56.4424 15.6368 53.7238 16.7699 53.4628 19.0977Z" fill="url(#paint8_radial_197_1041)"/>
<path d="M28.223 42.0639L25.9017 9.60436C25.8582 8.99608 26.1273 8.40749 26.6158 8.04244L34.3025 2.29824C34.9409 1.82122 35.8176 1.82349 36.4535 2.30382L44.0592 8.04928C44.5383 8.41115 44.8041 8.98904 44.7671 9.58827L42.7632 42.0329C42.7253 42.6472 42.3744 43.199 41.8342 43.494L36.2621 46.5364C35.7208 46.832 35.0654 46.8281 34.5276 46.5262L29.1324 43.4974C28.6076 43.2028 28.266 42.6642 28.223 42.0639ZM16.3511 19.2308L18.9105 42.0514C18.9861 42.7255 18.6742 43.3845 18.105 43.7534L8.94719 49.6887C7.90645 50.3632 6.51173 49.8009 6.22985 48.5932L1.59273 28.7247C1.43511 28.0494 1.68165 27.3438 2.22553 26.9136L13.461 18.0261C14.5633 17.1542 16.1944 17.8341 16.3511 19.2308ZM52.0895 42.0514L54.6489 19.2308C54.8056 17.8341 56.4367 17.1542 57.539 18.0261L68.7745 26.9136C69.3183 27.3438 69.5649 28.0494 69.4073 28.7247L64.7701 48.5932C64.4883 49.8009 63.0936 50.3632 62.0528 49.6887L52.895 43.7534C52.3258 43.3845 52.0139 42.7255 52.0895 42.0514Z" stroke="url(#paint9_linear_197_1041)" stroke-opacity="0.2" stroke-width="2.38723"/>
<defs>
<linearGradient id="paint0_linear_197_1041" x1="4.93169" y1="1.32565" x2="44.9627" y2="64.7081" gradientUnits="userSpaceOnUse">
<stop stop-color="#E31717"/>
<stop offset="1" stop-color="#FFB800"/>
</linearGradient>
<radialGradient id="paint1_radial_197_1041" cx="0" cy="0" r="1" gradientUnits="userSpaceOnUse" gradientTransform="translate(46.3474 33.715) rotate(-137.317) scale(41.0444 52.3029)">
<stop stop-color="#E31717" stop-opacity="0"/>
<stop offset="1" stop-color="#FFB800"/>
</radialGradient>
<radialGradient id="paint2_radial_197_1041" cx="0" cy="0" r="1" gradientUnits="userSpaceOnUse" gradientTransform="translate(56.991 47.5496) rotate(-138.357) scale(48.2916 63.5045)">
<stop stop-color="#FFB800"/>
<stop offset="0.986758" stop-color="#E31717" stop-opacity="0"/>
</radialGradient>
<linearGradient id="paint3_linear_197_1041" x1="4.93169" y1="1.32565" x2="44.9627" y2="64.7081" gradientUnits="userSpaceOnUse">
<stop stop-color="#E31717"/>
<stop offset="1" stop-color="#FFB800"/>
</linearGradient>
<radialGradient id="paint4_radial_197_1041" cx="0" cy="0" r="1" gradientUnits="userSpaceOnUse" gradientTransform="translate(46.3474 33.715) rotate(-137.317) scale(41.0444 52.3029)">
<stop stop-color="#E31717" stop-opacity="0"/>
<stop offset="1" stop-color="#FFB800"/>
</radialGradient>
<radialGradient id="paint5_radial_197_1041" cx="0" cy="0" r="1" gradientUnits="userSpaceOnUse" gradientTransform="translate(56.991 47.5496) rotate(-138.357) scale(48.2916 63.5045)">
<stop stop-color="#FFB800"/>
<stop offset="0.986758" stop-color="#E31717" stop-opacity="0"/>
</radialGradient>
<linearGradient id="paint6_linear_197_1041" x1="4.93169" y1="1.32565" x2="44.9627" y2="64.7081" gradientUnits="userSpaceOnUse">
<stop stop-color="#E31717"/>
<stop offset="1" stop-color="#FFB800"/>
</linearGradient>
<radialGradient id="paint7_radial_197_1041" cx="0" cy="0" r="1" gradientUnits="userSpaceOnUse" gradientTransform="translate(46.3474 33.715) rotate(-137.317) scale(41.0444 52.3029)">
<stop stop-color="#E31717" stop-opacity="0"/>
<stop offset="1" stop-color="#FFB800"/>
</radialGradient>
<radialGradient id="paint8_radial_197_1041" cx="0" cy="0" r="1" gradientUnits="userSpaceOnUse" gradientTransform="translate(56.991 47.5496) rotate(-138.357) scale(48.2916 63.5045)">
<stop stop-color="#FFB800"/>
<stop offset="0.986758" stop-color="#E31717" stop-opacity="0"/>
</radialGradient>
<linearGradient id="paint9_linear_197_1041" x1="35.5" y1="0" x2="35.5" y2="53" gradientUnits="userSpaceOnUse">
<stop stop-color="white"/>
<stop offset="1" stop-color="white" stop-opacity="0"/>
</linearGradient>
</defs>
</svg>
