<svg width="1440" height="1255" viewBox="0 0 1440 1255" fill="none" xmlns="http://www.w3.org/2000/svg">
<g opacity="0.47">
<path d="M1134.24 715.312C816.953 859.163 637.41 968.906 504.798 1254C466.661 1217.27 431.222 1180.41 397.177 1143.9C390.385 1136.56 383.071 1129.57 376.889 1122.01C362.696 1104.78 316.548 1054.28 301.833 1094.18C277.54 1160.07 219.375 1257.67 119.416 1225.25C18.151 1192.42 72.31 854.573 17.6285 790.309C10.5757 782.047 -46.0214 737.981 -56.2089 731.554C-66.3963 725.128 -77.977 719.337 -92.5181 714.747C-106.101 707.755 -120.12 700.905 -134.574 694.338C-163.395 681.202 -193.783 668.915 -226 657.616C-65.3514 540.882 106.268 444.557 281.11 343.077C396.132 276.341 533.184 201.414 567.491 82.3496C715.949 187.149 851.521 294.702 947.997 435.023C1011.82 527.888 1049.35 632.404 1134.24 715.312Z" stroke="#F5F1EE" stroke-width="0.5" stroke-miterlimit="10"/>
<path d="M665.621 150.569C604.932 264.337 481.202 326.624 358.517 391.523C184.285 483.681 12.5783 580.359 -142.236 693.774" stroke="#F5F1EE" stroke-width="0.5" stroke-miterlimit="10"/>
<path d="M749.385 216.878C669.452 322.172 546.942 378.596 420.338 440.177C366.876 466.165 314.981 492.859 264.479 520.683C254.378 526.262 244.365 531.841 234.352 537.49C224.338 543.14 214.499 548.86 204.747 554.651C194.995 560.441 -44.8895 725.62 -56.2089 731.623" stroke="#F5F1EE" stroke-width="0.5" stroke-miterlimit="10"/>
<path d="M819.914 281.498C729.619 377.682 597.705 429.446 471.798 487.848C437.143 503.949 403.272 520.474 370.272 537.493C359.213 543.143 348.329 548.934 337.445 554.725C288.337 573.156 255.249 601.545 227.908 633.183C218.766 643.776 210.32 654.651 202.222 665.738C154.332 716.867 139.443 805.212 23.8978 799.703" stroke="#F5F1EE" stroke-width="0.5" stroke-miterlimit="10"/>
<path d="M878.688 344.345C776.726 432.266 642.634 478.239 514.899 535.158C486.426 547.799 458.65 560.864 431.571 574.423C422.515 578.943 413.547 583.462 404.665 588.052C364.09 608.108 331.437 633.249 304.532 661.991C295.564 671.595 287.205 681.623 279.368 692.145C257.513 727.102 239.924 763.047 224.513 799.558C219.375 811.775 146.67 972.716 49.2358 984.722" stroke="#F5F1EE" stroke-width="0.5" stroke-miterlimit="10"/>
<path d="M927.1 405.364C781.079 498.864 623.565 563.199 471.624 636.713C458.998 642.857 446.286 649.072 433.573 655.569C422.602 663.196 412.241 671.246 402.314 679.579C392.388 687.913 383.071 696.599 374.19 705.497C276.756 819.759 126.208 1043.69 73.2678 1167.84" stroke="#F5F1EE" stroke-width="0.5" stroke-miterlimit="10"/>
<path d="M967.153 464.115C808.42 549.353 651.777 610.227 503.754 684.872C491.389 691.086 479.112 697.371 466.835 703.868C454.906 713.049 443.5 722.512 432.441 732.257C421.47 742.003 410.847 751.96 400.747 762.2C281.806 858.172 169.831 1162.54 161.646 1230.9" stroke="#F5F1EE" stroke-width="0.5" stroke-miterlimit="10"/>
<path d="M999.892 519.486C823.309 603.312 659.352 664.821 508.717 748.858C497.136 755.355 485.643 761.923 474.149 768.702C461.262 775.623 449.246 782.897 438.014 790.665C426.782 798.433 415.549 805.989 406.494 815.17C266.046 958.739 207.708 1188.96 207.708 1219.25" stroke="#F5F1EE" stroke-width="0.5" stroke-miterlimit="10"/>
<path d="M1028.89 571.672C821.655 664.819 639.064 732.19 478.851 843.345C466.487 851.89 454.296 860.717 442.281 869.827C430.265 878.09 419.032 886.846 408.496 896.098C345.891 964.033 331.524 1000.54 301.31 1086.13" stroke="#F5F1EE" stroke-width="0.5" stroke-miterlimit="10"/>
<path d="M1058.23 622.092C802.412 733.882 596.486 814.671 428.349 987.9C418.423 998.07 408.671 1008.59 399.093 1019.47C372.013 1041.71 348.068 1094.39 348.068 1094.39" stroke="#F5F1EE" stroke-width="0.5" stroke-miterlimit="10"/>
<path d="M1093.15 669.194C783.517 806.196 580.552 903.792 414.853 1167.84" stroke="#F5F1EE" stroke-width="0.5" stroke-miterlimit="10"/>
<path d="M542.414 1170.81C501.403 1129.85 463.875 1088.96 428.001 1048.64C420.861 1040.59 368.879 978.935 330.654 994.471C282.329 1014.17 281.632 1043.76 244.713 1120.17C206.314 1199.83 124.118 1154.64 120.984 1116.85C106.617 945.673 102.611 870.181 89.8116 756.272C76.9249 641.586 -64.2195 613.762 -79.5442 606.488C-94.7819 599.144 -110.542 592.082 -126.825 585.161" stroke="#F5F1EE" stroke-width="0.5" stroke-miterlimit="10"/>
<path d="M583.599 1097.43C527.176 1038.96 478.241 980.77 431.135 924.063C423.299 914.6 415.375 905.278 407.365 896.451C317.332 821.382 277.714 1064.24 193.95 1067C117.152 1069.54 207.882 767.076 119.329 616.092C113.582 606.276 103.308 598.649 93.5557 590.881C81.2785 582.547 68.5659 574.426 55.418 566.376C29.2092 550.345 1.34602 534.95 -28.4327 520.19" stroke="#F5F1EE" stroke-width="0.5" stroke-miterlimit="10"/>
<path d="M628.093 1033.24C571.235 971.168 522.474 909.093 474.846 848.502C468.054 839.815 444.544 803.588 419.293 800.268C363.045 792.924 295.651 929.361 244.8 911.918C190.467 893.274 238.531 587.492 201.787 553.1C191.773 545.05 181.499 537.141 171.05 529.372C139.53 505.997 105.398 483.54 68.0435 462.143" stroke="#F5F1EE" stroke-width="0.5" stroke-miterlimit="10"/>
<path d="M675.722 977.45C604.671 895.884 547.812 814.39 489.3 735.79C482.769 727.033 476.239 718.347 469.708 709.732C432.877 667.431 358.604 795.181 303.313 762.767C251.592 732.471 346.501 562.702 336.575 552.674C287.031 502.464 230.433 454.654 161.646 410.164" stroke="#F5F1EE" stroke-width="0.5" stroke-miterlimit="10"/>
<path d="M726.92 929.009C652.125 838.828 596.225 748.647 535.97 662.279C516.64 634.596 424.779 657.618 403.795 630.854C380.111 600.628 427.043 520.758 399.093 492.016C355.556 447.102 305.49 404.306 244.8 364.124" stroke="#F5F1EE" stroke-width="0.5" stroke-miterlimit="10"/>
<path d="M781.863 886.915C707.59 793.345 655.26 700.127 596.834 611.429C583.077 590.596 532.139 585.865 517.337 565.597C496.091 536.36 510.284 491.941 485.033 464.117C439.494 413.977 385.684 366.309 317.158 322.242" stroke="#F5F1EE" stroke-width="0.5" stroke-miterlimit="10"/>
<path d="M841.333 849.839C683.994 639.958 627.484 445.825 384.029 281.353" stroke="#F5F1EE" stroke-width="0.5" stroke-miterlimit="10"/>
<path d="M906.725 816.652C751.649 601.475 689.479 408.402 444.457 239.409" stroke="#F5F1EE" stroke-width="0.5" stroke-miterlimit="10"/>
<path d="M977.602 785.222C818.607 565.101 745.728 368.991 497.397 193.996" stroke="#F5F1EE" stroke-width="0.5" stroke-miterlimit="10"/>
<path d="M1054.31 751.819C974.206 669.689 943.556 565.454 885.131 473.72C801.106 341.661 676.505 240.675 540.672 142.797" stroke="#F5F1EE" stroke-width="0.5" stroke-miterlimit="10"/>
<path d="M1766.3 600.7C1605.65 716.94 1435.34 812.135 1261.02 913.05C1150.61 976.96 1001.81 1056.05 975.338 1173.49C816.866 1195.53 660.919 1222.65 504.886 1254C637.497 968.91 817.04 859.167 1134.33 715.315C1353.84 706.77 1559.94 659.385 1766.39 600.7H1766.3Z" stroke="#F5F1EE" stroke-width="0.5" stroke-miterlimit="10"/>
<path d="M1182.05 712.912C868.935 860.365 680.424 958.88 549.206 1244.89" stroke="#F5F1EE" stroke-width="0.5" stroke-miterlimit="10"/>
<path d="M1231.33 709.243C923.007 860.439 722.915 949.843 593.177 1236.13" stroke="#F5F1EE" stroke-width="0.5" stroke-miterlimit="10"/>
<path d="M1282.27 704.229C979.43 859.098 764.797 941.723 636.713 1227.73" stroke="#F5F1EE" stroke-width="0.5" stroke-miterlimit="10"/>
<path d="M1335.12 697.733C1038.64 855.992 806.243 934.944 679.988 1219.68" stroke="#F5F1EE" stroke-width="0.5" stroke-miterlimit="10"/>
<path d="M1389.8 689.678C1100.29 851.184 847.254 929.431 722.828 1212.05" stroke="#F5F1EE" stroke-width="0.5" stroke-miterlimit="10"/>
<path d="M1446.66 679.864C1164.89 844.054 888.004 925.337 765.493 1204.71" stroke="#F5F1EE" stroke-width="0.5" stroke-miterlimit="10"/>
<path d="M1505.7 668.209C1232.38 834.588 928.667 922.651 807.811 1197.78" stroke="#F5F1EE" stroke-width="0.5" stroke-miterlimit="10"/>
<path d="M1566.99 654.582C1302.29 822.798 969.417 921.029 849.866 1191.22" stroke="#F5F1EE" stroke-width="0.5" stroke-miterlimit="10"/>
<path d="M1630.82 638.838C1401.38 791.8 970.375 927.954 891.835 1185.01" stroke="#F5F1EE" stroke-width="0.5" stroke-miterlimit="10"/>
<path d="M1697.17 620.969C1540.61 729.793 1373.78 818.421 1206.6 914.958C1088.18 983.317 967.066 1056.9 933.543 1179.14" stroke="#F5F1EE" stroke-width="0.5" stroke-miterlimit="10"/>
<path d="M1002.5 1113.04C847.864 1127.66 695.313 1146.52 542.501 1170.81" stroke="#F5F1EE" stroke-width="0.5" stroke-miterlimit="10"/>
<path d="M1045.08 1061.71C890.181 1067.85 737.282 1079.93 583.599 1097.44" stroke="#F5F1EE" stroke-width="0.5" stroke-miterlimit="10"/>
<path d="M1097.94 1016.37C940.683 1017.08 784.736 1022.51 628.006 1033.25" stroke="#F5F1EE" stroke-width="0.5" stroke-miterlimit="10"/>
<path d="M1158.36 974.491C997.454 974.491 836.631 972.514 675.809 977.457" stroke="#F5F1EE" stroke-width="0.5" stroke-miterlimit="10"/>
<path d="M1224.97 933.814C1058.75 935.721 893.054 930.707 726.833 929.012" stroke="#F5F1EE" stroke-width="0.5" stroke-miterlimit="10"/>
<path d="M1297.24 892.219C1124.58 898.999 954.266 894.267 781.863 886.923" stroke="#F5F1EE" stroke-width="0.5" stroke-miterlimit="10"/>
<path d="M1376.22 846.523C1194.93 860.93 1022.71 861.848 841.333 849.843" stroke="#F5F1EE" stroke-width="0.5" stroke-miterlimit="10"/>
<path d="M1464.25 795.187C1275.48 818.632 1097.41 831.556 906.725 816.655" stroke="#F5F1EE" stroke-width="0.5" stroke-miterlimit="10"/>
<path d="M1559.16 738.057C1363.16 772.025 1178.48 794.764 977.602 785.23" stroke="#F5F1EE" stroke-width="0.5" stroke-miterlimit="10"/>
<path d="M1658.42 673.864C1456.24 720.191 1265.2 752.817 1054.31 751.828" stroke="#F5F1EE" stroke-width="0.5" stroke-miterlimit="10"/>
<path d="M1767 600.135C1560.46 658.961 1354.1 706.559 1134.24 715.245C1049.35 632.408 1011.82 527.821 947.997 434.957C851.608 294.636 715.949 187.082 567.491 82.283C726.05 60.0379 882.083 32.6375 1038.12 1C1074.6 36.0272 1108.73 71.2664 1141.47 106.364C1148 113.356 1154.53 120.347 1161.06 127.338C1181.7 151.772 1199.11 172.958 1216.53 172.958C1312.31 172.958 1312.31 52.9053 1381.97 38.7814C1486.45 3.47172 1469.04 187.082 1479.49 256.431C1480.44 268.93 1481.32 281.218 1482.27 293.506C1484.97 330.299 1487.32 367.162 1495.16 398.941C1503.87 434.25 1521.28 469.56 1554.89 496.113C1566.21 505.293 1579.27 513.485 1594.42 520.688C1607.31 528.103 1620.54 535.377 1634.21 542.439C1674.96 563.625 1719.02 582.904 1767 600.065V600.135Z" stroke="#F5F1EE" stroke-width="0.5" stroke-miterlimit="10"/>
<path d="M1124.14 87.9297C970.375 114.271 821.655 134.75 665.621 150.569" stroke="#F5F1EE" stroke-width="0.5" stroke-miterlimit="10"/>
<path d="M1196.33 164.486C1180.83 167.947 1165.85 170.772 1150.96 173.384C1016.96 196.265 887.656 207.847 749.385 216.886" stroke="#F5F1EE" stroke-width="0.5" stroke-miterlimit="10"/>
<path d="M1261.28 161.942C1268.34 210.246 1229.68 240.754 1215.05 243.72C1200.51 246.686 1185.97 249.369 1171.51 251.841C1055.71 271.755 941.641 278.323 819.914 281.43" stroke="#F5F1EE" stroke-width="0.5" stroke-miterlimit="10"/>
<path d="M1355.84 50.8545C1315.36 87.9297 1312.31 201.274 1247 267.162C1238.91 276.484 1229.94 285.24 1219.92 293.079C1199.9 308.757 1175.43 321.044 1144.35 328.036C1129.8 330.296 1115.44 331.99 1100.98 333.473C1028.97 341.1 956.095 344.419 878.6 344.349" stroke="#F5F1EE" stroke-width="0.5" stroke-miterlimit="10"/>
<path d="M1417.93 35.7441C1376.22 50.8567 1355.84 180.09 1293.06 265.257C1286.62 276.345 1279.92 286.867 1272.86 296.965C1237.51 347.176 1190.23 387.005 1109.26 398.516C1099.42 399.434 1089.49 400.282 1079.56 401.058C1029.85 404.801 979.343 406.284 927.1 405.437" stroke="#F5F1EE" stroke-width="0.5" stroke-miterlimit="10"/>
<path d="M1467.99 119.217C1418.01 87.862 1356.98 240.188 1323.1 299.65C1286.45 364.055 1193.02 443.784 1108.47 460.309C1096.8 461.227 1085.14 462.004 1073.38 462.569C1038.2 464.405 1002.85 465.04 967.153 464.122" stroke="#F5F1EE" stroke-width="0.5" stroke-miterlimit="10"/>
<path d="M1492.98 392.867C1460.33 363.701 1470.43 323.024 1417.93 328.745C1335.99 337.643 1350.18 503.245 1123.62 515.957C1113.26 516.522 1102.99 517.44 1092.71 518.005C1061.8 519.699 1030.8 520.264 999.892 519.417" stroke="#F5F1EE" stroke-width="0.5" stroke-miterlimit="10"/>
<path d="M1544.01 486.577C1399.47 441.38 1303.69 547.309 1164.81 567.224C1153.05 568.283 1141.3 569.201 1129.72 569.907C1094.89 572.097 1060.93 572.803 1028.97 571.673" stroke="#F5F1EE" stroke-width="0.5" stroke-miterlimit="10"/>
<path d="M1612.45 530.929C1597.82 534.954 1583.1 538.909 1568.3 542.863C1554.8 546.041 1541.31 549.219 1527.73 552.115C1416.88 568.569 1312.39 603.879 1198.85 614.33C1187.1 615.531 1175.34 616.59 1163.59 617.579C1128.32 620.403 1093.23 622.028 1058.32 622.169" stroke="#F5F1EE" stroke-width="0.5" stroke-miterlimit="10"/>
<path d="M1683.5 566.452C1627.16 582.271 1569.96 597.454 1511.96 611.013C1500.38 613.767 1488.8 616.38 1477.14 618.993C1425.5 624.996 1373.26 646.181 1308.04 650.63C1296.2 652.396 1284.36 654.02 1272.43 655.574C1213.05 663.271 1153.23 668.074 1093.15 669.274" stroke="#F5F1EE" stroke-width="0.5" stroke-miterlimit="10"/>
<path d="M1182.05 712.842C1092.36 631.347 1049.96 529.655 985.961 435.661C889.571 294.139 757.047 184.114 609.285 76.7021" stroke="#F5F1EE" stroke-width="0.5" stroke-miterlimit="10"/>
<path d="M1231.42 709.171C1136.07 630.289 1088.53 530.504 1024.19 435.733C927.448 293.293 797.971 180.797 651.167 70.7715" stroke="#F5F1EE" stroke-width="0.5" stroke-miterlimit="10"/>
<path d="M1282.44 704.158C1231.85 666.235 1193.28 622.875 1159.23 577.043C1152.44 567.862 1145.74 558.611 1139.21 549.289C1132.68 539.968 1126.32 530.505 1119.96 521.042C1100.9 492.653 1082.44 463.769 1062.76 435.168C964.889 292.164 838.895 177.266 693.049 64.5576" stroke="#F5F1EE" stroke-width="0.5" stroke-miterlimit="10"/>
<path d="M1335.29 697.59C1311.18 681.277 1289.49 663.764 1269.64 645.403C1263.02 639.259 1256.67 633.044 1250.4 626.689C1207.82 575.489 1155.58 518.994 1121.88 462.498C1115.26 452.894 1108.65 443.29 1101.94 433.685C1002.42 290.54 879.906 173.1 735.105 57.7783" stroke="#F5F1EE" stroke-width="0.5" stroke-miterlimit="10"/>
<path d="M1390.15 689.467C1377.61 680.499 1365.6 671.389 1353.93 662.138C1260.15 589.682 1199.2 497.877 1127.37 416.523C1119.62 406.495 1111.95 396.467 1104.2 386.298C1019.14 275.002 928.232 158.974 777.509 50.7852" stroke="#F5F1EE" stroke-width="0.5" stroke-miterlimit="10"/>
<path d="M1447.01 679.65C1433.86 671.175 1421.06 662.489 1408.52 653.52C1294.98 568.495 1281.05 498.582 1182.05 405.364C1172.91 396.748 1145.39 394.842 1098.81 343.713C1006.77 242.727 927.013 133.832 820.088 43.5098" stroke="#F5F1EE" stroke-width="0.5" stroke-miterlimit="10"/>
<path d="M1506.04 667.929C1491.94 660.726 1478.27 653.17 1464.86 645.26C1451.45 637.351 1438.39 629.018 1425.85 620.12C1338.43 533.187 1315.36 437.216 1261.28 384.322C1219.23 343.15 1185.44 384.322 1134.16 335.735C1124.06 326.202 1116.83 314.761 1108.21 304.239C1030.63 209.397 954.005 114.414 863.014 35.7441" stroke="#F5F1EE" stroke-width="0.5" stroke-miterlimit="10"/>
<path d="M1567.52 654.226C1552.8 646.67 1538.52 638.902 1524.5 630.781C1510.57 622.66 1496.9 614.256 1483.75 605.499C1382.05 540.247 1399.47 420.194 1355.93 328.388C1321.1 271.893 1242.74 328.388 1181.79 321.326C1173.08 314.264 1164.37 300.141 1154.45 293.29C1146.44 284.534 1138.6 275.353 1130.85 266.243C1060.49 184.042 989.618 101.629 906.376 27.6201" stroke="#F5F1EE" stroke-width="0.5" stroke-miterlimit="10"/>
<path d="M1631.34 638.481C1615.76 631.348 1600.6 623.933 1585.8 616.235C1571 608.538 1556.72 600.558 1542.7 592.296C1436.3 531.139 1435.25 417.512 1430.2 334.958C1429.42 321.753 1424.02 198.31 1384.23 183.974C1302.29 154.526 1270.69 262.927 1230.63 278.675C1202.51 289.691 1150.79 231.077 1140.78 219.637C1080.96 151.206 1019.74 82.7762 949.913 19.0068" stroke="#F5F1EE" stroke-width="0.5" stroke-miterlimit="10"/>
<path d="M1697.86 620.471C1652.67 602.18 1611.05 581.701 1572.39 559.314C1559.51 551.829 1546.88 544.06 1534.69 535.092C1463.99 474.642 1455.02 348.939 1450.84 279.449C1446.66 208.83 1462.25 103.395 1381.97 102.477C1307.95 101.63 1286.45 240.538 1231.24 235.1C1219.31 233.9 1156.8 180.017 1149.83 172.249C1100.81 117.731 1050.22 63.0008 993.797 10.248" stroke="#F5F1EE" stroke-width="0.5" stroke-miterlimit="10"/>
</g>
<g opacity="0.68">
<path d="M845 1073L891.5 1020L932.5 1018L887 1070L845 1073Z" fill="url(#paint0_linear_461_2)"/>
<path d="M845 1073L891.5 1020L932.5 1018L887 1070L845 1073Z" fill="url(#paint1_radial_461_2)"/>
<path d="M845 1073L891.5 1020L932.5 1018L887 1070L845 1073Z" fill="url(#paint2_radial_461_2)"/>
</g>
<circle cx="931" cy="1019.5" r="6" fill="#F5F1EE"/>
<path d="M945.16 1026L951.38 1011.22H953.38L959.64 1026H957.08L955.32 1021.8H949.52L947.7 1026H945.16ZM950.36 1019.6H954.38L952.38 1014.36L950.36 1019.6ZM960.365 1022.62H962.625C962.705 1023.52 963.505 1024.18 964.525 1024.18C965.585 1024.18 966.425 1023.48 966.425 1022.62C966.425 1021.52 965.585 1021.04 963.745 1021.04V1019.46C965.305 1019.46 966.025 1019 966.025 1018.04C966.025 1017.34 965.365 1016.76 964.525 1016.76C963.705 1016.76 963.065 1017.28 962.945 1018.04H960.785C960.905 1016.12 962.505 1014.7 964.525 1014.7C966.605 1014.7 968.245 1016.18 968.245 1018.04C968.245 1019.02 967.625 1019.86 966.665 1020.12V1020.18C967.885 1020.5 968.705 1021.48 968.705 1022.62C968.705 1024.64 966.845 1026.26 964.545 1026.26C962.305 1026.26 960.485 1024.68 960.365 1022.62ZM978.795 1022.62H981.255C980.535 1024.76 978.375 1026.26 975.955 1026.26C972.615 1026.26 970.035 1023.74 970.035 1020.5C970.035 1017.26 972.575 1014.7 975.815 1014.7C979.055 1014.7 981.555 1017.24 981.555 1020.54C981.555 1020.9 981.515 1021.12 981.455 1021.44H972.435C972.695 1023.06 974.095 1024.18 975.895 1024.18C977.195 1024.18 978.135 1023.64 978.795 1022.62ZM972.395 1019.42H979.295C978.895 1017.76 977.635 1016.78 975.835 1016.78C974.075 1016.78 972.815 1017.76 972.395 1019.42ZM983.288 1029.74V1014.96H985.408V1016.46C986.288 1015.32 987.628 1014.7 989.268 1014.7C992.488 1014.7 994.868 1017.14 994.868 1020.46C994.868 1023.78 992.468 1026.26 989.248 1026.26C987.728 1026.26 986.568 1025.76 985.548 1024.68V1029.74H983.288ZM989.028 1024.18C991.048 1024.18 992.588 1022.58 992.588 1020.52C992.588 1018.36 991.048 1016.78 988.968 1016.78C986.948 1016.78 985.408 1018.4 985.408 1020.52C985.408 1022.58 986.988 1024.18 989.028 1024.18ZM998.267 1017.2L998.307 1017.22C998.927 1015.88 1000.79 1014.86 1002.55 1014.86C1005.65 1014.86 1008.01 1017.3 1008.01 1020.54C1008.01 1023.74 1005.43 1026.26 1002.17 1026.26C998.527 1026.26 996.387 1023.84 996.387 1019.76V1018.1C996.387 1013.3 998.367 1010.86 1002.49 1010.52L1007.27 1010.14V1012.18L1002.61 1012.58C999.687 1012.84 998.287 1014.32 998.267 1017.2ZM1002.13 1024.18C1004.15 1024.18 1005.73 1022.58 1005.73 1020.52C1005.73 1018.48 1004.15 1016.9 1002.11 1016.9C1000.15 1016.9 998.587 1018.5 998.587 1020.5C998.587 1022.58 1000.13 1024.18 1002.13 1024.18ZM1009.33 1020.52C1009.33 1017.16 1011.73 1014.7 1015.01 1014.7C1016.71 1014.7 1017.89 1015.28 1018.85 1016.6V1014.96H1020.97V1026H1018.85V1024.4C1017.77 1025.72 1016.67 1026.26 1015.01 1026.26C1011.71 1026.26 1009.33 1023.84 1009.33 1020.52ZM1011.61 1020.54C1011.61 1022.64 1013.15 1024.18 1015.25 1024.18C1017.33 1024.18 1018.81 1022.64 1018.81 1020.5C1018.81 1018.34 1017.27 1016.78 1015.15 1016.78C1013.13 1016.78 1011.61 1018.4 1011.61 1020.54ZM1025.07 1011.08H1026.91C1026.91 1012.12 1027.35 1012.58 1028.29 1012.58C1029.23 1012.58 1029.67 1012.12 1029.67 1011.08H1031.51C1031.21 1012.8 1030.13 1013.68 1028.29 1013.68C1026.45 1013.68 1025.37 1012.8 1025.07 1011.08ZM1023.25 1026V1014.96H1025.51V1022.8L1031.03 1014.96H1033.33V1026H1031.07V1018.18L1025.55 1026H1023.25ZM1034.71 1028.6V1023.94H1036.33L1040.15 1014.96H1042.27L1046.09 1023.94H1047.71V1028.6H1046.09L1045.55 1026H1036.89L1036.33 1028.6H1034.71ZM1038.69 1023.94H1043.73L1041.21 1017.96L1038.69 1023.94ZM1048.01 1026L1052.39 1020.4L1048.17 1014.96H1050.85L1054.61 1020.06V1014.96H1056.89V1020.06L1060.65 1014.96H1063.33L1059.11 1020.4L1063.49 1026H1060.71L1056.89 1020.82V1026H1054.61V1020.82L1050.79 1026H1048.01ZM1064.21 1020.52C1064.21 1017.16 1066.61 1014.7 1069.89 1014.7C1071.59 1014.7 1072.77 1015.28 1073.73 1016.6V1014.96H1075.85V1026H1073.73V1024.4C1072.65 1025.72 1071.55 1026.26 1069.89 1026.26C1066.59 1026.26 1064.21 1023.84 1064.21 1020.52ZM1066.49 1020.54C1066.49 1022.64 1068.03 1024.18 1070.13 1024.18C1072.21 1024.18 1073.69 1022.64 1073.69 1020.5C1073.69 1018.34 1072.15 1016.78 1070.03 1016.78C1068.01 1016.78 1066.49 1018.4 1066.49 1020.54ZM1078.13 1026V1014.96H1080.39V1019.38H1085.83V1014.96H1088.11V1026H1085.83V1021.44H1080.39V1026H1078.13Z" fill="#F5F1EE"/>
<g opacity="0.68">
<path d="M865.5 851L925.5 816.5L963.5 820.5L907.5 853.5L865.5 851Z" fill="url(#paint3_linear_461_2)"/>
<path d="M865.5 851L925.5 816.5L963.5 820.5L907.5 853.5L865.5 851Z" fill="url(#paint4_radial_461_2)"/>
<path d="M865.5 851L925.5 816.5L963.5 820.5L907.5 853.5L865.5 851Z" fill="url(#paint5_radial_461_2)"/>
</g>
<circle cx="965" cy="821.5" r="6" fill="#F5F1EE"/>
<path d="M980.46 828V813.22H988.04V815.42H982.78V828H980.46ZM989.32 831.74V816.96H991.44V818.46C992.32 817.32 993.66 816.7 995.3 816.7C998.52 816.7 1000.9 819.14 1000.9 822.46C1000.9 825.78 998.5 828.26 995.28 828.26C993.76 828.26 992.6 827.76 991.58 826.68V831.74H989.32ZM995.06 826.18C997.08 826.18 998.62 824.58 998.62 822.52C998.62 820.36 997.08 818.78 995 818.78C992.98 818.78 991.44 820.4 991.44 822.52C991.44 824.58 993.02 826.18 995.06 826.18ZM1003.8 831.74L1005.78 827.18L1001.66 816.96H1004.22L1007.02 824.66L1010.04 816.96H1012.6L1006.24 831.74H1003.8ZM1013.25 824.62H1015.51C1015.59 825.52 1016.39 826.18 1017.41 826.18C1018.47 826.18 1019.31 825.48 1019.31 824.62C1019.31 823.52 1018.47 823.04 1016.63 823.04V821.46C1018.19 821.46 1018.91 821 1018.91 820.04C1018.91 819.34 1018.25 818.76 1017.41 818.76C1016.59 818.76 1015.95 819.28 1015.83 820.04H1013.67C1013.79 818.12 1015.39 816.7 1017.41 816.7C1019.49 816.7 1021.13 818.18 1021.13 820.04C1021.13 821.02 1020.51 821.86 1019.55 822.12V822.18C1020.77 822.5 1021.59 823.48 1021.59 824.62C1021.59 826.64 1019.73 828.26 1017.43 828.26C1015.19 828.26 1013.37 826.68 1013.25 824.62ZM1023.4 828V816.96H1025.66V824.8L1031.18 816.96H1033.48V828H1031.22V820.18L1025.7 828H1023.4ZM1041.42 821.9V819.02H1039.42C1038.3 819.02 1037.64 819.56 1037.64 820.46C1037.64 821.36 1038.3 821.9 1039.42 821.9H1041.42ZM1034.9 828L1037.82 823.76C1036.32 823.28 1035.36 822 1035.36 820.46C1035.36 818.44 1036.96 816.96 1039.16 816.96H1043.68V828H1041.42V823.96H1040.18L1037.6 828H1034.9Z" fill="#F5F1EE"/>
<g opacity="0.68">
<path d="M1078 518.5L1043 464.5L1081 461.5L1117.5 516L1078 518.5Z" fill="url(#paint6_linear_461_2)"/>
<path d="M1078 518.5L1043 464.5L1081 461.5L1117.5 516L1078 518.5Z" fill="url(#paint7_radial_461_2)"/>
<path d="M1078 518.5L1043 464.5L1081 461.5L1117.5 516L1078 518.5Z" fill="url(#paint8_radial_461_2)"/>
</g>
<circle cx="1084" cy="460.5" r="6" fill="#F5F1EE"/>
<path d="M1099.46 467V452.22H1101.76V463.24L1108.98 452.22H1111.32V467H1109.02V455.98L1101.8 467H1099.46ZM1122.27 463.5H1124.83C1123.79 465.96 1121.89 467.26 1119.37 467.26C1116.07 467.26 1113.45 464.7 1113.45 461.48C1113.45 458.24 1116.01 455.7 1119.29 455.7C1121.87 455.7 1123.95 457.14 1124.83 459.54H1122.27C1121.63 458.38 1120.63 457.78 1119.29 457.78C1117.23 457.78 1115.73 459.34 1115.73 461.48C1115.73 463.58 1117.29 465.18 1119.35 465.18C1120.59 465.18 1121.45 464.68 1122.27 463.5ZM1126.56 467V455.96H1136.5V467H1134.24V458.02H1128.82V467H1126.56ZM1138.31 461.52C1138.31 458.16 1140.71 455.7 1143.99 455.7C1145.69 455.7 1146.87 456.28 1147.83 457.6V455.96H1149.95V467H1147.83V465.4C1146.75 466.72 1145.65 467.26 1143.99 467.26C1140.69 467.26 1138.31 464.84 1138.31 461.52ZM1140.59 461.54C1140.59 463.64 1142.13 465.18 1144.23 465.18C1146.31 465.18 1147.79 463.64 1147.79 461.5C1147.79 459.34 1146.25 457.78 1144.13 457.78C1142.11 457.78 1140.59 459.4 1140.59 461.54ZM1152.23 467V455.96H1154.49V460.38H1159.93V455.96H1162.21V467H1159.93V462.44H1154.49V467H1152.23ZM1164.49 467V455.96H1166.75V463.8L1172.27 455.96H1174.57V467H1172.31V459.18L1166.79 467H1164.49ZM1182.51 460.9V458.02H1180.51C1179.39 458.02 1178.73 458.56 1178.73 459.46C1178.73 460.36 1179.39 460.9 1180.51 460.9H1182.51ZM1175.99 467L1178.91 462.76C1177.41 462.28 1176.45 461 1176.45 459.46C1176.45 457.44 1178.05 455.96 1180.25 455.96H1184.77V467H1182.51V462.96H1181.27L1178.69 467H1175.99Z" fill="#F5F1EE"/>
<path d="M606.5 765.5L572.5 715L642 681.5L673.5 731L606.5 765.5Z" fill="url(#paint9_linear_461_2)"/>
<path d="M606.5 765.5L572.5 715L642 681.5L673.5 731L606.5 765.5Z" fill="url(#paint10_radial_461_2)"/>
<path d="M606.5 765.5L572.5 715L642 681.5L673.5 731L606.5 765.5Z" fill="url(#paint11_radial_461_2)"/>
<circle cx="643" cy="678.5" r="5.5" fill="#FF4E27" stroke="#F5F1EE"/>
<path d="M658.46 685V670.22H660.78V676.74L666.08 670.22H668.92L662.78 677.5L668.92 685H666.06L660.78 678.38V685H658.46ZM669.789 679.52C669.789 676.16 672.189 673.7 675.469 673.7C677.169 673.7 678.349 674.28 679.309 675.6V673.96H681.429L681.429 685H679.309V683.4C678.229 684.72 677.129 685.26 675.469 685.26C672.169 685.26 669.789 682.84 669.789 679.52ZM672.069 679.54C672.069 681.64 673.609 683.18 675.709 683.18C677.789 683.18 679.269 681.64 679.269 679.5C679.269 677.34 677.729 675.78 675.609 675.78C673.589 675.78 672.069 677.4 672.069 679.54ZM683.126 681.62H685.386C685.466 682.52 686.266 683.18 687.286 683.18C688.346 683.18 689.186 682.48 689.186 681.62C689.186 680.52 688.346 680.04 686.506 680.04V678.46C688.066 678.46 688.786 678 688.786 677.04C688.786 676.34 688.126 675.76 687.286 675.76C686.466 675.76 685.826 676.28 685.706 677.04H683.546C683.666 675.12 685.266 673.7 687.286 673.7C689.366 673.7 691.006 675.18 691.006 677.04C691.006 678.02 690.386 678.86 689.426 679.12V679.18C690.646 679.5 691.466 680.48 691.466 681.62C691.466 683.64 689.606 685.26 687.306 685.26C685.066 685.26 683.246 683.68 683.126 681.62ZM692.797 679.52C692.797 676.16 695.197 673.7 698.477 673.7C700.177 673.7 701.357 674.28 702.317 675.6V673.96H704.437V685H702.317V683.4C701.237 684.72 700.137 685.26 698.477 685.26C695.177 685.26 692.797 682.84 692.797 679.52ZM695.077 679.54C695.077 681.64 696.617 683.18 698.717 683.18C700.797 683.18 702.277 681.64 702.277 679.5C702.277 677.34 700.737 675.78 698.617 675.78C696.597 675.78 695.077 677.4 695.077 679.54ZM705.674 685L709.554 679.32L706.014 673.96H708.574L710.894 677.6L713.174 673.96H715.754L712.214 679.32L716.114 685H713.414L710.894 681L708.354 685H705.674ZM725.699 681.5H728.259C727.219 683.96 725.319 685.26 722.799 685.26C719.499 685.26 716.879 682.7 716.879 679.48C716.879 676.24 719.439 673.7 722.719 673.7C725.299 673.7 727.379 675.14 728.259 677.54H725.699C725.059 676.38 724.059 675.78 722.719 675.78C720.659 675.78 719.159 677.34 719.159 679.48C719.159 681.58 720.719 683.18 722.779 683.18C724.019 683.18 724.879 682.68 725.699 681.5ZM731.855 685V676.02H729.175V673.96H736.795V676.02H734.115V685H731.855ZM737.777 679.52C737.777 676.16 740.177 673.7 743.457 673.7C745.157 673.7 746.337 674.28 747.297 675.6V673.96H749.417V685H747.297V683.4C746.217 684.72 745.117 685.26 743.457 685.26C740.157 685.26 737.777 682.84 737.777 679.52ZM740.057 679.54C740.057 681.64 741.597 683.18 743.697 683.18C745.777 683.18 747.257 681.64 747.257 679.5C747.257 677.34 745.717 675.78 743.597 675.78C741.577 675.78 740.057 677.4 740.057 679.54ZM751.695 685V673.96H753.955V678.38H759.395V673.96H761.675V685H759.395V680.44H753.955V685H751.695Z" fill="#F5F1EE"/>
<g opacity="0.52">
<path d="M1063.5 187.5L991 109L1035 102.5L1106.5 180.5L1063.5 187.5Z" fill="url(#paint12_linear_461_2)"/>
<path d="M1063.5 187.5L991 109L1035 102.5L1106.5 180.5L1063.5 187.5Z" fill="url(#paint13_radial_461_2)"/>
<path d="M1063.5 187.5L991 109L1035 102.5L1106.5 180.5L1063.5 187.5Z" fill="url(#paint14_radial_461_2)"/>
</g>
<circle cx="1038" cy="101.5" r="6" fill="#F5F1EE"/>
<path d="M1053.46 108V93.22H1055.78V99.74L1061.08 93.22H1063.92L1057.78 100.5L1063.92 108H1061.06L1055.78 101.38V108H1053.46ZM1065.27 108V96.96H1067.53V104.8L1073.05 96.96H1075.35V108H1073.09V100.18L1067.57 108H1065.27ZM1077.63 108V96.96H1087.57V108H1085.31V99.02H1079.89V108H1077.63ZM1089.86 111.74V96.96H1091.98V98.46C1092.86 97.32 1094.2 96.7 1095.84 96.7C1099.06 96.7 1101.44 99.14 1101.44 102.46C1101.44 105.78 1099.04 108.26 1095.82 108.26C1094.3 108.26 1093.14 107.76 1092.12 106.68V111.74H1089.86ZM1095.6 106.18C1097.62 106.18 1099.16 104.58 1099.16 102.52C1099.16 100.36 1097.62 98.78 1095.54 98.78C1093.52 98.78 1091.98 100.4 1091.98 102.52C1091.98 104.58 1093.56 106.18 1095.6 106.18Z" fill="#F5F1EE"/>
<g opacity="0.68">
<path d="M916 344L855.5 280.5L895 279L954.5 344H916Z" fill="url(#paint15_linear_461_2)"/>
<path d="M916 344L855.5 280.5L895 279L954.5 344H916Z" fill="url(#paint16_radial_461_2)"/>
<path d="M916 344L855.5 280.5L895 279L954.5 344H916Z" fill="url(#paint17_radial_461_2)"/>
</g>
<circle cx="895" cy="276.5" r="6" fill="#F5F1EE"/>
<path d="M912.78 280.8H914.12C915.16 280.8 915.78 280.74 916.38 280.6C917.3 280.32 917.86 279.52 917.86 278.44C917.86 276.34 915.84 276.16 914.24 276.16H912.78V280.8ZM910.46 283V268.22H919.28V270.42H912.78V273.96H914.32C916.4 273.96 917.4 274.14 918.28 274.66C919.48 275.36 920.2 276.8 920.2 278.46C920.2 280.14 919.52 281.5 918.32 282.24C917.4 282.8 916.32 283 914.26 283H910.46ZM921.535 277.52C921.535 274.16 923.935 271.7 927.215 271.7C928.915 271.7 930.095 272.28 931.055 273.6V271.96H933.175L933.175 283H931.055V281.4C929.975 282.72 928.875 283.26 927.215 283.26C923.915 283.26 921.535 280.84 921.535 277.52ZM923.815 277.54C923.815 279.64 925.355 281.18 927.455 281.18C929.535 281.18 931.015 279.64 931.015 277.5C931.015 275.34 929.475 273.78 927.355 273.78C925.335 273.78 923.815 275.4 923.815 277.54ZM934.392 283L939.032 271.96H940.972L945.612 283H943.212L940.012 275L936.792 283H934.392ZM946.839 283V271.96H949.099V279.8L954.619 271.96H956.919V283H954.659V275.18L949.139 283H946.839Z" fill="#F5F1EE"/>
<g opacity="0.68">
<path d="M607.5 495L566.5 445L635.5 411.5L677.5 464.5L607.5 495Z" fill="url(#paint18_linear_461_2)"/>
<path d="M607.5 495L566.5 445L635.5 411.5L677.5 464.5L607.5 495Z" fill="url(#paint19_radial_461_2)"/>
<path d="M607.5 495L566.5 445L635.5 411.5L677.5 464.5L607.5 495Z" fill="url(#paint20_radial_461_2)"/>
</g>
<circle cx="634" cy="410.5" r="6" fill="#F5F1EE"/>
<path d="M649.46 417V402.22H653.26C655.22 402.22 656.28 402.42 657.16 402.98C658.34 403.72 659 405.08 659 406.76C659 408.42 658.3 409.84 657.14 410.56C656.3 411.08 655.3 411.26 653.3 411.26H651.78V417H649.46ZM651.78 409.06H653.22C654.24 409.06 654.94 408.98 655.42 408.76C656.2 408.48 656.66 407.74 656.66 406.78C656.66 404.48 654.82 404.42 653.08 404.42H651.78V409.06ZM660.242 411.5C660.242 408.22 662.802 405.7 666.122 405.7C669.342 405.7 671.902 408.28 671.902 411.5C671.902 414.72 669.342 417.26 666.122 417.26C662.822 417.26 660.242 414.72 660.242 411.5ZM666.082 415.18C668.082 415.18 669.602 413.58 669.602 411.52C669.602 409.4 668.062 407.78 666.022 407.78C664.082 407.78 662.522 409.42 662.522 411.5C662.522 413.56 664.082 415.18 666.082 415.18ZM682.031 413.5H684.591C683.551 415.96 681.651 417.26 679.131 417.26C675.831 417.26 673.211 414.7 673.211 411.48C673.211 408.24 675.771 405.7 679.051 405.7C681.631 405.7 683.711 407.14 684.591 409.54H682.031C681.391 408.38 680.391 407.78 679.051 407.78C676.991 407.78 675.491 409.34 675.491 411.48C675.491 413.58 677.051 415.18 679.111 415.18C680.351 415.18 681.211 414.68 682.031 413.5ZM694.667 413.5H697.227C696.187 415.96 694.287 417.26 691.767 417.26C688.467 417.26 685.847 414.7 685.847 411.48C685.847 408.24 688.407 405.7 691.687 405.7C694.267 405.7 696.347 407.14 697.227 409.54H694.667C694.027 408.38 693.027 407.78 691.687 407.78C689.627 407.78 688.127 409.34 688.127 411.48C688.127 413.58 689.687 415.18 691.747 415.18C692.987 415.18 693.847 414.68 694.667 413.5ZM698.964 417V405.96H701.224V413.8L706.744 405.96H709.044V417H706.784V409.18L701.264 417H698.964ZM716.987 410.9V408.02H714.987C713.867 408.02 713.207 408.56 713.207 409.46C713.207 410.36 713.867 410.9 714.987 410.9H716.987ZM710.467 417L713.387 412.76C711.887 412.28 710.927 411 710.927 409.46C710.927 407.44 712.527 405.96 714.727 405.96H719.247V417H716.987V412.96H715.747L713.167 417H710.467Z" fill="#F5F1EE"/>
<g opacity="0.68">
<path d="M567 591.5L453.5 645.5C453.5 645.5 415 644 403.5 631C392 618 398.5 591.5 398.5 591.5L506 538.5C506 538.5 509.5 563.5 527 574.5C544.5 585.5 567 591.5 567 591.5Z" fill="url(#paint21_linear_461_2)"/>
<path d="M567 591.5L453.5 645.5C453.5 645.5 415 644 403.5 631C392 618 398.5 591.5 398.5 591.5L506 538.5C506 538.5 509.5 563.5 527 574.5C544.5 585.5 567 591.5 567 591.5Z" fill="url(#paint22_radial_461_2)"/>
<path d="M567 591.5L453.5 645.5C453.5 645.5 415 644 403.5 631C392 618 398.5 591.5 398.5 591.5L506 538.5C506 538.5 509.5 563.5 527 574.5C544.5 585.5 567 591.5 567 591.5Z" fill="url(#paint23_radial_461_2)"/>
</g>
<circle cx="506" cy="536.5" r="6" fill="#F5F1EE"/>
<path d="M523.78 540.8H525.12C526.16 540.8 526.78 540.74 527.38 540.6C528.3 540.32 528.86 539.52 528.86 538.44C528.86 536.34 526.84 536.16 525.24 536.16H523.78V540.8ZM521.46 543V528.22H530.28V530.42H523.78V533.96H525.32C527.4 533.96 528.4 534.14 529.28 534.66C530.48 535.36 531.2 536.8 531.2 538.46C531.2 540.14 530.52 541.5 529.32 542.24C528.4 542.8 527.32 543 525.26 543H521.46ZM541.295 539.62H543.755C543.035 541.76 540.875 543.26 538.455 543.26C535.115 543.26 532.535 540.74 532.535 537.5C532.535 534.26 535.075 531.7 538.315 531.7C541.555 531.7 544.055 534.24 544.055 537.54C544.055 537.9 544.015 538.12 543.955 538.44H534.935C535.195 540.06 536.595 541.18 538.395 541.18C539.695 541.18 540.635 540.64 541.295 539.62ZM534.895 536.42H541.795C541.395 534.76 540.135 533.78 538.335 533.78C536.575 533.78 535.315 534.76 534.895 536.42ZM544.435 543L549.075 531.96H551.015L555.655 543H553.255L550.055 535L546.835 543H544.435ZM556.109 537.52C556.109 534.16 558.509 531.7 561.789 531.7C563.489 531.7 564.669 532.28 565.629 533.6V531.96H567.749V543H565.629V541.4C564.549 542.72 563.449 543.26 561.789 543.26C558.489 543.26 556.109 540.84 556.109 537.52ZM558.389 537.54C558.389 539.64 559.929 541.18 562.029 541.18C564.109 541.18 565.589 539.64 565.589 537.5C565.589 535.34 564.049 533.78 561.929 533.78C559.909 533.78 558.389 535.4 558.389 537.54ZM570.027 546.74V531.96H572.147V533.46C573.027 532.32 574.367 531.7 576.007 531.7C579.227 531.7 581.607 534.14 581.607 537.46C581.607 540.78 579.207 543.26 575.987 543.26C574.467 543.26 573.307 542.76 572.287 541.68V546.74H570.027ZM575.767 541.18C577.787 541.18 579.327 539.58 579.327 537.52C579.327 535.36 577.787 533.78 575.707 533.78C573.687 533.78 572.147 535.4 572.147 537.52C572.147 539.58 573.727 541.18 575.767 541.18ZM584.506 546.74L586.486 542.18L582.366 531.96H584.926L587.726 539.66L590.746 531.96H593.306L586.946 546.74H584.506ZM602.878 539.5H605.438C604.398 541.96 602.498 543.26 599.978 543.26C596.678 543.26 594.058 540.7 594.058 537.48C594.058 534.24 596.618 531.7 599.898 531.7C602.478 531.7 604.558 533.14 605.438 535.54H602.878C602.238 534.38 601.238 533.78 599.898 533.78C597.838 533.78 596.338 535.34 596.338 537.48C596.338 539.58 597.898 541.18 599.958 541.18C601.198 541.18 602.058 540.68 602.878 539.5ZM609.435 540.94H611.755C612.855 540.94 613.515 540.38 613.515 539.48C613.515 538.58 612.855 538.02 611.755 538.02H609.435V540.94ZM607.175 543V531.96H609.435V535.96H611.995C614.195 535.96 615.815 537.46 615.815 539.48C615.815 541.5 614.195 543 611.995 543H607.175Z" fill="#F5F1EE"/>
<defs>
<linearGradient id="paint0_linear_461_2" x1="851.078" y1="1019.38" x2="889.222" y2="1091.1" gradientUnits="userSpaceOnUse">
<stop stop-color="#E31717"/>
<stop offset="1" stop-color="#FFB800"/>
</linearGradient>
<radialGradient id="paint1_radial_461_2" cx="0" cy="0" r="1" gradientUnits="userSpaceOnUse" gradientTransform="translate(902.118 1052.99) rotate(-142.169) scale(47.0794 58.3156)">
<stop stop-color="#E31717" stop-opacity="0"/>
<stop offset="1" stop-color="#FFB800"/>
</radialGradient>
<radialGradient id="paint2_radial_461_2" cx="0" cy="0" r="1" gradientUnits="userSpaceOnUse" gradientTransform="translate(915.235 1067.34) rotate(-143.176) scale(55.56 70.5912)">
<stop stop-color="#FFB800"/>
<stop offset="0.986758" stop-color="#E31717" stop-opacity="0"/>
</radialGradient>
<linearGradient id="paint3_linear_461_2" x1="872.307" y1="817.425" x2="890.249" y2="873.593" gradientUnits="userSpaceOnUse">
<stop stop-color="#E31717"/>
<stop offset="1" stop-color="#FFB800"/>
</linearGradient>
<radialGradient id="paint4_radial_461_2" cx="0" cy="0" r="1" gradientUnits="userSpaceOnUse" gradientTransform="translate(929.472 840.037) rotate(-154.994) scale(45.954 45.0142)">
<stop stop-color="#E31717" stop-opacity="0"/>
<stop offset="1" stop-color="#FFB800"/>
</radialGradient>
<radialGradient id="paint5_radial_461_2" cx="0" cy="0" r="1" gradientUnits="userSpaceOnUse" gradientTransform="translate(944.164 849.695) rotate(-155.785) scale(54.6174 54.1052)">
<stop stop-color="#FFB800"/>
<stop offset="0.986758" stop-color="#E31717" stop-opacity="0"/>
</radialGradient>
<linearGradient id="paint6_linear_461_2" x1="1048.17" y1="462.926" x2="1091.67" y2="530.124" gradientUnits="userSpaceOnUse">
<stop stop-color="#E31717"/>
<stop offset="1" stop-color="#FFB800"/>
</linearGradient>
<radialGradient id="paint7_radial_461_2" cx="0" cy="0" r="1" gradientUnits="userSpaceOnUse" gradientTransform="translate(1091.63 497.76) rotate(-136.613) scale(43.5647 55.6085)">
<stop stop-color="#E31717" stop-opacity="0"/>
<stop offset="1" stop-color="#FFB800"/>
</radialGradient>
<radialGradient id="paint8_radial_461_2" cx="0" cy="0" r="1" gradientUnits="userSpaceOnUse" gradientTransform="translate(1102.8 512.638) rotate(-137.655) scale(51.2342 67.5481)">
<stop stop-color="#FFB800"/>
<stop offset="0.986758" stop-color="#E31717" stop-opacity="0"/>
</radialGradient>
<linearGradient id="paint9_linear_461_2" x1="579.516" y1="683.601" x2="645.652" y2="777.589" gradientUnits="userSpaceOnUse">
<stop stop-color="#E31717"/>
<stop offset="1" stop-color="#FFB800"/>
</linearGradient>
<radialGradient id="paint10_radial_461_2" cx="0" cy="0" r="1" gradientUnits="userSpaceOnUse" gradientTransform="translate(638.431 734.935) rotate(-134.223) scale(61.5397 78.6485)">
<stop stop-color="#E31717" stop-opacity="0"/>
<stop offset="1" stop-color="#FFB800"/>
</radialGradient>
<radialGradient id="paint11_radial_461_2" cx="0" cy="0" r="1" gradientUnits="userSpaceOnUse" gradientTransform="translate(653.572 756.862) rotate(-135.268) scale(72.2638 95.6802)">
<stop stop-color="#FFB800"/>
<stop offset="0.986758" stop-color="#E31717" stop-opacity="0"/>
</radialGradient>
<linearGradient id="paint12_linear_461_2" x1="999.023" y1="104.626" x2="1062.83" y2="207.097" gradientUnits="userSpaceOnUse">
<stop stop-color="#E31717"/>
<stop offset="1" stop-color="#FFB800"/>
</linearGradient>
<radialGradient id="paint13_radial_461_2" cx="0" cy="0" r="1" gradientUnits="userSpaceOnUse" gradientTransform="translate(1066.4 156.571) rotate(-137.723) scale(66.3374 84.4283)">
<stop stop-color="#E31717" stop-opacity="0"/>
<stop offset="1" stop-color="#FFB800"/>
</radialGradient>
<radialGradient id="paint14_radial_461_2" cx="0" cy="0" r="1" gradientUnits="userSpaceOnUse" gradientTransform="translate(1083.71 178.759) rotate(-138.761) scale(78.0707 102.484)">
<stop stop-color="#FFB800"/>
<stop offset="0.986758" stop-color="#E31717" stop-opacity="0"/>
</radialGradient>
<linearGradient id="paint15_linear_461_2" x1="862.377" y1="280.626" x2="908.538" y2="363.723" gradientUnits="userSpaceOnUse">
<stop stop-color="#E31717"/>
<stop offset="1" stop-color="#FFB800"/>
</linearGradient>
<radialGradient id="paint16_radial_461_2" cx="0" cy="0" r="1" gradientUnits="userSpaceOnUse" gradientTransform="translate(920.125 320.349) rotate(-140.953) scale(54.1717 67.7675)">
<stop stop-color="#E31717" stop-opacity="0"/>
<stop offset="1" stop-color="#FFB800"/>
</radialGradient>
<radialGradient id="paint17_radial_461_2" cx="0" cy="0" r="1" gradientUnits="userSpaceOnUse" gradientTransform="translate(934.966 337.316) rotate(-141.971) scale(63.8821 82.0941)">
<stop stop-color="#FFB800"/>
<stop offset="0.986758" stop-color="#E31717" stop-opacity="0"/>
</radialGradient>
<linearGradient id="paint18_linear_461_2" x1="574.21" y1="413.589" x2="637.485" y2="513.006" gradientUnits="userSpaceOnUse">
<stop stop-color="#E31717"/>
<stop offset="1" stop-color="#FFB800"/>
</linearGradient>
<radialGradient id="paint19_radial_461_2" cx="0" cy="0" r="1" gradientUnits="userSpaceOnUse" gradientTransform="translate(638.959 464.617) rotate(-137.097) scale(64.3965 82.1093)">
<stop stop-color="#E31717" stop-opacity="0"/>
<stop offset="1" stop-color="#FFB800"/>
</radialGradient>
<radialGradient id="paint20_radial_461_2" cx="0" cy="0" r="1" gradientUnits="userSpaceOnUse" gradientTransform="translate(655.599 486.413) rotate(-138.137) scale(75.7566 99.7083)">
<stop stop-color="#FFB800"/>
<stop offset="0.986758" stop-color="#E31717" stop-opacity="0"/>
</radialGradient>
<linearGradient id="paint21_linear_461_2" x1="408.501" y1="541.176" x2="482.685" y2="680.751" gradientUnits="userSpaceOnUse">
<stop stop-color="#E31717"/>
<stop offset="1" stop-color="#FFB800"/>
</linearGradient>
<radialGradient id="paint22_radial_461_2" cx="0" cy="0" r="1" gradientUnits="userSpaceOnUse" gradientTransform="translate(507.858 606.566) rotate(-142.185) scale(91.6254 113.476)">
<stop stop-color="#E31717" stop-opacity="0"/>
<stop offset="1" stop-color="#FFB800"/>
</radialGradient>
<radialGradient id="paint23_radial_461_2" cx="0" cy="0" r="1" gradientUnits="userSpaceOnUse" gradientTransform="translate(533.392 634.496) rotate(-143.193) scale(108.131 137.362)">
<stop stop-color="#FFB800"/>
<stop offset="0.986758" stop-color="#E31717" stop-opacity="0"/>
</radialGradient>
</defs>
</svg>
