<svg width="1440" height="1255" viewBox="0 0 1440 1255" fill="none" xmlns="http://www.w3.org/2000/svg">
<g opacity="0.47">
<path d="M1134.24 715.312C816.953 859.163 637.41 968.906 504.798 1254C466.661 1217.27 431.222 1180.41 397.177 1143.9C390.385 1136.56 383.071 1129.57 376.889 1122.01C362.696 1104.78 316.548 1054.28 301.833 1094.18C277.54 1160.07 219.375 1257.67 119.416 1225.25C18.151 1192.42 72.31 854.573 17.6285 790.309C10.5757 782.047 -46.0214 737.981 -56.2089 731.554C-66.3963 725.128 -77.977 719.337 -92.5181 714.747C-106.101 707.755 -120.12 700.905 -134.574 694.338C-163.395 681.202 -193.783 668.915 -226 657.616C-65.3514 540.882 106.268 444.557 281.11 343.077C396.132 276.341 533.184 201.414 567.491 82.3496C715.949 187.149 851.521 294.702 947.997 435.023C1011.82 527.888 1049.35 632.404 1134.24 715.312Z" stroke="#F5F1EE" stroke-width="0.5" stroke-miterlimit="10"/>
<path d="M665.621 150.569C604.932 264.337 481.202 326.624 358.517 391.523C184.285 483.681 12.5783 580.359 -142.236 693.774" stroke="#F5F1EE" stroke-width="0.5" stroke-miterlimit="10"/>
<path d="M749.385 216.878C669.452 322.172 546.942 378.596 420.338 440.177C366.876 466.165 314.981 492.859 264.479 520.683C254.378 526.262 244.365 531.841 234.352 537.49C224.338 543.14 214.499 548.86 204.747 554.651C194.995 560.441 -44.8895 725.62 -56.2089 731.623" stroke="#F5F1EE" stroke-width="0.5" stroke-miterlimit="10"/>
<path d="M819.914 281.498C729.619 377.682 597.705 429.446 471.798 487.848C437.143 503.949 403.272 520.474 370.272 537.493C359.213 543.143 348.329 548.934 337.445 554.725C288.337 573.156 255.249 601.545 227.908 633.183C218.766 643.776 210.32 654.651 202.222 665.738C154.332 716.867 139.443 805.212 23.8978 799.703" stroke="#F5F1EE" stroke-width="0.5" stroke-miterlimit="10"/>
<path d="M878.688 344.345C776.726 432.266 642.634 478.239 514.899 535.158C486.426 547.799 458.65 560.864 431.571 574.423C422.515 578.943 413.547 583.462 404.665 588.052C364.09 608.108 331.437 633.249 304.532 661.991C295.564 671.595 287.205 681.623 279.368 692.145C257.513 727.102 239.924 763.047 224.513 799.558C219.375 811.775 146.67 972.716 49.2358 984.722" stroke="#F5F1EE" stroke-width="0.5" stroke-miterlimit="10"/>
<path d="M927.1 405.364C781.079 498.864 623.565 563.199 471.624 636.713C458.998 642.857 446.286 649.072 433.573 655.569C422.602 663.196 412.241 671.246 402.314 679.579C392.388 687.913 383.071 696.599 374.19 705.497C276.756 819.759 126.208 1043.69 73.2678 1167.84" stroke="#F5F1EE" stroke-width="0.5" stroke-miterlimit="10"/>
<path d="M967.153 464.115C808.42 549.353 651.777 610.227 503.754 684.872C491.389 691.086 479.112 697.371 466.835 703.868C454.906 713.049 443.5 722.512 432.441 732.257C421.47 742.003 410.847 751.96 400.747 762.2C281.806 858.172 169.831 1162.54 161.646 1230.9" stroke="#F5F1EE" stroke-width="0.5" stroke-miterlimit="10"/>
<path d="M999.892 519.486C823.309 603.312 659.352 664.821 508.717 748.858C497.136 755.355 485.643 761.923 474.149 768.702C461.262 775.623 449.246 782.897 438.014 790.665C426.782 798.433 415.549 805.989 406.494 815.17C266.046 958.739 207.708 1188.96 207.708 1219.25" stroke="#F5F1EE" stroke-width="0.5" stroke-miterlimit="10"/>
<path d="M1028.89 571.672C821.655 664.819 639.064 732.19 478.851 843.345C466.487 851.89 454.296 860.717 442.281 869.827C430.265 878.09 419.032 886.846 408.496 896.098C345.891 964.033 331.524 1000.54 301.31 1086.13" stroke="#F5F1EE" stroke-width="0.5" stroke-miterlimit="10"/>
<path d="M1058.23 622.092C802.412 733.882 596.486 814.671 428.349 987.9C418.423 998.07 408.671 1008.59 399.093 1019.47C372.013 1041.71 348.068 1094.39 348.068 1094.39" stroke="#F5F1EE" stroke-width="0.5" stroke-miterlimit="10"/>
<path d="M1093.15 669.194C783.517 806.196 580.552 903.792 414.853 1167.84" stroke="#F5F1EE" stroke-width="0.5" stroke-miterlimit="10"/>
<path d="M542.414 1170.81C501.403 1129.85 463.875 1088.96 428.001 1048.64C420.861 1040.59 368.879 978.935 330.654 994.471C282.329 1014.17 281.632 1043.76 244.713 1120.17C206.314 1199.83 124.118 1154.64 120.984 1116.85C106.617 945.673 102.611 870.181 89.8116 756.272C76.9249 641.586 -64.2195 613.762 -79.5442 606.488C-94.7819 599.144 -110.542 592.082 -126.825 585.161" stroke="#F5F1EE" stroke-width="0.5" stroke-miterlimit="10"/>
<path d="M583.599 1097.43C527.176 1038.96 478.241 980.77 431.135 924.063C423.299 914.6 415.375 905.278 407.365 896.451C317.332 821.382 277.714 1064.24 193.95 1067C117.152 1069.54 207.882 767.076 119.329 616.092C113.582 606.276 103.308 598.649 93.5557 590.881C81.2785 582.547 68.5659 574.426 55.418 566.376C29.2092 550.345 1.34602 534.95 -28.4327 520.19" stroke="#F5F1EE" stroke-width="0.5" stroke-miterlimit="10"/>
<path d="M628.093 1033.24C571.235 971.168 522.474 909.093 474.846 848.502C468.054 839.815 444.544 803.588 419.293 800.268C363.045 792.924 295.651 929.361 244.8 911.918C190.467 893.274 238.531 587.492 201.787 553.1C191.773 545.05 181.499 537.141 171.05 529.372C139.53 505.997 105.398 483.54 68.0435 462.143" stroke="#F5F1EE" stroke-width="0.5" stroke-miterlimit="10"/>
<path d="M675.722 977.45C604.671 895.884 547.812 814.39 489.3 735.79C482.769 727.033 476.239 718.347 469.708 709.732C432.877 667.431 358.604 795.181 303.313 762.767C251.592 732.471 346.501 562.702 336.575 552.674C287.031 502.464 230.433 454.654 161.646 410.164" stroke="#F5F1EE" stroke-width="0.5" stroke-miterlimit="10"/>
<path d="M726.92 929.009C652.125 838.828 596.225 748.647 535.97 662.279C516.64 634.596 424.779 657.618 403.795 630.854C380.111 600.628 427.043 520.758 399.093 492.016C355.556 447.102 305.49 404.306 244.8 364.124" stroke="#F5F1EE" stroke-width="0.5" stroke-miterlimit="10"/>
<path d="M781.863 886.915C707.59 793.345 655.26 700.127 596.834 611.429C583.077 590.596 532.139 585.865 517.337 565.597C496.091 536.36 510.284 491.941 485.033 464.117C439.494 413.977 385.684 366.309 317.158 322.242" stroke="#F5F1EE" stroke-width="0.5" stroke-miterlimit="10"/>
<path d="M841.333 849.839C683.994 639.958 627.484 445.825 384.029 281.353" stroke="#F5F1EE" stroke-width="0.5" stroke-miterlimit="10"/>
<path d="M906.725 816.652C751.649 601.475 689.479 408.402 444.457 239.409" stroke="#F5F1EE" stroke-width="0.5" stroke-miterlimit="10"/>
<path d="M977.602 785.222C818.607 565.101 745.728 368.991 497.397 193.996" stroke="#F5F1EE" stroke-width="0.5" stroke-miterlimit="10"/>
<path d="M1054.31 751.819C974.206 669.689 943.556 565.454 885.131 473.72C801.106 341.661 676.505 240.675 540.672 142.797" stroke="#F5F1EE" stroke-width="0.5" stroke-miterlimit="10"/>
<path d="M1766.3 600.7C1605.65 716.94 1435.34 812.135 1261.02 913.05C1150.61 976.96 1001.81 1056.05 975.338 1173.49C816.866 1195.53 660.919 1222.65 504.886 1254C637.497 968.91 817.04 859.167 1134.33 715.315C1353.84 706.77 1559.94 659.385 1766.39 600.7H1766.3Z" stroke="#F5F1EE" stroke-width="0.5" stroke-miterlimit="10"/>
<path d="M1182.05 712.912C868.935 860.365 680.424 958.88 549.206 1244.89" stroke="#F5F1EE" stroke-width="0.5" stroke-miterlimit="10"/>
<path d="M1231.33 709.243C923.007 860.439 722.915 949.843 593.177 1236.13" stroke="#F5F1EE" stroke-width="0.5" stroke-miterlimit="10"/>
<path d="M1282.27 704.229C979.43 859.098 764.797 941.723 636.713 1227.73" stroke="#F5F1EE" stroke-width="0.5" stroke-miterlimit="10"/>
<path d="M1335.12 697.733C1038.64 855.992 806.243 934.944 679.988 1219.68" stroke="#F5F1EE" stroke-width="0.5" stroke-miterlimit="10"/>
<path d="M1389.8 689.678C1100.29 851.184 847.254 929.431 722.828 1212.05" stroke="#F5F1EE" stroke-width="0.5" stroke-miterlimit="10"/>
<path d="M1446.66 679.864C1164.89 844.054 888.004 925.337 765.493 1204.71" stroke="#F5F1EE" stroke-width="0.5" stroke-miterlimit="10"/>
<path d="M1505.7 668.209C1232.38 834.588 928.667 922.651 807.811 1197.78" stroke="#F5F1EE" stroke-width="0.5" stroke-miterlimit="10"/>
<path d="M1566.99 654.582C1302.29 822.798 969.417 921.029 849.866 1191.22" stroke="#F5F1EE" stroke-width="0.5" stroke-miterlimit="10"/>
<path d="M1630.82 638.838C1401.38 791.8 970.375 927.954 891.835 1185.01" stroke="#F5F1EE" stroke-width="0.5" stroke-miterlimit="10"/>
<path d="M1697.17 620.969C1540.61 729.793 1373.78 818.421 1206.6 914.958C1088.18 983.317 967.066 1056.9 933.543 1179.14" stroke="#F5F1EE" stroke-width="0.5" stroke-miterlimit="10"/>
<path d="M1002.5 1113.04C847.864 1127.66 695.313 1146.52 542.501 1170.81" stroke="#F5F1EE" stroke-width="0.5" stroke-miterlimit="10"/>
<path d="M1045.08 1061.71C890.181 1067.85 737.282 1079.93 583.599 1097.44" stroke="#F5F1EE" stroke-width="0.5" stroke-miterlimit="10"/>
<path d="M1097.94 1016.37C940.683 1017.08 784.736 1022.51 628.006 1033.25" stroke="#F5F1EE" stroke-width="0.5" stroke-miterlimit="10"/>
<path d="M1158.36 974.491C997.454 974.491 836.631 972.514 675.809 977.457" stroke="#F5F1EE" stroke-width="0.5" stroke-miterlimit="10"/>
<path d="M1224.97 933.814C1058.75 935.721 893.054 930.707 726.833 929.012" stroke="#F5F1EE" stroke-width="0.5" stroke-miterlimit="10"/>
<path d="M1297.24 892.219C1124.58 898.999 954.266 894.267 781.863 886.923" stroke="#F5F1EE" stroke-width="0.5" stroke-miterlimit="10"/>
<path d="M1376.22 846.523C1194.93 860.93 1022.71 861.848 841.333 849.843" stroke="#F5F1EE" stroke-width="0.5" stroke-miterlimit="10"/>
<path d="M1464.25 795.187C1275.48 818.632 1097.41 831.556 906.725 816.655" stroke="#F5F1EE" stroke-width="0.5" stroke-miterlimit="10"/>
<path d="M1559.16 738.057C1363.16 772.025 1178.48 794.764 977.602 785.23" stroke="#F5F1EE" stroke-width="0.5" stroke-miterlimit="10"/>
<path d="M1658.42 673.864C1456.24 720.191 1265.2 752.817 1054.31 751.828" stroke="#F5F1EE" stroke-width="0.5" stroke-miterlimit="10"/>
<path d="M1767 600.135C1560.46 658.961 1354.1 706.559 1134.24 715.245C1049.35 632.408 1011.82 527.821 947.997 434.957C851.608 294.636 715.949 187.082 567.491 82.283C726.05 60.0379 882.083 32.6375 1038.12 1C1074.6 36.0272 1108.73 71.2664 1141.47 106.364C1148 113.356 1154.53 120.347 1161.06 127.338C1181.7 151.772 1199.11 172.958 1216.53 172.958C1312.31 172.958 1312.31 52.9053 1381.97 38.7814C1486.45 3.47172 1469.04 187.082 1479.49 256.431C1480.44 268.93 1481.32 281.218 1482.27 293.506C1484.97 330.299 1487.32 367.162 1495.16 398.941C1503.87 434.25 1521.28 469.56 1554.89 496.113C1566.21 505.293 1579.27 513.485 1594.42 520.688C1607.31 528.103 1620.54 535.377 1634.21 542.439C1674.96 563.625 1719.02 582.904 1767 600.065V600.135Z" stroke="#F5F1EE" stroke-width="0.5" stroke-miterlimit="10"/>
<path d="M1124.14 87.9297C970.375 114.271 821.655 134.75 665.621 150.569" stroke="#F5F1EE" stroke-width="0.5" stroke-miterlimit="10"/>
<path d="M1196.33 164.486C1180.83 167.947 1165.85 170.772 1150.96 173.384C1016.96 196.265 887.656 207.847 749.385 216.886" stroke="#F5F1EE" stroke-width="0.5" stroke-miterlimit="10"/>
<path d="M1261.28 161.942C1268.34 210.246 1229.68 240.754 1215.05 243.72C1200.51 246.686 1185.97 249.369 1171.51 251.841C1055.71 271.755 941.641 278.323 819.914 281.43" stroke="#F5F1EE" stroke-width="0.5" stroke-miterlimit="10"/>
<path d="M1355.84 50.8545C1315.36 87.9297 1312.31 201.274 1247 267.162C1238.91 276.484 1229.94 285.24 1219.92 293.079C1199.9 308.757 1175.43 321.044 1144.35 328.036C1129.8 330.296 1115.44 331.99 1100.98 333.473C1028.97 341.1 956.095 344.419 878.6 344.349" stroke="#F5F1EE" stroke-width="0.5" stroke-miterlimit="10"/>
<path d="M1417.93 35.7441C1376.22 50.8567 1355.84 180.09 1293.06 265.257C1286.62 276.345 1279.92 286.867 1272.86 296.965C1237.51 347.176 1190.23 387.005 1109.26 398.516C1099.42 399.434 1089.49 400.282 1079.56 401.058C1029.85 404.801 979.343 406.284 927.1 405.437" stroke="#F5F1EE" stroke-width="0.5" stroke-miterlimit="10"/>
<path d="M1467.99 119.217C1418.01 87.862 1356.98 240.188 1323.1 299.65C1286.45 364.055 1193.02 443.784 1108.47 460.309C1096.8 461.227 1085.14 462.004 1073.38 462.569C1038.2 464.405 1002.85 465.04 967.153 464.122" stroke="#F5F1EE" stroke-width="0.5" stroke-miterlimit="10"/>
<path d="M1492.98 392.867C1460.33 363.701 1470.43 323.024 1417.93 328.745C1335.99 337.643 1350.18 503.245 1123.62 515.957C1113.26 516.522 1102.99 517.44 1092.71 518.005C1061.8 519.699 1030.8 520.264 999.892 519.417" stroke="#F5F1EE" stroke-width="0.5" stroke-miterlimit="10"/>
<path d="M1544.01 486.577C1399.47 441.38 1303.69 547.309 1164.81 567.224C1153.05 568.283 1141.3 569.201 1129.72 569.907C1094.89 572.097 1060.93 572.803 1028.97 571.673" stroke="#F5F1EE" stroke-width="0.5" stroke-miterlimit="10"/>
<path d="M1612.45 530.929C1597.82 534.954 1583.1 538.909 1568.3 542.863C1554.8 546.041 1541.31 549.219 1527.73 552.115C1416.88 568.569 1312.39 603.879 1198.85 614.33C1187.1 615.531 1175.34 616.59 1163.59 617.579C1128.32 620.403 1093.23 622.028 1058.32 622.169" stroke="#F5F1EE" stroke-width="0.5" stroke-miterlimit="10"/>
<path d="M1683.5 566.452C1627.16 582.271 1569.96 597.454 1511.96 611.013C1500.38 613.767 1488.8 616.38 1477.14 618.993C1425.5 624.996 1373.26 646.181 1308.04 650.63C1296.2 652.396 1284.36 654.02 1272.43 655.574C1213.05 663.271 1153.23 668.074 1093.15 669.274" stroke="#F5F1EE" stroke-width="0.5" stroke-miterlimit="10"/>
<path d="M1182.05 712.842C1092.36 631.347 1049.96 529.655 985.961 435.661C889.571 294.139 757.047 184.114 609.285 76.7021" stroke="#F5F1EE" stroke-width="0.5" stroke-miterlimit="10"/>
<path d="M1231.42 709.171C1136.07 630.289 1088.53 530.504 1024.19 435.733C927.448 293.293 797.971 180.797 651.167 70.7715" stroke="#F5F1EE" stroke-width="0.5" stroke-miterlimit="10"/>
<path d="M1282.44 704.158C1231.85 666.235 1193.28 622.875 1159.23 577.043C1152.44 567.862 1145.74 558.611 1139.21 549.289C1132.68 539.968 1126.32 530.505 1119.96 521.042C1100.9 492.653 1082.44 463.769 1062.76 435.168C964.889 292.164 838.895 177.266 693.049 64.5576" stroke="#F5F1EE" stroke-width="0.5" stroke-miterlimit="10"/>
<path d="M1335.29 697.59C1311.18 681.277 1289.49 663.764 1269.64 645.403C1263.02 639.259 1256.67 633.044 1250.4 626.689C1207.82 575.489 1155.58 518.994 1121.88 462.498C1115.26 452.894 1108.65 443.29 1101.94 433.685C1002.42 290.54 879.906 173.1 735.105 57.7783" stroke="#F5F1EE" stroke-width="0.5" stroke-miterlimit="10"/>
<path d="M1390.15 689.467C1377.61 680.499 1365.6 671.389 1353.93 662.138C1260.15 589.682 1199.2 497.877 1127.37 416.523C1119.62 406.495 1111.95 396.467 1104.2 386.298C1019.14 275.002 928.232 158.974 777.509 50.7852" stroke="#F5F1EE" stroke-width="0.5" stroke-miterlimit="10"/>
<path d="M1447.01 679.65C1433.86 671.175 1421.06 662.489 1408.52 653.52C1294.98 568.495 1281.05 498.582 1182.05 405.364C1172.91 396.748 1145.39 394.842 1098.81 343.713C1006.77 242.727 927.013 133.832 820.088 43.5098" stroke="#F5F1EE" stroke-width="0.5" stroke-miterlimit="10"/>
<path d="M1506.04 667.929C1491.94 660.726 1478.27 653.17 1464.86 645.26C1451.45 637.351 1438.39 629.018 1425.85 620.12C1338.43 533.187 1315.36 437.216 1261.28 384.322C1219.23 343.15 1185.44 384.322 1134.16 335.735C1124.06 326.202 1116.83 314.761 1108.21 304.239C1030.63 209.397 954.005 114.414 863.014 35.7441" stroke="#F5F1EE" stroke-width="0.5" stroke-miterlimit="10"/>
<path d="M1567.52 654.226C1552.8 646.67 1538.52 638.902 1524.5 630.781C1510.57 622.66 1496.9 614.256 1483.75 605.499C1382.05 540.247 1399.47 420.194 1355.93 328.388C1321.1 271.893 1242.74 328.388 1181.79 321.326C1173.08 314.264 1164.37 300.141 1154.45 293.29C1146.44 284.534 1138.6 275.353 1130.85 266.243C1060.49 184.042 989.618 101.629 906.376 27.6201" stroke="#F5F1EE" stroke-width="0.5" stroke-miterlimit="10"/>
<path d="M1631.34 638.481C1615.76 631.348 1600.6 623.933 1585.8 616.235C1571 608.538 1556.72 600.558 1542.7 592.296C1436.3 531.139 1435.25 417.512 1430.2 334.958C1429.42 321.753 1424.02 198.31 1384.23 183.974C1302.29 154.526 1270.69 262.927 1230.63 278.675C1202.51 289.691 1150.79 231.077 1140.78 219.637C1080.96 151.206 1019.74 82.7762 949.913 19.0068" stroke="#F5F1EE" stroke-width="0.5" stroke-miterlimit="10"/>
<path d="M1697.86 620.471C1652.67 602.18 1611.05 581.701 1572.39 559.314C1559.51 551.829 1546.88 544.06 1534.69 535.092C1463.99 474.642 1455.02 348.939 1450.84 279.449C1446.66 208.83 1462.25 103.395 1381.97 102.477C1307.95 101.63 1286.45 240.538 1231.24 235.1C1219.31 233.9 1156.8 180.017 1149.83 172.249C1100.81 117.731 1050.22 63.0008 993.797 10.248" stroke="#F5F1EE" stroke-width="0.5" stroke-miterlimit="10"/>
</g>
<g opacity="0.68">
<path d="M845 1073L891.5 1020L932.5 1018L887 1070L845 1073Z" fill="url(#paint0_linear_461_3)"/>
<path d="M845 1073L891.5 1020L932.5 1018L887 1070L845 1073Z" fill="url(#paint1_radial_461_3)"/>
<path d="M845 1073L891.5 1020L932.5 1018L887 1070L845 1073Z" fill="url(#paint2_radial_461_3)"/>
</g>
<g opacity="0.68">
<path d="M865.5 851L925.5 816.5L963.5 820.5L907.5 853.5L865.5 851Z" fill="url(#paint3_linear_461_3)"/>
<path d="M865.5 851L925.5 816.5L963.5 820.5L907.5 853.5L865.5 851Z" fill="url(#paint4_radial_461_3)"/>
<path d="M865.5 851L925.5 816.5L963.5 820.5L907.5 853.5L865.5 851Z" fill="url(#paint5_radial_461_3)"/>
</g>
<g opacity="0.68">
<path d="M1078 518.5L1043 464.5L1081 461.5L1117.5 516L1078 518.5Z" fill="url(#paint6_linear_461_3)"/>
<path d="M1078 518.5L1043 464.5L1081 461.5L1117.5 516L1078 518.5Z" fill="url(#paint7_radial_461_3)"/>
<path d="M1078 518.5L1043 464.5L1081 461.5L1117.5 516L1078 518.5Z" fill="url(#paint8_radial_461_3)"/>
</g>
<path d="M606.5 765.5L572.5 715L642 681.5L673.5 731L606.5 765.5Z" fill="url(#paint9_linear_461_3)"/>
<path d="M606.5 765.5L572.5 715L642 681.5L673.5 731L606.5 765.5Z" fill="url(#paint10_radial_461_3)"/>
<path d="M606.5 765.5L572.5 715L642 681.5L673.5 731L606.5 765.5Z" fill="url(#paint11_radial_461_3)"/>
<g opacity="0.52">
<path d="M1063.5 187.5L991 109L1035 102.5L1106.5 180.5L1063.5 187.5Z" fill="url(#paint12_linear_461_3)"/>
<path d="M1063.5 187.5L991 109L1035 102.5L1106.5 180.5L1063.5 187.5Z" fill="url(#paint13_radial_461_3)"/>
<path d="M1063.5 187.5L991 109L1035 102.5L1106.5 180.5L1063.5 187.5Z" fill="url(#paint14_radial_461_3)"/>
</g>
<g opacity="0.68">
<path d="M916 344L855.5 280.5L895 279L954.5 344H916Z" fill="url(#paint15_linear_461_3)"/>
<path d="M916 344L855.5 280.5L895 279L954.5 344H916Z" fill="url(#paint16_radial_461_3)"/>
<path d="M916 344L855.5 280.5L895 279L954.5 344H916Z" fill="url(#paint17_radial_461_3)"/>
</g>
<g opacity="0.68">
<path d="M607.5 495L566.5 445L635.5 411.5L677.5 464.5L607.5 495Z" fill="url(#paint18_linear_461_3)"/>
<path d="M607.5 495L566.5 445L635.5 411.5L677.5 464.5L607.5 495Z" fill="url(#paint19_radial_461_3)"/>
<path d="M607.5 495L566.5 445L635.5 411.5L677.5 464.5L607.5 495Z" fill="url(#paint20_radial_461_3)"/>
</g>
<g opacity="0.68">
<path d="M567 591.5L453.5 645.5C453.5 645.5 415 644 403.5 631C392 618 398.5 591.5 398.5 591.5L506 538.5C506 538.5 509.5 563.5 527 574.5C544.5 585.5 567 591.5 567 591.5Z" fill="url(#paint21_linear_461_3)"/>
<path d="M567 591.5L453.5 645.5C453.5 645.5 415 644 403.5 631C392 618 398.5 591.5 398.5 591.5L506 538.5C506 538.5 509.5 563.5 527 574.5C544.5 585.5 567 591.5 567 591.5Z" fill="url(#paint22_radial_461_3)"/>
<path d="M567 591.5L453.5 645.5C453.5 645.5 415 644 403.5 631C392 618 398.5 591.5 398.5 591.5L506 538.5C506 538.5 509.5 563.5 527 574.5C544.5 585.5 567 591.5 567 591.5Z" fill="url(#paint23_radial_461_3)"/>
</g>
<defs>
<linearGradient id="paint0_linear_461_3" x1="851.078" y1="1019.38" x2="889.222" y2="1091.1" gradientUnits="userSpaceOnUse">
<stop stop-color="#E31717"/>
<stop offset="1" stop-color="#FFB800"/>
</linearGradient>
<radialGradient id="paint1_radial_461_3" cx="0" cy="0" r="1" gradientUnits="userSpaceOnUse" gradientTransform="translate(902.118 1052.99) rotate(-142.169) scale(47.0794 58.3156)">
<stop stop-color="#E31717" stop-opacity="0"/>
<stop offset="1" stop-color="#FFB800"/>
</radialGradient>
<radialGradient id="paint2_radial_461_3" cx="0" cy="0" r="1" gradientUnits="userSpaceOnUse" gradientTransform="translate(915.235 1067.34) rotate(-143.176) scale(55.56 70.5912)">
<stop stop-color="#FFB800"/>
<stop offset="0.986758" stop-color="#E31717" stop-opacity="0"/>
</radialGradient>
<linearGradient id="paint3_linear_461_3" x1="872.307" y1="817.425" x2="890.249" y2="873.593" gradientUnits="userSpaceOnUse">
<stop stop-color="#E31717"/>
<stop offset="1" stop-color="#FFB800"/>
</linearGradient>
<radialGradient id="paint4_radial_461_3" cx="0" cy="0" r="1" gradientUnits="userSpaceOnUse" gradientTransform="translate(929.472 840.037) rotate(-154.994) scale(45.954 45.0142)">
<stop stop-color="#E31717" stop-opacity="0"/>
<stop offset="1" stop-color="#FFB800"/>
</radialGradient>
<radialGradient id="paint5_radial_461_3" cx="0" cy="0" r="1" gradientUnits="userSpaceOnUse" gradientTransform="translate(944.164 849.695) rotate(-155.785) scale(54.6174 54.1052)">
<stop stop-color="#FFB800"/>
<stop offset="0.986758" stop-color="#E31717" stop-opacity="0"/>
</radialGradient>
<linearGradient id="paint6_linear_461_3" x1="1048.17" y1="462.926" x2="1091.67" y2="530.124" gradientUnits="userSpaceOnUse">
<stop stop-color="#E31717"/>
<stop offset="1" stop-color="#FFB800"/>
</linearGradient>
<radialGradient id="paint7_radial_461_3" cx="0" cy="0" r="1" gradientUnits="userSpaceOnUse" gradientTransform="translate(1091.63 497.76) rotate(-136.613) scale(43.5647 55.6085)">
<stop stop-color="#E31717" stop-opacity="0"/>
<stop offset="1" stop-color="#FFB800"/>
</radialGradient>
<radialGradient id="paint8_radial_461_3" cx="0" cy="0" r="1" gradientUnits="userSpaceOnUse" gradientTransform="translate(1102.8 512.638) rotate(-137.655) scale(51.2342 67.5481)">
<stop stop-color="#FFB800"/>
<stop offset="0.986758" stop-color="#E31717" stop-opacity="0"/>
</radialGradient>
<linearGradient id="paint9_linear_461_3" x1="579.516" y1="683.601" x2="645.652" y2="777.589" gradientUnits="userSpaceOnUse">
<stop stop-color="#E31717"/>
<stop offset="1" stop-color="#FFB800"/>
</linearGradient>
<radialGradient id="paint10_radial_461_3" cx="0" cy="0" r="1" gradientUnits="userSpaceOnUse" gradientTransform="translate(638.431 734.935) rotate(-134.223) scale(61.5397 78.6485)">
<stop stop-color="#E31717" stop-opacity="0"/>
<stop offset="1" stop-color="#FFB800"/>
</radialGradient>
<radialGradient id="paint11_radial_461_3" cx="0" cy="0" r="1" gradientUnits="userSpaceOnUse" gradientTransform="translate(653.572 756.862) rotate(-135.268) scale(72.2638 95.6802)">
<stop stop-color="#FFB800"/>
<stop offset="0.986758" stop-color="#E31717" stop-opacity="0"/>
</radialGradient>
<linearGradient id="paint12_linear_461_3" x1="999.023" y1="104.626" x2="1062.83" y2="207.097" gradientUnits="userSpaceOnUse">
<stop stop-color="#E31717"/>
<stop offset="1" stop-color="#FFB800"/>
</linearGradient>
<radialGradient id="paint13_radial_461_3" cx="0" cy="0" r="1" gradientUnits="userSpaceOnUse" gradientTransform="translate(1066.4 156.571) rotate(-137.723) scale(66.3374 84.4283)">
<stop stop-color="#E31717" stop-opacity="0"/>
<stop offset="1" stop-color="#FFB800"/>
</radialGradient>
<radialGradient id="paint14_radial_461_3" cx="0" cy="0" r="1" gradientUnits="userSpaceOnUse" gradientTransform="translate(1083.71 178.759) rotate(-138.761) scale(78.0707 102.484)">
<stop stop-color="#FFB800"/>
<stop offset="0.986758" stop-color="#E31717" stop-opacity="0"/>
</radialGradient>
<linearGradient id="paint15_linear_461_3" x1="862.377" y1="280.626" x2="908.538" y2="363.723" gradientUnits="userSpaceOnUse">
<stop stop-color="#E31717"/>
<stop offset="1" stop-color="#FFB800"/>
</linearGradient>
<radialGradient id="paint16_radial_461_3" cx="0" cy="0" r="1" gradientUnits="userSpaceOnUse" gradientTransform="translate(920.125 320.349) rotate(-140.953) scale(54.1717 67.7675)">
<stop stop-color="#E31717" stop-opacity="0"/>
<stop offset="1" stop-color="#FFB800"/>
</radialGradient>
<radialGradient id="paint17_radial_461_3" cx="0" cy="0" r="1" gradientUnits="userSpaceOnUse" gradientTransform="translate(934.966 337.316) rotate(-141.971) scale(63.8821 82.0941)">
<stop stop-color="#FFB800"/>
<stop offset="0.986758" stop-color="#E31717" stop-opacity="0"/>
</radialGradient>
<linearGradient id="paint18_linear_461_3" x1="574.21" y1="413.589" x2="637.485" y2="513.006" gradientUnits="userSpaceOnUse">
<stop stop-color="#E31717"/>
<stop offset="1" stop-color="#FFB800"/>
</linearGradient>
<radialGradient id="paint19_radial_461_3" cx="0" cy="0" r="1" gradientUnits="userSpaceOnUse" gradientTransform="translate(638.959 464.617) rotate(-137.097) scale(64.3965 82.1093)">
<stop stop-color="#E31717" stop-opacity="0"/>
<stop offset="1" stop-color="#FFB800"/>
</radialGradient>
<radialGradient id="paint20_radial_461_3" cx="0" cy="0" r="1" gradientUnits="userSpaceOnUse" gradientTransform="translate(655.599 486.413) rotate(-138.137) scale(75.7566 99.7083)">
<stop stop-color="#FFB800"/>
<stop offset="0.986758" stop-color="#E31717" stop-opacity="0"/>
</radialGradient>
<linearGradient id="paint21_linear_461_3" x1="408.501" y1="541.176" x2="482.685" y2="680.751" gradientUnits="userSpaceOnUse">
<stop stop-color="#E31717"/>
<stop offset="1" stop-color="#FFB800"/>
</linearGradient>
<radialGradient id="paint22_radial_461_3" cx="0" cy="0" r="1" gradientUnits="userSpaceOnUse" gradientTransform="translate(507.858 606.566) rotate(-142.185) scale(91.6254 113.476)">
<stop stop-color="#E31717" stop-opacity="0"/>
<stop offset="1" stop-color="#FFB800"/>
</radialGradient>
<radialGradient id="paint23_radial_461_3" cx="0" cy="0" r="1" gradientUnits="userSpaceOnUse" gradientTransform="translate(533.392 634.496) rotate(-143.193) scale(108.131 137.362)">
<stop stop-color="#FFB800"/>
<stop offset="0.986758" stop-color="#E31717" stop-opacity="0"/>
</radialGradient>
</defs>
</svg>
