<svg width="2071" height="1344" viewBox="0 0 2071 1344" fill="none" xmlns="http://www.w3.org/2000/svg">
<g opacity="0.47">
<path d="M1409.24 752.312C1091.95 896.163 912.41 1005.91 779.798 1291C741.661 1254.27 706.222 1217.41 672.177 1180.9C665.385 1173.56 658.071 1166.57 651.889 1159.01C637.696 1141.78 591.548 1091.28 576.833 1131.18C552.54 1197.07 494.375 1294.67 394.416 1262.25C293.151 1229.42 347.31 891.573 292.629 827.309C285.576 819.047 228.979 774.981 218.791 768.554C208.604 762.128 197.023 756.337 182.482 751.747C168.899 744.755 154.88 737.905 140.426 731.338C111.605 718.202 81.2168 705.915 49 694.616C209.649 577.882 381.268 481.557 556.11 380.077C671.132 313.341 808.184 238.414 842.491 119.35C990.949 224.149 1126.52 331.702 1223 472.023C1286.82 564.888 1324.35 669.404 1409.24 752.312Z" stroke="#F5F1EE" stroke-width="0.5" stroke-miterlimit="10"/>
<path d="M940.621 187.569C879.932 301.337 756.202 363.624 633.517 428.523C459.285 520.681 287.578 617.359 132.764 730.774" stroke="#F5F1EE" stroke-width="0.5" stroke-miterlimit="10"/>
<path d="M1024.38 253.878C944.452 359.172 821.941 415.596 695.338 477.177C641.876 503.165 589.981 529.859 539.479 557.683C529.378 563.262 519.365 568.841 509.352 574.49C499.338 580.14 489.499 585.86 479.747 591.651C469.995 597.441 230.11 762.62 218.791 768.623" stroke="#F5F1EE" stroke-width="0.5" stroke-miterlimit="10"/>
<path d="M1094.91 318.498C1004.62 414.682 872.705 466.446 746.798 524.848C712.143 540.949 678.272 557.474 645.272 574.493C634.214 580.143 623.33 585.934 612.446 591.725C563.337 610.156 530.249 638.545 502.909 670.183C493.766 680.776 485.32 691.651 477.222 702.738C429.332 753.867 414.443 842.212 298.898 836.703" stroke="#F5F1EE" stroke-width="0.5" stroke-miterlimit="10"/>
<path d="M1153.69 381.345C1051.73 469.266 917.634 515.239 789.899 572.158C761.426 584.799 733.65 597.864 706.571 611.423C697.515 615.943 688.547 620.462 679.665 625.052C639.09 645.108 606.437 670.249 579.532 698.991C570.564 708.595 562.205 718.623 554.368 729.145C532.513 764.102 514.924 800.047 499.513 836.558C494.375 848.775 421.67 1009.72 324.236 1021.72" stroke="#F5F1EE" stroke-width="0.5" stroke-miterlimit="10"/>
<path d="M1202.1 442.364C1056.08 535.864 898.565 600.199 746.624 673.713C733.998 679.857 721.286 686.072 708.573 692.569C697.602 700.196 687.24 708.246 677.314 716.579C667.388 724.913 658.071 733.599 649.19 742.497C551.756 856.759 401.208 1080.69 348.268 1204.84" stroke="#F5F1EE" stroke-width="0.5" stroke-miterlimit="10"/>
<path d="M1242.15 501.115C1083.42 586.353 926.777 647.227 778.754 721.872C766.39 728.086 754.112 734.371 741.835 740.868C729.906 750.049 718.5 759.512 707.442 769.257C696.47 779.003 685.848 788.96 675.747 799.2C556.806 895.172 444.831 1199.54 436.646 1267.9" stroke="#F5F1EE" stroke-width="0.5" stroke-miterlimit="10"/>
<path d="M1274.89 556.486C1098.31 640.312 934.352 701.821 783.717 785.858C772.136 792.355 760.643 798.923 749.149 805.702C736.262 812.623 724.246 819.897 713.014 827.665C701.782 835.433 690.549 842.989 681.494 852.17C541.046 995.739 482.708 1225.96 482.708 1256.25" stroke="#F5F1EE" stroke-width="0.5" stroke-miterlimit="10"/>
<path d="M1303.89 608.672C1096.66 701.819 914.064 769.19 753.851 880.345C741.487 888.89 729.297 897.717 717.281 906.827C705.265 915.09 694.032 923.846 683.497 933.098C620.892 1001.03 606.525 1037.54 576.311 1123.13" stroke="#F5F1EE" stroke-width="0.5" stroke-miterlimit="10"/>
<path d="M1333.23 659.092C1077.41 770.882 871.486 851.671 703.349 1024.9C693.423 1035.07 683.671 1045.59 674.093 1056.47C647.013 1078.71 623.068 1131.39 623.068 1131.39" stroke="#F5F1EE" stroke-width="0.5" stroke-miterlimit="10"/>
<path d="M1368.15 706.194C1058.52 843.196 855.552 940.792 689.853 1204.84" stroke="#F5F1EE" stroke-width="0.5" stroke-miterlimit="10"/>
<path d="M817.414 1207.81C776.403 1166.85 738.874 1125.96 703.001 1085.64C695.861 1077.59 643.878 1015.94 605.654 1031.47C557.328 1051.17 556.632 1080.76 519.713 1157.17C481.314 1236.83 399.118 1191.64 395.983 1153.85C381.616 982.673 377.611 907.181 364.811 793.272C351.925 678.586 210.78 650.762 195.456 643.488C180.218 636.144 164.458 629.082 148.175 622.161" stroke="#F5F1EE" stroke-width="0.5" stroke-miterlimit="10"/>
<path d="M858.599 1134.43C802.176 1075.96 753.242 1017.77 706.135 961.063C698.299 951.6 690.375 942.278 682.365 933.451C592.332 858.382 552.714 1101.24 468.95 1104C392.152 1106.54 482.882 804.076 394.329 653.092C388.582 643.276 378.308 635.649 368.556 627.881C356.279 619.547 343.566 611.426 330.418 603.376C304.209 587.345 276.346 571.95 246.567 557.19" stroke="#F5F1EE" stroke-width="0.5" stroke-miterlimit="10"/>
<path d="M903.093 1070.24C846.235 1008.17 797.474 946.093 749.846 885.502C743.054 876.815 719.544 840.588 694.293 837.268C638.045 829.924 570.651 966.361 519.8 948.918C465.467 930.274 513.531 624.492 476.787 590.1C466.773 582.05 456.499 574.141 446.05 566.372C414.53 542.997 380.398 520.54 343.043 499.143" stroke="#F5F1EE" stroke-width="0.5" stroke-miterlimit="10"/>
<path d="M950.722 1014.45C879.671 932.884 822.813 851.39 764.3 772.79C757.769 764.033 751.239 755.347 744.709 746.732C707.877 704.431 633.604 832.181 578.313 799.767C526.592 769.471 621.501 599.702 611.575 589.674C562.031 539.464 505.434 491.654 436.646 447.164" stroke="#F5F1EE" stroke-width="0.5" stroke-miterlimit="10"/>
<path d="M1001.92 966.009C927.125 875.828 871.224 785.647 810.97 699.279C791.64 671.596 699.779 694.618 678.794 667.854C655.111 637.628 702.043 557.758 674.093 529.016C630.556 484.102 580.49 441.306 519.8 401.124" stroke="#F5F1EE" stroke-width="0.5" stroke-miterlimit="10"/>
<path d="M1056.86 923.915C982.59 830.345 930.26 737.127 871.834 648.429C858.077 627.596 807.139 622.865 792.337 602.597C771.091 573.36 785.284 528.941 760.033 501.117C714.494 450.977 660.684 403.309 592.158 359.242" stroke="#F5F1EE" stroke-width="0.5" stroke-miterlimit="10"/>
<path d="M1116.33 886.839C958.994 676.958 902.484 482.825 659.029 318.353" stroke="#F5F1EE" stroke-width="0.5" stroke-miterlimit="10"/>
<path d="M1181.72 853.652C1026.65 638.475 964.479 445.402 719.458 276.409" stroke="#F5F1EE" stroke-width="0.5" stroke-miterlimit="10"/>
<path d="M1252.6 822.222C1093.61 602.101 1020.73 405.991 772.397 230.996" stroke="#F5F1EE" stroke-width="0.5" stroke-miterlimit="10"/>
<path d="M1329.31 788.819C1249.21 706.689 1218.56 602.454 1160.13 510.72C1076.11 378.661 951.505 277.675 815.672 179.797" stroke="#F5F1EE" stroke-width="0.5" stroke-miterlimit="10"/>
<path d="M2041.3 637.7C1880.65 753.94 1710.34 849.135 1536.02 950.05C1425.61 1013.96 1276.81 1093.05 1250.34 1210.49C1091.87 1232.53 935.919 1259.65 779.886 1291C912.497 1005.91 1092.04 896.167 1409.33 752.315C1628.84 743.77 1834.94 696.385 2041.39 637.7H2041.3Z" stroke="#F5F1EE" stroke-width="0.5" stroke-miterlimit="10"/>
<path d="M1457.05 749.912C1143.94 897.365 955.424 995.88 824.206 1281.89" stroke="#F5F1EE" stroke-width="0.5" stroke-miterlimit="10"/>
<path d="M1506.33 746.243C1198.01 897.439 997.915 986.843 868.177 1273.13" stroke="#F5F1EE" stroke-width="0.5" stroke-miterlimit="10"/>
<path d="M1557.27 741.229C1254.43 896.098 1039.8 978.723 911.713 1264.73" stroke="#F5F1EE" stroke-width="0.5" stroke-miterlimit="10"/>
<path d="M1610.12 734.733C1313.64 892.992 1081.24 971.944 954.988 1256.68" stroke="#F5F1EE" stroke-width="0.5" stroke-miterlimit="10"/>
<path d="M1664.8 726.678C1375.29 888.184 1122.25 966.431 997.828 1249.05" stroke="#F5F1EE" stroke-width="0.5" stroke-miterlimit="10"/>
<path d="M1721.66 716.864C1439.89 881.054 1163 962.337 1040.49 1241.71" stroke="#F5F1EE" stroke-width="0.5" stroke-miterlimit="10"/>
<path d="M1780.7 705.209C1507.38 871.588 1203.67 959.651 1082.81 1234.78" stroke="#F5F1EE" stroke-width="0.5" stroke-miterlimit="10"/>
<path d="M1841.99 691.582C1577.29 859.798 1244.42 958.029 1124.87 1228.22" stroke="#F5F1EE" stroke-width="0.5" stroke-miterlimit="10"/>
<path d="M1905.82 675.838C1676.38 828.8 1245.37 964.954 1166.84 1222.01" stroke="#F5F1EE" stroke-width="0.5" stroke-miterlimit="10"/>
<path d="M1972.17 657.969C1815.61 766.793 1648.78 855.421 1481.6 951.958C1363.18 1020.32 1242.07 1093.9 1208.54 1216.14" stroke="#F5F1EE" stroke-width="0.5" stroke-miterlimit="10"/>
<path d="M1277.5 1150.04C1122.86 1164.66 970.313 1183.52 817.501 1207.81" stroke="#F5F1EE" stroke-width="0.5" stroke-miterlimit="10"/>
<path d="M1320.08 1098.71C1165.18 1104.85 1012.28 1116.93 858.599 1134.44" stroke="#F5F1EE" stroke-width="0.5" stroke-miterlimit="10"/>
<path d="M1372.94 1053.37C1215.68 1054.08 1059.74 1059.51 903.006 1070.25" stroke="#F5F1EE" stroke-width="0.5" stroke-miterlimit="10"/>
<path d="M1433.36 1011.49C1272.45 1011.49 1111.63 1009.51 950.809 1014.46" stroke="#F5F1EE" stroke-width="0.5" stroke-miterlimit="10"/>
<path d="M1499.97 970.814C1333.75 972.721 1168.05 967.707 1001.83 966.012" stroke="#F5F1EE" stroke-width="0.5" stroke-miterlimit="10"/>
<path d="M1572.24 929.219C1399.58 935.999 1229.27 931.267 1056.86 923.923" stroke="#F5F1EE" stroke-width="0.5" stroke-miterlimit="10"/>
<path d="M1651.22 883.523C1469.93 897.93 1297.71 898.848 1116.33 886.843" stroke="#F5F1EE" stroke-width="0.5" stroke-miterlimit="10"/>
<path d="M1739.25 832.187C1550.48 855.632 1372.41 868.556 1181.72 853.655" stroke="#F5F1EE" stroke-width="0.5" stroke-miterlimit="10"/>
<path d="M1834.16 775.057C1638.16 809.025 1453.48 831.764 1252.6 822.23" stroke="#F5F1EE" stroke-width="0.5" stroke-miterlimit="10"/>
<path d="M1933.42 710.864C1731.24 757.191 1540.2 789.817 1329.31 788.828" stroke="#F5F1EE" stroke-width="0.5" stroke-miterlimit="10"/>
<path d="M2042 637.135C1835.46 695.961 1629.1 743.559 1409.24 752.245C1324.35 669.408 1286.82 564.821 1223 471.957C1126.61 331.636 990.949 224.082 842.491 119.283C1001.05 97.0379 1157.08 69.6375 1313.12 38C1349.6 73.0272 1383.73 108.266 1416.47 143.364C1423 150.356 1429.53 157.347 1436.06 164.338C1456.7 188.772 1474.11 209.958 1491.53 209.958C1587.31 209.958 1587.31 89.9053 1656.97 75.7814C1761.45 40.4717 1744.04 224.082 1754.49 293.431C1755.44 305.93 1756.32 318.218 1757.27 330.506C1759.97 367.299 1762.32 404.162 1770.16 435.941C1778.87 471.25 1796.28 506.56 1829.89 533.113C1841.21 542.293 1854.27 550.485 1869.42 557.688C1882.31 565.103 1895.54 572.377 1909.21 579.439C1949.96 600.625 1994.02 619.904 2042 637.065V637.135Z" stroke="#F5F1EE" stroke-width="0.5" stroke-miterlimit="10"/>
<path d="M1399.14 124.93C1245.37 151.271 1096.66 171.75 940.622 187.569" stroke="#F5F1EE" stroke-width="0.5" stroke-miterlimit="10"/>
<path d="M1471.33 201.486C1455.83 204.947 1440.85 207.772 1425.96 210.384C1291.96 233.265 1162.66 244.847 1024.38 253.886" stroke="#F5F1EE" stroke-width="0.5" stroke-miterlimit="10"/>
<path d="M1536.28 198.942C1543.34 247.246 1504.68 277.754 1490.05 280.72C1475.51 283.686 1460.97 286.369 1446.51 288.841C1330.71 308.755 1216.64 315.323 1094.91 318.43" stroke="#F5F1EE" stroke-width="0.5" stroke-miterlimit="10"/>
<path d="M1630.84 87.8545C1590.36 124.93 1587.31 238.274 1522 304.162C1513.91 313.484 1504.94 322.24 1494.92 330.079C1474.9 345.757 1450.43 358.044 1419.35 365.036C1404.8 367.296 1390.44 368.99 1375.98 370.473C1303.97 378.1 1231.1 381.419 1153.6 381.349" stroke="#F5F1EE" stroke-width="0.5" stroke-miterlimit="10"/>
<path d="M1692.93 72.7441C1651.22 87.8567 1630.84 217.09 1568.06 302.257C1561.62 313.345 1554.92 323.867 1547.86 333.965C1512.51 384.176 1465.23 424.005 1384.26 435.516C1374.42 436.434 1364.49 437.282 1354.56 438.058C1304.84 441.801 1254.34 443.284 1202.1 442.437" stroke="#F5F1EE" stroke-width="0.5" stroke-miterlimit="10"/>
<path d="M1742.99 156.217C1693.01 124.862 1631.98 277.188 1598.1 336.65C1561.45 401.055 1468.02 480.784 1383.47 497.309C1371.8 498.227 1360.14 499.004 1348.38 499.569C1313.2 501.405 1277.85 502.04 1242.15 501.122" stroke="#F5F1EE" stroke-width="0.5" stroke-miterlimit="10"/>
<path d="M1767.98 429.867C1735.33 400.701 1745.43 360.024 1692.93 365.745C1610.99 374.643 1625.18 540.245 1398.62 552.957C1388.26 553.522 1377.99 554.44 1367.71 555.005C1336.8 556.699 1305.8 557.264 1274.89 556.417" stroke="#F5F1EE" stroke-width="0.5" stroke-miterlimit="10"/>
<path d="M1819.01 523.577C1674.47 478.38 1578.69 584.309 1439.81 604.224C1428.05 605.283 1416.3 606.201 1404.72 606.907C1369.89 609.097 1335.93 609.803 1303.97 608.673" stroke="#F5F1EE" stroke-width="0.5" stroke-miterlimit="10"/>
<path d="M1887.45 567.929C1872.82 571.954 1858.1 575.909 1843.3 579.863C1829.8 583.041 1816.31 586.219 1802.73 589.115C1691.88 605.569 1587.4 640.879 1473.85 651.33C1462.1 652.531 1450.34 653.59 1438.59 654.579C1403.32 657.403 1368.23 659.028 1333.32 659.169" stroke="#F5F1EE" stroke-width="0.5" stroke-miterlimit="10"/>
<path d="M1958.5 603.452C1902.16 619.271 1844.95 634.454 1786.96 648.013C1775.38 650.767 1763.8 653.38 1752.14 655.993C1700.5 661.996 1648.26 683.181 1583.04 687.63C1571.2 689.396 1559.36 691.02 1547.43 692.574C1488.05 700.271 1428.23 705.074 1368.15 706.274" stroke="#F5F1EE" stroke-width="0.5" stroke-miterlimit="10"/>
<path d="M1457.05 749.842C1367.36 668.347 1324.96 566.655 1260.96 472.661C1164.57 331.139 1032.05 221.114 884.286 113.702" stroke="#F5F1EE" stroke-width="0.5" stroke-miterlimit="10"/>
<path d="M1506.42 746.171C1411.07 667.289 1363.53 567.504 1299.19 472.733C1202.45 330.293 1072.97 217.797 926.167 107.771" stroke="#F5F1EE" stroke-width="0.5" stroke-miterlimit="10"/>
<path d="M1557.44 741.158C1506.85 703.235 1468.28 659.875 1434.23 614.043C1427.44 604.862 1420.74 595.611 1414.21 586.289C1407.68 576.968 1401.32 567.505 1394.97 558.042C1375.9 529.653 1357.44 500.769 1337.76 472.168C1239.89 329.164 1113.9 214.266 968.049 101.558" stroke="#F5F1EE" stroke-width="0.5" stroke-miterlimit="10"/>
<path d="M1610.29 734.59C1586.18 718.277 1564.49 700.764 1544.64 682.403C1538.02 676.259 1531.67 670.044 1525.4 663.689C1482.82 612.489 1430.58 555.994 1396.88 499.498C1390.26 489.894 1383.65 480.29 1376.94 470.685C1277.42 327.54 1154.91 210.1 1010.1 94.7783" stroke="#F5F1EE" stroke-width="0.5" stroke-miterlimit="10"/>
<path d="M1665.15 726.467C1652.61 717.499 1640.6 708.389 1628.93 699.138C1535.15 626.682 1474.2 534.877 1402.37 453.523C1394.62 443.495 1386.95 433.467 1379.2 423.298C1294.14 312.002 1203.23 195.974 1052.51 87.7852" stroke="#F5F1EE" stroke-width="0.5" stroke-miterlimit="10"/>
<path d="M1722.01 716.65C1708.86 708.175 1696.06 699.489 1683.52 690.52C1569.98 605.495 1556.05 535.582 1457.05 442.364C1447.91 433.748 1420.39 431.842 1373.81 380.713C1281.77 279.727 1202.01 170.832 1095.09 80.5098" stroke="#F5F1EE" stroke-width="0.5" stroke-miterlimit="10"/>
<path d="M1781.04 704.929C1766.94 697.726 1753.27 690.17 1739.86 682.26C1726.45 674.351 1713.39 666.018 1700.85 657.12C1613.43 570.187 1590.36 474.216 1536.28 421.322C1494.23 380.15 1460.44 421.322 1409.16 372.735C1399.06 363.202 1391.83 351.761 1383.21 341.239C1305.63 246.397 1229.01 151.414 1138.01 72.7441" stroke="#F5F1EE" stroke-width="0.5" stroke-miterlimit="10"/>
<path d="M1842.52 691.226C1827.8 683.67 1813.52 675.902 1799.5 667.781C1785.57 659.66 1771.9 651.256 1758.75 642.499C1657.05 577.247 1674.47 457.194 1630.93 365.388C1596.1 308.893 1517.74 365.388 1456.79 358.326C1448.08 351.264 1439.37 337.141 1429.45 330.29C1421.44 321.534 1413.6 312.353 1405.85 303.243C1335.49 221.042 1264.62 138.629 1181.38 64.6201" stroke="#F5F1EE" stroke-width="0.5" stroke-miterlimit="10"/>
<path d="M1906.34 675.481C1890.76 668.348 1875.6 660.933 1860.8 653.235C1846 645.538 1831.72 637.558 1817.7 629.296C1711.3 568.139 1710.25 454.512 1705.2 371.958C1704.42 358.753 1699.02 235.31 1659.23 220.974C1577.29 191.526 1545.69 299.927 1505.63 315.675C1477.51 326.691 1425.79 268.077 1415.78 256.637C1355.96 188.206 1294.74 119.776 1224.91 56.0068" stroke="#F5F1EE" stroke-width="0.5" stroke-miterlimit="10"/>
<path d="M1972.86 657.471C1927.67 639.18 1886.05 618.701 1847.39 596.314C1834.51 588.829 1821.88 581.06 1809.69 572.092C1738.99 511.642 1730.02 385.939 1725.84 316.449C1721.66 245.83 1737.25 140.395 1656.97 139.477C1582.95 138.63 1561.45 277.538 1506.24 272.1C1494.31 270.9 1431.8 217.017 1424.83 209.249C1375.81 154.731 1325.22 100.001 1268.8 47.248" stroke="#F5F1EE" stroke-width="0.5" stroke-miterlimit="10"/>
</g>
<g opacity="0.68">
<path d="M1120 1110L1166.5 1057L1207.5 1055L1162 1107L1120 1110Z" fill="url(#paint0_linear_924_2)"/>
<path d="M1120 1110L1166.5 1057L1207.5 1055L1162 1107L1120 1110Z" fill="url(#paint1_radial_924_2)"/>
<path d="M1120 1110L1166.5 1057L1207.5 1055L1162 1107L1120 1110Z" fill="url(#paint2_radial_924_2)"/>
</g>
<path d="M1220.16 1063L1226.38 1048.22H1228.38L1234.64 1063H1232.08L1230.32 1058.8H1224.52L1222.7 1063H1220.16ZM1225.36 1056.6H1229.38L1227.38 1051.36L1225.36 1056.6ZM1235.36 1059.62H1237.62C1237.7 1060.52 1238.5 1061.18 1239.52 1061.18C1240.58 1061.18 1241.42 1060.48 1241.42 1059.62C1241.42 1058.52 1240.58 1058.04 1238.74 1058.04V1056.46C1240.3 1056.46 1241.02 1056 1241.02 1055.04C1241.02 1054.34 1240.36 1053.76 1239.52 1053.76C1238.7 1053.76 1238.06 1054.28 1237.94 1055.04H1235.78C1235.9 1053.12 1237.5 1051.7 1239.52 1051.7C1241.6 1051.7 1243.24 1053.18 1243.24 1055.04C1243.24 1056.02 1242.62 1056.86 1241.66 1057.12V1057.18C1242.88 1057.5 1243.7 1058.48 1243.7 1059.62C1243.7 1061.64 1241.84 1063.26 1239.54 1063.26C1237.3 1063.26 1235.48 1061.68 1235.36 1059.62ZM1253.79 1059.62H1256.25C1255.53 1061.76 1253.37 1063.26 1250.95 1063.26C1247.61 1063.26 1245.03 1060.74 1245.03 1057.5C1245.03 1054.26 1247.57 1051.7 1250.81 1051.7C1254.05 1051.7 1256.55 1054.24 1256.55 1057.54C1256.55 1057.9 1256.51 1058.12 1256.45 1058.44H1247.43C1247.69 1060.06 1249.09 1061.18 1250.89 1061.18C1252.19 1061.18 1253.13 1060.64 1253.79 1059.62ZM1247.39 1056.42H1254.29C1253.89 1054.76 1252.63 1053.78 1250.83 1053.78C1249.07 1053.78 1247.81 1054.76 1247.39 1056.42ZM1258.29 1066.74V1051.96H1260.41V1053.46C1261.29 1052.32 1262.63 1051.7 1264.27 1051.7C1267.49 1051.7 1269.87 1054.14 1269.87 1057.46C1269.87 1060.78 1267.47 1063.26 1264.25 1063.26C1262.73 1063.26 1261.57 1062.76 1260.55 1061.68V1066.74H1258.29ZM1264.03 1061.18C1266.05 1061.18 1267.59 1059.58 1267.59 1057.52C1267.59 1055.36 1266.05 1053.78 1263.97 1053.78C1261.95 1053.78 1260.41 1055.4 1260.41 1057.52C1260.41 1059.58 1261.99 1061.18 1264.03 1061.18ZM1273.27 1054.2L1273.31 1054.22C1273.93 1052.88 1275.79 1051.86 1277.55 1051.86C1280.65 1051.86 1283.01 1054.3 1283.01 1057.54C1283.01 1060.74 1280.43 1063.26 1277.17 1063.26C1273.53 1063.26 1271.39 1060.84 1271.39 1056.76V1055.1C1271.39 1050.3 1273.37 1047.86 1277.49 1047.52L1282.27 1047.14V1049.18L1277.61 1049.58C1274.69 1049.84 1273.29 1051.32 1273.27 1054.2ZM1277.13 1061.18C1279.15 1061.18 1280.73 1059.58 1280.73 1057.52C1280.73 1055.48 1279.15 1053.9 1277.11 1053.9C1275.15 1053.9 1273.59 1055.5 1273.59 1057.5C1273.59 1059.58 1275.13 1061.18 1277.13 1061.18ZM1284.33 1057.52C1284.33 1054.16 1286.73 1051.7 1290.01 1051.7C1291.71 1051.7 1292.89 1052.28 1293.85 1053.6V1051.96H1295.97V1063H1293.85V1061.4C1292.77 1062.72 1291.67 1063.26 1290.01 1063.26C1286.71 1063.26 1284.33 1060.84 1284.33 1057.52ZM1286.61 1057.54C1286.61 1059.64 1288.15 1061.18 1290.25 1061.18C1292.33 1061.18 1293.81 1059.64 1293.81 1057.5C1293.81 1055.34 1292.27 1053.78 1290.15 1053.78C1288.13 1053.78 1286.61 1055.4 1286.61 1057.54ZM1300.07 1048.08H1301.91C1301.91 1049.12 1302.35 1049.58 1303.29 1049.58C1304.23 1049.58 1304.67 1049.12 1304.67 1048.08H1306.51C1306.21 1049.8 1305.13 1050.68 1303.29 1050.68C1301.45 1050.68 1300.37 1049.8 1300.07 1048.08ZM1298.25 1063V1051.96H1300.51V1059.8L1306.03 1051.96H1308.33V1063H1306.07V1055.18L1300.55 1063H1298.25ZM1309.71 1065.6V1060.94H1311.33L1315.15 1051.96H1317.27L1321.09 1060.94H1322.71V1065.6H1321.09L1320.55 1063H1311.89L1311.33 1065.6H1309.71ZM1313.69 1060.94H1318.73L1316.21 1054.96L1313.69 1060.94ZM1323.01 1063L1327.39 1057.4L1323.17 1051.96H1325.85L1329.61 1057.06V1051.96H1331.89V1057.06L1335.65 1051.96H1338.33L1334.11 1057.4L1338.49 1063H1335.71L1331.89 1057.82V1063H1329.61V1057.82L1325.79 1063H1323.01ZM1339.21 1057.52C1339.21 1054.16 1341.61 1051.7 1344.89 1051.7C1346.59 1051.7 1347.77 1052.28 1348.73 1053.6V1051.96H1350.85V1063H1348.73V1061.4C1347.65 1062.72 1346.55 1063.26 1344.89 1063.26C1341.59 1063.26 1339.21 1060.84 1339.21 1057.52ZM1341.49 1057.54C1341.49 1059.64 1343.03 1061.18 1345.13 1061.18C1347.21 1061.18 1348.69 1059.64 1348.69 1057.5C1348.69 1055.34 1347.15 1053.78 1345.03 1053.78C1343.01 1053.78 1341.49 1055.4 1341.49 1057.54ZM1353.13 1063V1051.96H1355.39V1056.38H1360.83V1051.96H1363.11V1063H1360.83V1058.44H1355.39V1063H1353.13Z" fill="#F5F1EE"/>
<g opacity="0.68">
<path d="M1140.5 888L1200.5 853.5L1238.5 857.5L1182.5 890.5L1140.5 888Z" fill="url(#paint3_linear_924_2)"/>
<path d="M1140.5 888L1200.5 853.5L1238.5 857.5L1182.5 890.5L1140.5 888Z" fill="url(#paint4_radial_924_2)"/>
<path d="M1140.5 888L1200.5 853.5L1238.5 857.5L1182.5 890.5L1140.5 888Z" fill="url(#paint5_radial_924_2)"/>
</g>
<path d="M1255.46 865V850.22H1263.04V852.42H1257.78V865H1255.46ZM1264.32 868.74V853.96H1266.44V855.46C1267.32 854.32 1268.66 853.7 1270.3 853.7C1273.52 853.7 1275.9 856.14 1275.9 859.46C1275.9 862.78 1273.5 865.26 1270.28 865.26C1268.76 865.26 1267.6 864.76 1266.58 863.68V868.74H1264.32ZM1270.06 863.18C1272.08 863.18 1273.62 861.58 1273.62 859.52C1273.62 857.36 1272.08 855.78 1270 855.78C1267.98 855.78 1266.44 857.4 1266.44 859.52C1266.44 861.58 1268.02 863.18 1270.06 863.18ZM1278.8 868.74L1280.78 864.18L1276.66 853.96H1279.22L1282.02 861.66L1285.04 853.96H1287.6L1281.24 868.74H1278.8ZM1288.25 861.62H1290.51C1290.59 862.52 1291.39 863.18 1292.41 863.18C1293.47 863.18 1294.31 862.48 1294.31 861.62C1294.31 860.52 1293.47 860.04 1291.63 860.04V858.46C1293.19 858.46 1293.91 858 1293.91 857.04C1293.91 856.34 1293.25 855.76 1292.41 855.76C1291.59 855.76 1290.95 856.28 1290.83 857.04H1288.67C1288.79 855.12 1290.39 853.7 1292.41 853.7C1294.49 853.7 1296.13 855.18 1296.13 857.04C1296.13 858.02 1295.51 858.86 1294.55 859.12V859.18C1295.77 859.5 1296.59 860.48 1296.59 861.62C1296.59 863.64 1294.73 865.26 1292.43 865.26C1290.19 865.26 1288.37 863.68 1288.25 861.62ZM1298.4 865V853.96H1300.66V861.8L1306.18 853.96H1308.48V865H1306.22V857.18L1300.7 865H1298.4ZM1316.42 858.9V856.02H1314.42C1313.3 856.02 1312.64 856.56 1312.64 857.46C1312.64 858.36 1313.3 858.9 1314.42 858.9H1316.42ZM1309.9 865L1312.82 860.76C1311.32 860.28 1310.36 859 1310.36 857.46C1310.36 855.44 1311.96 853.96 1314.16 853.96H1318.68V865H1316.42V860.96H1315.18L1312.6 865H1309.9Z" fill="#F5F1EE"/>
<g opacity="0.68">
<path d="M1353 555.5L1318 501.5L1356 498.5L1392.5 553L1353 555.5Z" fill="url(#paint6_linear_924_2)"/>
<path d="M1353 555.5L1318 501.5L1356 498.5L1392.5 553L1353 555.5Z" fill="url(#paint7_radial_924_2)"/>
<path d="M1353 555.5L1318 501.5L1356 498.5L1392.5 553L1353 555.5Z" fill="url(#paint8_radial_924_2)"/>
</g>
<path d="M1374.46 504V489.22H1376.76V500.24L1383.98 489.22H1386.32V504H1384.02V492.98L1376.8 504H1374.46ZM1397.27 500.5H1399.83C1398.79 502.96 1396.89 504.26 1394.37 504.26C1391.07 504.26 1388.45 501.7 1388.45 498.48C1388.45 495.24 1391.01 492.7 1394.29 492.7C1396.87 492.7 1398.95 494.14 1399.83 496.54H1397.27C1396.63 495.38 1395.63 494.78 1394.29 494.78C1392.23 494.78 1390.73 496.34 1390.73 498.48C1390.73 500.58 1392.29 502.18 1394.35 502.18C1395.59 502.18 1396.45 501.68 1397.27 500.5ZM1401.56 504V492.96H1411.5V504H1409.24V495.02H1403.82V504H1401.56ZM1413.31 498.52C1413.31 495.16 1415.71 492.7 1418.99 492.7C1420.69 492.7 1421.87 493.28 1422.83 494.6V492.96H1424.95V504H1422.83V502.4C1421.75 503.72 1420.65 504.26 1418.99 504.26C1415.69 504.26 1413.31 501.84 1413.31 498.52ZM1415.59 498.54C1415.59 500.64 1417.13 502.18 1419.23 502.18C1421.31 502.18 1422.79 500.64 1422.79 498.5C1422.79 496.34 1421.25 494.78 1419.13 494.78C1417.11 494.78 1415.59 496.4 1415.59 498.54ZM1427.23 504V492.96H1429.49V497.38H1434.93V492.96H1437.21V504H1434.93V499.44H1429.49V504H1427.23ZM1439.49 504V492.96H1441.75V500.8L1447.27 492.96H1449.57V504H1447.31V496.18L1441.79 504H1439.49ZM1457.51 497.9V495.02H1455.51C1454.39 495.02 1453.73 495.56 1453.73 496.46C1453.73 497.36 1454.39 497.9 1455.51 497.9H1457.51ZM1450.99 504L1453.91 499.76C1452.41 499.28 1451.45 498 1451.45 496.46C1451.45 494.44 1453.05 492.96 1455.25 492.96H1459.77V504H1457.51V499.96H1456.27L1453.69 504H1450.99Z" fill="#F5F1EE"/>
<g opacity="0.68">
<path d="M881.5 802.5L847.5 752L917 718.5L948.5 768L881.5 802.5Z" fill="url(#paint9_linear_924_2)"/>
<path d="M881.5 802.5L847.5 752L917 718.5L948.5 768L881.5 802.5Z" fill="url(#paint10_radial_924_2)"/>
<path d="M881.5 802.5L847.5 752L917 718.5L948.5 768L881.5 802.5Z" fill="url(#paint11_radial_924_2)"/>
</g>
<path d="M933.46 722V707.22H935.78V713.74L941.08 707.22H943.92L937.78 714.5L943.92 722H941.06L935.78 715.38V722H933.46ZM944.789 716.52C944.789 713.16 947.189 710.7 950.469 710.7C952.169 710.7 953.349 711.28 954.309 712.6V710.96H956.429L956.429 722H954.309V720.4C953.229 721.72 952.129 722.26 950.469 722.26C947.169 722.26 944.789 719.84 944.789 716.52ZM947.069 716.54C947.069 718.64 948.609 720.18 950.709 720.18C952.789 720.18 954.269 718.64 954.269 716.5C954.269 714.34 952.729 712.78 950.609 712.78C948.589 712.78 947.069 714.4 947.069 716.54ZM958.126 718.62H960.386C960.466 719.52 961.266 720.18 962.286 720.18C963.346 720.18 964.186 719.48 964.186 718.62C964.186 717.52 963.346 717.04 961.506 717.04V715.46C963.066 715.46 963.786 715 963.786 714.04C963.786 713.34 963.126 712.76 962.286 712.76C961.466 712.76 960.826 713.28 960.706 714.04H958.546C958.666 712.12 960.266 710.7 962.286 710.7C964.366 710.7 966.006 712.18 966.006 714.04C966.006 715.02 965.386 715.86 964.426 716.12V716.18C965.646 716.5 966.466 717.48 966.466 718.62C966.466 720.64 964.606 722.26 962.306 722.26C960.066 722.26 958.246 720.68 958.126 718.62ZM967.797 716.52C967.797 713.16 970.197 710.7 973.477 710.7C975.177 710.7 976.357 711.28 977.317 712.6V710.96H979.437V722H977.317V720.4C976.237 721.72 975.137 722.26 973.477 722.26C970.177 722.26 967.797 719.84 967.797 716.52ZM970.077 716.54C970.077 718.64 971.617 720.18 973.717 720.18C975.797 720.18 977.277 718.64 977.277 716.5C977.277 714.34 975.737 712.78 973.617 712.78C971.597 712.78 970.077 714.4 970.077 716.54ZM980.674 722L984.554 716.32L981.014 710.96H983.574L985.894 714.6L988.174 710.96H990.754L987.214 716.32L991.114 722H988.414L985.894 718L983.354 722H980.674ZM1000.7 718.5H1003.26C1002.22 720.96 1000.32 722.26 997.799 722.26C994.499 722.26 991.879 719.7 991.879 716.48C991.879 713.24 994.439 710.7 997.719 710.7C1000.3 710.7 1002.38 712.14 1003.26 714.54H1000.7C1000.06 713.38 999.059 712.78 997.719 712.78C995.659 712.78 994.159 714.34 994.159 716.48C994.159 718.58 995.719 720.18 997.779 720.18C999.019 720.18 999.879 719.68 1000.7 718.5ZM1006.86 722V713.02H1004.18V710.96H1011.8V713.02H1009.12V722H1006.86ZM1012.78 716.52C1012.78 713.16 1015.18 710.7 1018.46 710.7C1020.16 710.7 1021.34 711.28 1022.3 712.6V710.96H1024.42V722H1022.3V720.4C1021.22 721.72 1020.12 722.26 1018.46 722.26C1015.16 722.26 1012.78 719.84 1012.78 716.52ZM1015.06 716.54C1015.06 718.64 1016.6 720.18 1018.7 720.18C1020.78 720.18 1022.26 718.64 1022.26 716.5C1022.26 714.34 1020.72 712.78 1018.6 712.78C1016.58 712.78 1015.06 714.4 1015.06 716.54ZM1026.69 722V710.96H1028.95V715.38H1034.39V710.96H1036.67V722H1034.39V717.44H1028.95V722H1026.69Z" fill="#F5F1EE"/>
<g opacity="0.52">
<path d="M1338.5 224.5L1266 146L1310 139.5L1381.5 217.5L1338.5 224.5Z" fill="url(#paint12_linear_924_2)"/>
<path d="M1338.5 224.5L1266 146L1310 139.5L1381.5 217.5L1338.5 224.5Z" fill="url(#paint13_radial_924_2)"/>
<path d="M1338.5 224.5L1266 146L1310 139.5L1381.5 217.5L1338.5 224.5Z" fill="url(#paint14_radial_924_2)"/>
</g>
<path d="M1328.46 145V130.22H1330.78V136.74L1336.08 130.22H1338.92L1332.78 137.5L1338.92 145H1336.06L1330.78 138.38V145H1328.46ZM1340.27 145V133.96H1342.53V141.8L1348.05 133.96H1350.35V145H1348.09V137.18L1342.57 145H1340.27ZM1352.63 145V133.96H1362.57V145H1360.31V136.02H1354.89V145H1352.63ZM1364.86 148.74V133.96H1366.98V135.46C1367.86 134.32 1369.2 133.7 1370.84 133.7C1374.06 133.7 1376.44 136.14 1376.44 139.46C1376.44 142.78 1374.04 145.26 1370.82 145.26C1369.3 145.26 1368.14 144.76 1367.12 143.68V148.74H1364.86ZM1370.6 143.18C1372.62 143.18 1374.16 141.58 1374.16 139.52C1374.16 137.36 1372.62 135.78 1370.54 135.78C1368.52 135.78 1366.98 137.4 1366.98 139.52C1366.98 141.58 1368.56 143.18 1370.6 143.18Z" fill="#F5F1EE"/>
<g opacity="0.68">
<path d="M1191 381L1130.5 317.5L1170 316L1229.5 381H1191Z" fill="url(#paint15_linear_924_2)"/>
<path d="M1191 381L1130.5 317.5L1170 316L1229.5 381H1191Z" fill="url(#paint16_radial_924_2)"/>
<path d="M1191 381L1130.5 317.5L1170 316L1229.5 381H1191Z" fill="url(#paint17_radial_924_2)"/>
</g>
<path d="M1187.78 317.8H1189.12C1190.16 317.8 1190.78 317.74 1191.38 317.6C1192.3 317.32 1192.86 316.52 1192.86 315.44C1192.86 313.34 1190.84 313.16 1189.24 313.16H1187.78V317.8ZM1185.46 320V305.22H1194.28V307.42H1187.78V310.96H1189.32C1191.4 310.96 1192.4 311.14 1193.28 311.66C1194.48 312.36 1195.2 313.8 1195.2 315.46C1195.2 317.14 1194.52 318.5 1193.32 319.24C1192.4 319.8 1191.32 320 1189.26 320H1185.46ZM1196.53 314.52C1196.53 311.16 1198.93 308.7 1202.21 308.7C1203.91 308.7 1205.09 309.28 1206.05 310.6V308.96H1208.17V320H1206.05V318.4C1204.97 319.72 1203.87 320.26 1202.21 320.26C1198.91 320.26 1196.53 317.84 1196.53 314.52ZM1198.81 314.54C1198.81 316.64 1200.35 318.18 1202.45 318.18C1204.53 318.18 1206.01 316.64 1206.01 314.5C1206.01 312.34 1204.47 310.78 1202.35 310.78C1200.33 310.78 1198.81 312.4 1198.81 314.54ZM1209.39 320L1214.03 308.96H1215.97L1220.61 320H1218.21L1215.01 312L1211.79 320H1209.39ZM1221.84 320V308.96H1224.1V316.8L1229.62 308.96H1231.92V320H1229.66V312.18L1224.14 320H1221.84Z" fill="#F5F1EE"/>
<g opacity="0.68">
<path d="M882.5 532L841.5 482L910.5 448.5L952.5 501.5L882.5 532Z" fill="url(#paint18_linear_924_2)"/>
<path d="M882.5 532L841.5 482L910.5 448.5L952.5 501.5L882.5 532Z" fill="url(#paint19_radial_924_2)"/>
<path d="M882.5 532L841.5 482L910.5 448.5L952.5 501.5L882.5 532Z" fill="url(#paint20_radial_924_2)"/>
</g>
<path d="M924.46 454V439.22H928.26C930.22 439.22 931.28 439.42 932.16 439.98C933.34 440.72 934 442.08 934 443.76C934 445.42 933.3 446.84 932.14 447.56C931.3 448.08 930.3 448.26 928.3 448.26H926.78V454H924.46ZM926.78 446.06H928.22C929.24 446.06 929.94 445.98 930.42 445.76C931.2 445.48 931.66 444.74 931.66 443.78C931.66 441.48 929.82 441.42 928.08 441.42H926.78V446.06ZM935.242 448.5C935.242 445.22 937.802 442.7 941.122 442.7C944.342 442.7 946.902 445.28 946.902 448.5C946.902 451.72 944.342 454.26 941.122 454.26C937.822 454.26 935.242 451.72 935.242 448.5ZM941.082 452.18C943.082 452.18 944.602 450.58 944.602 448.52C944.602 446.4 943.062 444.78 941.022 444.78C939.082 444.78 937.522 446.42 937.522 448.5C937.522 450.56 939.082 452.18 941.082 452.18ZM957.031 450.5H959.591C958.551 452.96 956.651 454.26 954.131 454.26C950.831 454.26 948.211 451.7 948.211 448.48C948.211 445.24 950.771 442.7 954.051 442.7C956.631 442.7 958.711 444.14 959.591 446.54H957.031C956.391 445.38 955.391 444.78 954.051 444.78C951.991 444.78 950.491 446.34 950.491 448.48C950.491 450.58 952.051 452.18 954.111 452.18C955.351 452.18 956.211 451.68 957.031 450.5ZM969.667 450.5H972.227C971.187 452.96 969.287 454.26 966.767 454.26C963.467 454.26 960.847 451.7 960.847 448.48C960.847 445.24 963.407 442.7 966.687 442.7C969.267 442.7 971.347 444.14 972.227 446.54H969.667C969.027 445.38 968.027 444.78 966.687 444.78C964.627 444.78 963.127 446.34 963.127 448.48C963.127 450.58 964.687 452.18 966.747 452.18C967.987 452.18 968.847 451.68 969.667 450.5ZM973.964 454V442.96H976.224V450.8L981.744 442.96H984.044V454H981.784V446.18L976.264 454H973.964ZM991.987 447.9V445.02H989.987C988.867 445.02 988.207 445.56 988.207 446.46C988.207 447.36 988.867 447.9 989.987 447.9H991.987ZM985.467 454L988.387 449.76C986.887 449.28 985.927 448 985.927 446.46C985.927 444.44 987.527 442.96 989.727 442.96H994.247V454H991.987V449.96H990.747L988.167 454H985.467Z" fill="#F5F1EE"/>
<g opacity="0.68">
<path d="M842 628.5L728.5 682.5C728.5 682.5 690 681 678.5 668C667 655 673.5 628.5 673.5 628.5L781 575.5C781 575.5 784.5 600.5 802 611.5C819.5 622.5 842 628.5 842 628.5Z" fill="url(#paint21_linear_924_2)"/>
<path d="M842 628.5L728.5 682.5C728.5 682.5 690 681 678.5 668C667 655 673.5 628.5 673.5 628.5L781 575.5C781 575.5 784.5 600.5 802 611.5C819.5 622.5 842 628.5 842 628.5Z" fill="url(#paint22_radial_924_2)"/>
<path d="M842 628.5L728.5 682.5C728.5 682.5 690 681 678.5 668C667 655 673.5 628.5 673.5 628.5L781 575.5C781 575.5 784.5 600.5 802 611.5C819.5 622.5 842 628.5 842 628.5Z" fill="url(#paint23_radial_924_2)"/>
</g>
<path d="M798.78 577.8H800.12C801.16 577.8 801.78 577.74 802.38 577.6C803.3 577.32 803.86 576.52 803.86 575.44C803.86 573.34 801.84 573.16 800.24 573.16H798.78V577.8ZM796.46 580V565.22H805.28V567.42H798.78V570.96H800.32C802.4 570.96 803.4 571.14 804.28 571.66C805.48 572.36 806.2 573.8 806.2 575.46C806.2 577.14 805.52 578.5 804.32 579.24C803.4 579.8 802.32 580 800.26 580H796.46ZM816.295 576.62H818.755C818.035 578.76 815.875 580.26 813.455 580.26C810.115 580.26 807.535 577.74 807.535 574.5C807.535 571.26 810.075 568.7 813.315 568.7C816.555 568.7 819.055 571.24 819.055 574.54C819.055 574.9 819.015 575.12 818.955 575.44H809.935C810.195 577.06 811.595 578.18 813.395 578.18C814.695 578.18 815.635 577.64 816.295 576.62ZM809.895 573.42H816.795C816.395 571.76 815.135 570.78 813.335 570.78C811.575 570.78 810.315 571.76 809.895 573.42ZM819.435 580L824.075 568.96H826.015L830.655 580H828.255L825.055 572L821.835 580H819.435ZM831.109 574.52C831.109 571.16 833.509 568.7 836.789 568.7C838.489 568.7 839.669 569.28 840.629 570.6V568.96H842.749V580H840.629V578.4C839.549 579.72 838.449 580.26 836.789 580.26C833.489 580.26 831.109 577.84 831.109 574.52ZM833.389 574.54C833.389 576.64 834.929 578.18 837.029 578.18C839.109 578.18 840.589 576.64 840.589 574.5C840.589 572.34 839.049 570.78 836.929 570.78C834.909 570.78 833.389 572.4 833.389 574.54ZM845.027 583.74V568.96H847.147V570.46C848.027 569.32 849.367 568.7 851.007 568.7C854.227 568.7 856.607 571.14 856.607 574.46C856.607 577.78 854.207 580.26 850.987 580.26C849.467 580.26 848.307 579.76 847.287 578.68V583.74H845.027ZM850.767 578.18C852.787 578.18 854.327 576.58 854.327 574.52C854.327 572.36 852.787 570.78 850.707 570.78C848.687 570.78 847.147 572.4 847.147 574.52C847.147 576.58 848.727 578.18 850.767 578.18ZM859.506 583.74L861.486 579.18L857.366 568.96H859.926L862.726 576.66L865.746 568.96H868.306L861.946 583.74H859.506ZM877.878 576.5H880.438C879.398 578.96 877.498 580.26 874.978 580.26C871.678 580.26 869.058 577.7 869.058 574.48C869.058 571.24 871.618 568.7 874.898 568.7C877.478 568.7 879.558 570.14 880.438 572.54H877.878C877.238 571.38 876.238 570.78 874.898 570.78C872.838 570.78 871.338 572.34 871.338 574.48C871.338 576.58 872.898 578.18 874.958 578.18C876.198 578.18 877.058 577.68 877.878 576.5ZM884.435 577.94H886.755C887.855 577.94 888.515 577.38 888.515 576.48C888.515 575.58 887.855 575.02 886.755 575.02H884.435V577.94ZM882.175 580V568.96H884.435V572.96H886.995C889.195 572.96 890.815 574.46 890.815 576.48C890.815 578.5 889.195 580 886.995 580H882.175Z" fill="#F5F1EE"/>
<defs>
<linearGradient id="paint0_linear_924_2" x1="1126.08" y1="1056.38" x2="1164.22" y2="1128.1" gradientUnits="userSpaceOnUse">
<stop stop-color="#E31717"/>
<stop offset="1" stop-color="#FFB800"/>
</linearGradient>
<radialGradient id="paint1_radial_924_2" cx="0" cy="0" r="1" gradientUnits="userSpaceOnUse" gradientTransform="translate(1177.12 1089.99) rotate(-142.169) scale(47.0794 58.3156)">
<stop stop-color="#E31717" stop-opacity="0"/>
<stop offset="1" stop-color="#FFB800"/>
</radialGradient>
<radialGradient id="paint2_radial_924_2" cx="0" cy="0" r="1" gradientUnits="userSpaceOnUse" gradientTransform="translate(1190.24 1104.34) rotate(-143.176) scale(55.56 70.5912)">
<stop stop-color="#FFB800"/>
<stop offset="0.986758" stop-color="#E31717" stop-opacity="0"/>
</radialGradient>
<linearGradient id="paint3_linear_924_2" x1="1147.31" y1="854.425" x2="1165.25" y2="910.593" gradientUnits="userSpaceOnUse">
<stop stop-color="#E31717"/>
<stop offset="1" stop-color="#FFB800"/>
</linearGradient>
<radialGradient id="paint4_radial_924_2" cx="0" cy="0" r="1" gradientUnits="userSpaceOnUse" gradientTransform="translate(1204.47 877.037) rotate(-154.994) scale(45.954 45.0142)">
<stop stop-color="#E31717" stop-opacity="0"/>
<stop offset="1" stop-color="#FFB800"/>
</radialGradient>
<radialGradient id="paint5_radial_924_2" cx="0" cy="0" r="1" gradientUnits="userSpaceOnUse" gradientTransform="translate(1219.16 886.695) rotate(-155.785) scale(54.6174 54.1052)">
<stop stop-color="#FFB800"/>
<stop offset="0.986758" stop-color="#E31717" stop-opacity="0"/>
</radialGradient>
<linearGradient id="paint6_linear_924_2" x1="1323.17" y1="499.926" x2="1366.67" y2="567.124" gradientUnits="userSpaceOnUse">
<stop stop-color="#E31717"/>
<stop offset="1" stop-color="#FFB800"/>
</linearGradient>
<radialGradient id="paint7_radial_924_2" cx="0" cy="0" r="1" gradientUnits="userSpaceOnUse" gradientTransform="translate(1366.63 534.76) rotate(-136.613) scale(43.5647 55.6085)">
<stop stop-color="#E31717" stop-opacity="0"/>
<stop offset="1" stop-color="#FFB800"/>
</radialGradient>
<radialGradient id="paint8_radial_924_2" cx="0" cy="0" r="1" gradientUnits="userSpaceOnUse" gradientTransform="translate(1377.8 549.638) rotate(-137.655) scale(51.2342 67.5481)">
<stop stop-color="#FFB800"/>
<stop offset="0.986758" stop-color="#E31717" stop-opacity="0"/>
</radialGradient>
<linearGradient id="paint9_linear_924_2" x1="854.516" y1="720.601" x2="920.652" y2="814.589" gradientUnits="userSpaceOnUse">
<stop stop-color="#E31717"/>
<stop offset="1" stop-color="#FFB800"/>
</linearGradient>
<radialGradient id="paint10_radial_924_2" cx="0" cy="0" r="1" gradientUnits="userSpaceOnUse" gradientTransform="translate(913.431 771.935) rotate(-134.223) scale(61.5397 78.6485)">
<stop stop-color="#E31717" stop-opacity="0"/>
<stop offset="1" stop-color="#FFB800"/>
</radialGradient>
<radialGradient id="paint11_radial_924_2" cx="0" cy="0" r="1" gradientUnits="userSpaceOnUse" gradientTransform="translate(928.572 793.862) rotate(-135.268) scale(72.2638 95.6802)">
<stop stop-color="#FFB800"/>
<stop offset="0.986758" stop-color="#E31717" stop-opacity="0"/>
</radialGradient>
<linearGradient id="paint12_linear_924_2" x1="1274.02" y1="141.626" x2="1337.83" y2="244.097" gradientUnits="userSpaceOnUse">
<stop stop-color="#E31717"/>
<stop offset="1" stop-color="#FFB800"/>
</linearGradient>
<radialGradient id="paint13_radial_924_2" cx="0" cy="0" r="1" gradientUnits="userSpaceOnUse" gradientTransform="translate(1341.4 193.571) rotate(-137.723) scale(66.3374 84.4283)">
<stop stop-color="#E31717" stop-opacity="0"/>
<stop offset="1" stop-color="#FFB800"/>
</radialGradient>
<radialGradient id="paint14_radial_924_2" cx="0" cy="0" r="1" gradientUnits="userSpaceOnUse" gradientTransform="translate(1358.71 215.759) rotate(-138.761) scale(78.0707 102.484)">
<stop stop-color="#FFB800"/>
<stop offset="0.986758" stop-color="#E31717" stop-opacity="0"/>
</radialGradient>
<linearGradient id="paint15_linear_924_2" x1="1137.38" y1="317.626" x2="1183.54" y2="400.723" gradientUnits="userSpaceOnUse">
<stop stop-color="#E31717"/>
<stop offset="1" stop-color="#FFB800"/>
</linearGradient>
<radialGradient id="paint16_radial_924_2" cx="0" cy="0" r="1" gradientUnits="userSpaceOnUse" gradientTransform="translate(1195.13 357.349) rotate(-140.953) scale(54.1717 67.7675)">
<stop stop-color="#E31717" stop-opacity="0"/>
<stop offset="1" stop-color="#FFB800"/>
</radialGradient>
<radialGradient id="paint17_radial_924_2" cx="0" cy="0" r="1" gradientUnits="userSpaceOnUse" gradientTransform="translate(1209.97 374.316) rotate(-141.971) scale(63.8821 82.0941)">
<stop stop-color="#FFB800"/>
<stop offset="0.986758" stop-color="#E31717" stop-opacity="0"/>
</radialGradient>
<linearGradient id="paint18_linear_924_2" x1="849.21" y1="450.589" x2="912.485" y2="550.006" gradientUnits="userSpaceOnUse">
<stop stop-color="#E31717"/>
<stop offset="1" stop-color="#FFB800"/>
</linearGradient>
<radialGradient id="paint19_radial_924_2" cx="0" cy="0" r="1" gradientUnits="userSpaceOnUse" gradientTransform="translate(913.959 501.617) rotate(-137.097) scale(64.3965 82.1093)">
<stop stop-color="#E31717" stop-opacity="0"/>
<stop offset="1" stop-color="#FFB800"/>
</radialGradient>
<radialGradient id="paint20_radial_924_2" cx="0" cy="0" r="1" gradientUnits="userSpaceOnUse" gradientTransform="translate(930.599 523.413) rotate(-138.137) scale(75.7566 99.7083)">
<stop stop-color="#FFB800"/>
<stop offset="0.986758" stop-color="#E31717" stop-opacity="0"/>
</radialGradient>
<linearGradient id="paint21_linear_924_2" x1="683.501" y1="578.176" x2="757.685" y2="717.751" gradientUnits="userSpaceOnUse">
<stop stop-color="#E31717"/>
<stop offset="1" stop-color="#FFB800"/>
</linearGradient>
<radialGradient id="paint22_radial_924_2" cx="0" cy="0" r="1" gradientUnits="userSpaceOnUse" gradientTransform="translate(782.858 643.566) rotate(-142.185) scale(91.6254 113.476)">
<stop stop-color="#E31717" stop-opacity="0"/>
<stop offset="1" stop-color="#FFB800"/>
</radialGradient>
<radialGradient id="paint23_radial_924_2" cx="0" cy="0" r="1" gradientUnits="userSpaceOnUse" gradientTransform="translate(808.392 671.496) rotate(-143.193) scale(108.131 137.362)">
<stop stop-color="#FFB800"/>
<stop offset="0.986758" stop-color="#E31717" stop-opacity="0"/>
</radialGradient>
</defs>
</svg>
