<svg width="1996" height="1255" viewBox="0 0 1996 1255" fill="none" xmlns="http://www.w3.org/2000/svg">
<g opacity="0.47">
<path d="M1361.24 715.312C1043.95 859.163 864.41 968.906 731.798 1254C693.661 1217.27 658.222 1180.41 624.177 1143.9C617.385 1136.56 610.071 1129.57 603.889 1122.01C589.696 1104.78 543.548 1054.28 528.833 1094.18C504.54 1160.07 446.375 1257.67 346.416 1225.25C245.151 1192.42 299.31 854.573 244.629 790.309C237.576 782.047 180.979 737.981 170.791 731.554C160.604 725.128 149.023 719.337 134.482 714.747C120.899 707.755 106.88 700.905 92.426 694.338C63.605 681.202 33.2168 668.915 1 657.616C161.649 540.882 333.268 444.557 508.11 343.077C623.132 276.341 760.184 201.414 794.491 82.3496C942.949 187.149 1078.52 294.702 1175 435.023C1238.82 527.888 1276.35 632.404 1361.24 715.312Z" stroke="#F5F1EE" stroke-width="0.5" stroke-miterlimit="10"/>
<path d="M892.621 150.569C831.932 264.337 708.202 326.624 585.517 391.523C411.285 483.681 239.578 580.359 84.7637 693.774" stroke="#F5F1EE" stroke-width="0.5" stroke-miterlimit="10"/>
<path d="M976.385 216.878C896.452 322.172 773.941 378.596 647.338 440.177C593.876 466.165 541.981 492.859 491.479 520.683C481.378 526.262 471.365 531.841 461.352 537.49C451.338 543.14 441.499 548.86 431.747 554.651C421.995 560.441 182.11 725.62 170.791 731.623" stroke="#F5F1EE" stroke-width="0.5" stroke-miterlimit="10"/>
<path d="M1046.91 281.498C956.62 377.682 824.705 429.446 698.798 487.848C664.143 503.949 630.272 520.474 597.272 537.493C586.214 543.143 575.33 548.934 564.446 554.725C515.337 573.156 482.249 601.545 454.909 633.183C445.766 643.776 437.32 654.651 429.222 665.738C381.332 716.867 366.443 805.212 250.898 799.703" stroke="#F5F1EE" stroke-width="0.5" stroke-miterlimit="10"/>
<path d="M1105.69 344.345C1003.73 432.266 869.634 478.239 741.899 535.158C713.426 547.799 685.65 560.864 658.571 574.423C649.515 578.943 640.547 583.462 631.665 588.052C591.09 608.108 558.437 633.249 531.532 661.991C522.564 671.595 514.205 681.623 506.368 692.145C484.513 727.102 466.924 763.047 451.513 799.558C446.375 811.775 373.67 972.716 276.236 984.722" stroke="#F5F1EE" stroke-width="0.5" stroke-miterlimit="10"/>
<path d="M1154.1 405.364C1008.08 498.864 850.565 563.199 698.624 636.713C685.998 642.857 673.286 649.072 660.573 655.569C649.602 663.196 639.24 671.246 629.314 679.579C619.388 687.913 610.071 696.599 601.19 705.497C503.756 819.759 353.208 1043.69 300.268 1167.84" stroke="#F5F1EE" stroke-width="0.5" stroke-miterlimit="10"/>
<path d="M1194.15 464.115C1035.42 549.353 878.777 610.227 730.754 684.872C718.39 691.086 706.112 697.371 693.835 703.868C681.906 713.049 670.5 722.512 659.442 732.257C648.47 742.003 637.848 751.96 627.747 762.2C508.806 858.172 396.831 1162.54 388.646 1230.9" stroke="#F5F1EE" stroke-width="0.5" stroke-miterlimit="10"/>
<path d="M1226.89 519.486C1050.31 603.312 886.352 664.821 735.717 748.858C724.136 755.355 712.643 761.923 701.149 768.702C688.262 775.623 676.246 782.897 665.014 790.665C653.782 798.433 642.549 805.989 633.494 815.17C493.046 958.739 434.708 1188.96 434.708 1219.25" stroke="#F5F1EE" stroke-width="0.5" stroke-miterlimit="10"/>
<path d="M1255.89 571.672C1048.66 664.819 866.064 732.19 705.851 843.345C693.487 851.89 681.297 860.717 669.281 869.827C657.265 878.09 646.032 886.846 635.497 896.098C572.892 964.033 558.525 1000.54 528.311 1086.13" stroke="#F5F1EE" stroke-width="0.5" stroke-miterlimit="10"/>
<path d="M1285.23 622.092C1029.41 733.882 823.486 814.671 655.349 987.9C645.423 998.07 635.671 1008.59 626.093 1019.47C599.013 1041.71 575.068 1094.39 575.068 1094.39" stroke="#F5F1EE" stroke-width="0.5" stroke-miterlimit="10"/>
<path d="M1320.15 669.194C1010.52 806.196 807.552 903.792 641.853 1167.84" stroke="#F5F1EE" stroke-width="0.5" stroke-miterlimit="10"/>
<path d="M769.414 1170.81C728.403 1129.85 690.874 1088.96 655.001 1048.64C647.861 1040.59 595.878 978.935 557.654 994.471C509.328 1014.17 508.632 1043.76 471.713 1120.17C433.314 1199.83 351.118 1154.64 347.983 1116.85C333.616 945.673 329.611 870.181 316.811 756.272C303.925 641.586 162.78 613.762 147.456 606.488C132.218 599.144 116.458 592.082 100.175 585.161" stroke="#F5F1EE" stroke-width="0.5" stroke-miterlimit="10"/>
<path d="M810.599 1097.43C754.176 1038.96 705.242 980.77 658.135 924.063C650.299 914.6 642.375 905.278 634.365 896.451C544.332 821.382 504.714 1064.24 420.95 1067C344.152 1069.54 434.882 767.076 346.329 616.092C340.582 606.276 330.308 598.649 320.556 590.881C308.279 582.547 295.566 574.426 282.418 566.376C256.209 550.345 228.346 534.95 198.567 520.19" stroke="#F5F1EE" stroke-width="0.5" stroke-miterlimit="10"/>
<path d="M855.093 1033.24C798.235 971.168 749.474 909.093 701.846 848.502C695.054 839.815 671.544 803.588 646.293 800.268C590.045 792.924 522.651 929.361 471.8 911.918C417.467 893.274 465.531 587.492 428.787 553.1C418.773 545.05 408.499 537.141 398.05 529.372C366.53 505.997 332.398 483.54 295.043 462.143" stroke="#F5F1EE" stroke-width="0.5" stroke-miterlimit="10"/>
<path d="M902.722 977.45C831.671 895.884 774.813 814.39 716.3 735.79C709.769 727.033 703.239 718.347 696.709 709.732C659.877 667.431 585.604 795.181 530.313 762.767C478.592 732.471 573.501 562.702 563.575 552.674C514.031 502.464 457.434 454.654 388.646 410.164" stroke="#F5F1EE" stroke-width="0.5" stroke-miterlimit="10"/>
<path d="M953.92 929.009C879.125 838.828 823.224 748.647 762.97 662.279C743.64 634.596 651.779 657.618 630.794 630.854C607.111 600.628 654.043 520.758 626.093 492.016C582.556 447.102 532.49 404.306 471.8 364.124" stroke="#F5F1EE" stroke-width="0.5" stroke-miterlimit="10"/>
<path d="M1008.86 886.915C934.59 793.345 882.26 700.127 823.834 611.429C810.077 590.596 759.139 585.865 744.337 565.597C723.091 536.36 737.284 491.941 712.033 464.117C666.494 413.977 612.684 366.309 544.158 322.242" stroke="#F5F1EE" stroke-width="0.5" stroke-miterlimit="10"/>
<path d="M1068.33 849.839C910.994 639.958 854.484 445.825 611.029 281.353" stroke="#F5F1EE" stroke-width="0.5" stroke-miterlimit="10"/>
<path d="M1133.72 816.652C978.649 601.475 916.479 408.402 671.458 239.409" stroke="#F5F1EE" stroke-width="0.5" stroke-miterlimit="10"/>
<path d="M1204.6 785.222C1045.61 565.101 972.728 368.991 724.397 193.996" stroke="#F5F1EE" stroke-width="0.5" stroke-miterlimit="10"/>
<path d="M1281.31 751.819C1201.21 669.689 1170.56 565.454 1112.13 473.72C1028.11 341.661 903.505 240.675 767.672 142.797" stroke="#F5F1EE" stroke-width="0.5" stroke-miterlimit="10"/>
<path d="M1993.3 600.7C1832.65 716.94 1662.34 812.135 1488.02 913.05C1377.61 976.96 1228.81 1056.05 1202.34 1173.49C1043.87 1195.53 887.919 1222.65 731.886 1254C864.497 968.91 1044.04 859.167 1361.33 715.315C1580.84 706.77 1786.94 659.385 1993.39 600.7H1993.3Z" stroke="#F5F1EE" stroke-width="0.5" stroke-miterlimit="10"/>
<path d="M1409.05 712.912C1095.94 860.365 907.424 958.88 776.206 1244.89" stroke="#F5F1EE" stroke-width="0.5" stroke-miterlimit="10"/>
<path d="M1458.33 709.243C1150.01 860.439 949.915 949.843 820.177 1236.13" stroke="#F5F1EE" stroke-width="0.5" stroke-miterlimit="10"/>
<path d="M1509.27 704.229C1206.43 859.098 991.797 941.723 863.713 1227.73" stroke="#F5F1EE" stroke-width="0.5" stroke-miterlimit="10"/>
<path d="M1562.12 697.733C1265.64 855.992 1033.24 934.944 906.988 1219.68" stroke="#F5F1EE" stroke-width="0.5" stroke-miterlimit="10"/>
<path d="M1616.8 689.678C1327.29 851.184 1074.25 929.431 949.828 1212.05" stroke="#F5F1EE" stroke-width="0.5" stroke-miterlimit="10"/>
<path d="M1673.66 679.864C1391.89 844.054 1115 925.337 992.493 1204.71" stroke="#F5F1EE" stroke-width="0.5" stroke-miterlimit="10"/>
<path d="M1732.7 668.209C1459.38 834.588 1155.67 922.651 1034.81 1197.78" stroke="#F5F1EE" stroke-width="0.5" stroke-miterlimit="10"/>
<path d="M1793.99 654.582C1529.29 822.798 1196.42 921.029 1076.87 1191.22" stroke="#F5F1EE" stroke-width="0.5" stroke-miterlimit="10"/>
<path d="M1857.82 638.838C1628.38 791.8 1197.37 927.954 1118.84 1185.01" stroke="#F5F1EE" stroke-width="0.5" stroke-miterlimit="10"/>
<path d="M1924.17 620.969C1767.61 729.793 1600.78 818.421 1433.6 914.958C1315.18 983.317 1194.07 1056.9 1160.54 1179.14" stroke="#F5F1EE" stroke-width="0.5" stroke-miterlimit="10"/>
<path d="M1229.5 1113.04C1074.86 1127.66 922.313 1146.52 769.501 1170.81" stroke="#F5F1EE" stroke-width="0.5" stroke-miterlimit="10"/>
<path d="M1272.08 1061.71C1117.18 1067.85 964.282 1079.93 810.599 1097.44" stroke="#F5F1EE" stroke-width="0.5" stroke-miterlimit="10"/>
<path d="M1324.94 1016.37C1167.68 1017.08 1011.74 1022.51 855.006 1033.25" stroke="#F5F1EE" stroke-width="0.5" stroke-miterlimit="10"/>
<path d="M1385.36 974.491C1224.45 974.491 1063.63 972.514 902.809 977.457" stroke="#F5F1EE" stroke-width="0.5" stroke-miterlimit="10"/>
<path d="M1451.97 933.814C1285.75 935.721 1120.05 930.707 953.833 929.012" stroke="#F5F1EE" stroke-width="0.5" stroke-miterlimit="10"/>
<path d="M1524.24 892.219C1351.58 898.999 1181.27 894.267 1008.86 886.923" stroke="#F5F1EE" stroke-width="0.5" stroke-miterlimit="10"/>
<path d="M1603.22 846.523C1421.93 860.93 1249.71 861.848 1068.33 849.843" stroke="#F5F1EE" stroke-width="0.5" stroke-miterlimit="10"/>
<path d="M1691.25 795.187C1502.48 818.632 1324.41 831.556 1133.72 816.655" stroke="#F5F1EE" stroke-width="0.5" stroke-miterlimit="10"/>
<path d="M1786.16 738.057C1590.16 772.025 1405.48 794.764 1204.6 785.23" stroke="#F5F1EE" stroke-width="0.5" stroke-miterlimit="10"/>
<path d="M1885.42 673.864C1683.24 720.191 1492.2 752.817 1281.31 751.828" stroke="#F5F1EE" stroke-width="0.5" stroke-miterlimit="10"/>
<path d="M1994 600.135C1787.46 658.961 1581.1 706.559 1361.24 715.245C1276.35 632.408 1238.82 527.821 1175 434.957C1078.61 294.636 942.949 187.082 794.491 82.283C953.05 60.0379 1109.08 32.6375 1265.12 1C1301.6 36.0272 1335.73 71.2664 1368.47 106.364C1375 113.356 1381.53 120.347 1388.06 127.338C1408.7 151.772 1426.11 172.958 1443.53 172.958C1539.31 172.958 1539.31 52.9053 1608.97 38.7814C1713.45 3.47172 1696.04 187.082 1706.49 256.431C1707.44 268.93 1708.32 281.218 1709.27 293.506C1711.97 330.299 1714.32 367.162 1722.16 398.941C1730.87 434.25 1748.28 469.56 1781.89 496.113C1793.21 505.293 1806.27 513.485 1821.42 520.688C1834.31 528.103 1847.54 535.377 1861.21 542.439C1901.96 563.625 1946.02 582.904 1994 600.065V600.135Z" stroke="#F5F1EE" stroke-width="0.5" stroke-miterlimit="10"/>
<path d="M1351.14 87.9297C1197.37 114.271 1048.66 134.75 892.622 150.569" stroke="#F5F1EE" stroke-width="0.5" stroke-miterlimit="10"/>
<path d="M1423.33 164.486C1407.83 167.947 1392.85 170.772 1377.96 173.384C1243.96 196.265 1114.66 207.847 976.385 216.886" stroke="#F5F1EE" stroke-width="0.5" stroke-miterlimit="10"/>
<path d="M1488.28 161.942C1495.34 210.246 1456.68 240.754 1442.05 243.72C1427.51 246.686 1412.97 249.369 1398.51 251.841C1282.71 271.755 1168.64 278.323 1046.91 281.43" stroke="#F5F1EE" stroke-width="0.5" stroke-miterlimit="10"/>
<path d="M1582.84 50.8545C1542.36 87.9297 1539.31 201.274 1474 267.162C1465.91 276.484 1456.94 285.24 1446.92 293.079C1426.9 308.757 1402.43 321.044 1371.35 328.036C1356.8 330.296 1342.44 331.99 1327.98 333.473C1255.97 341.1 1183.1 344.419 1105.6 344.349" stroke="#F5F1EE" stroke-width="0.5" stroke-miterlimit="10"/>
<path d="M1644.93 35.7441C1603.22 50.8567 1582.84 180.09 1520.06 265.257C1513.62 276.345 1506.92 286.867 1499.86 296.965C1464.51 347.176 1417.23 387.005 1336.26 398.516C1326.42 399.434 1316.49 400.282 1306.56 401.058C1256.84 404.801 1206.34 406.284 1154.1 405.437" stroke="#F5F1EE" stroke-width="0.5" stroke-miterlimit="10"/>
<path d="M1694.99 119.217C1645.01 87.862 1583.98 240.188 1550.1 299.65C1513.45 364.055 1420.02 443.784 1335.47 460.309C1323.8 461.227 1312.14 462.004 1300.38 462.569C1265.2 464.405 1229.85 465.04 1194.15 464.122" stroke="#F5F1EE" stroke-width="0.5" stroke-miterlimit="10"/>
<path d="M1719.98 392.867C1687.33 363.701 1697.43 323.024 1644.93 328.745C1562.99 337.643 1577.18 503.245 1350.62 515.957C1340.26 516.522 1329.99 517.44 1319.71 518.005C1288.8 519.699 1257.8 520.264 1226.89 519.417" stroke="#F5F1EE" stroke-width="0.5" stroke-miterlimit="10"/>
<path d="M1771.01 486.577C1626.47 441.38 1530.69 547.309 1391.81 567.224C1380.05 568.283 1368.3 569.201 1356.72 569.907C1321.89 572.097 1287.93 572.803 1255.97 571.673" stroke="#F5F1EE" stroke-width="0.5" stroke-miterlimit="10"/>
<path d="M1839.45 530.929C1824.82 534.954 1810.1 538.909 1795.3 542.863C1781.8 546.041 1768.31 549.219 1754.73 552.115C1643.88 568.569 1539.4 603.879 1425.85 614.33C1414.1 615.531 1402.34 616.59 1390.59 617.579C1355.32 620.403 1320.23 622.028 1285.32 622.169" stroke="#F5F1EE" stroke-width="0.5" stroke-miterlimit="10"/>
<path d="M1910.5 566.452C1854.16 582.271 1796.95 597.454 1738.96 611.013C1727.38 613.767 1715.8 616.38 1704.14 618.993C1652.5 624.996 1600.26 646.181 1535.04 650.63C1523.2 652.396 1511.36 654.02 1499.43 655.574C1440.05 663.271 1380.23 668.074 1320.15 669.274" stroke="#F5F1EE" stroke-width="0.5" stroke-miterlimit="10"/>
<path d="M1409.05 712.842C1319.36 631.347 1276.96 529.655 1212.96 435.661C1116.57 294.139 984.047 184.114 836.286 76.7021" stroke="#F5F1EE" stroke-width="0.5" stroke-miterlimit="10"/>
<path d="M1458.42 709.171C1363.07 630.289 1315.53 530.504 1251.19 435.733C1154.45 293.293 1024.97 180.797 878.167 70.7715" stroke="#F5F1EE" stroke-width="0.5" stroke-miterlimit="10"/>
<path d="M1509.44 704.158C1458.85 666.235 1420.28 622.875 1386.23 577.043C1379.44 567.862 1372.74 558.611 1366.21 549.289C1359.68 539.968 1353.32 530.505 1346.97 521.042C1327.9 492.653 1309.44 463.769 1289.76 435.168C1191.89 292.164 1065.9 177.266 920.049 64.5576" stroke="#F5F1EE" stroke-width="0.5" stroke-miterlimit="10"/>
<path d="M1562.29 697.59C1538.18 681.277 1516.49 663.764 1496.64 645.403C1490.02 639.259 1483.67 633.044 1477.4 626.689C1434.82 575.489 1382.58 518.994 1348.88 462.498C1342.26 452.894 1335.65 443.29 1328.94 433.685C1229.42 290.54 1106.91 173.1 962.105 57.7783" stroke="#F5F1EE" stroke-width="0.5" stroke-miterlimit="10"/>
<path d="M1617.15 689.467C1604.61 680.499 1592.6 671.389 1580.93 662.138C1487.15 589.682 1426.2 497.877 1354.37 416.523C1346.62 406.495 1338.95 396.467 1331.2 386.298C1246.14 275.002 1155.23 158.974 1004.51 50.7852" stroke="#F5F1EE" stroke-width="0.5" stroke-miterlimit="10"/>
<path d="M1674.01 679.65C1660.86 671.175 1648.06 662.489 1635.52 653.52C1521.98 568.495 1508.05 498.582 1409.05 405.364C1399.91 396.748 1372.39 394.842 1325.81 343.713C1233.77 242.727 1154.01 133.832 1047.09 43.5098" stroke="#F5F1EE" stroke-width="0.5" stroke-miterlimit="10"/>
<path d="M1733.04 667.929C1718.94 660.726 1705.27 653.17 1691.86 645.26C1678.45 637.351 1665.39 629.018 1652.85 620.12C1565.43 533.187 1542.36 437.216 1488.28 384.322C1446.23 343.15 1412.44 384.322 1361.16 335.735C1351.06 326.202 1343.83 314.761 1335.21 304.239C1257.63 209.397 1181.01 114.414 1090.01 35.7441" stroke="#F5F1EE" stroke-width="0.5" stroke-miterlimit="10"/>
<path d="M1794.52 654.226C1779.8 646.67 1765.52 638.902 1751.5 630.781C1737.57 622.66 1723.9 614.256 1710.75 605.499C1609.05 540.247 1626.47 420.194 1582.93 328.388C1548.1 271.893 1469.74 328.388 1408.79 321.326C1400.08 314.264 1391.37 300.141 1381.45 293.29C1373.44 284.534 1365.6 275.353 1357.85 266.243C1287.49 184.042 1216.62 101.629 1133.38 27.6201" stroke="#F5F1EE" stroke-width="0.5" stroke-miterlimit="10"/>
<path d="M1858.34 638.481C1842.76 631.348 1827.6 623.933 1812.8 616.235C1798 608.538 1783.72 600.558 1769.7 592.296C1663.3 531.139 1662.25 417.512 1657.2 334.958C1656.42 321.753 1651.02 198.31 1611.23 183.974C1529.29 154.526 1497.69 262.927 1457.63 278.675C1429.51 289.691 1377.79 231.077 1367.78 219.637C1307.96 151.206 1246.74 82.7762 1176.91 19.0068" stroke="#F5F1EE" stroke-width="0.5" stroke-miterlimit="10"/>
<path d="M1924.86 620.471C1879.67 602.18 1838.05 581.701 1799.39 559.314C1786.51 551.829 1773.88 544.06 1761.69 535.092C1690.99 474.642 1682.02 348.939 1677.84 279.449C1673.66 208.83 1689.25 103.395 1608.97 102.477C1534.95 101.63 1513.45 240.538 1458.24 235.1C1446.31 233.9 1383.8 180.017 1376.83 172.249C1327.81 117.731 1277.22 63.0008 1220.8 10.248" stroke="#F5F1EE" stroke-width="0.5" stroke-miterlimit="10"/>
</g>
<g opacity="0.68">
<path d="M1072 1073L1118.5 1020L1159.5 1018L1114 1070L1072 1073Z" fill="url(#paint0_linear_924_2)"/>
<path d="M1072 1073L1118.5 1020L1159.5 1018L1114 1070L1072 1073Z" fill="url(#paint1_radial_924_2)"/>
<path d="M1072 1073L1118.5 1020L1159.5 1018L1114 1070L1072 1073Z" fill="url(#paint2_radial_924_2)"/>
</g>
<path d="M1172.16 1026L1178.38 1011.22H1180.38L1186.64 1026H1184.08L1182.32 1021.8H1176.52L1174.7 1026H1172.16ZM1177.36 1019.6H1181.38L1179.38 1014.36L1177.36 1019.6ZM1187.36 1022.62H1189.62C1189.7 1023.52 1190.5 1024.18 1191.52 1024.18C1192.58 1024.18 1193.42 1023.48 1193.42 1022.62C1193.42 1021.52 1192.58 1021.04 1190.74 1021.04V1019.46C1192.3 1019.46 1193.02 1019 1193.02 1018.04C1193.02 1017.34 1192.36 1016.76 1191.52 1016.76C1190.7 1016.76 1190.06 1017.28 1189.94 1018.04H1187.78C1187.9 1016.12 1189.5 1014.7 1191.52 1014.7C1193.6 1014.7 1195.24 1016.18 1195.24 1018.04C1195.24 1019.02 1194.62 1019.86 1193.66 1020.12V1020.18C1194.88 1020.5 1195.7 1021.48 1195.7 1022.62C1195.7 1024.64 1193.84 1026.26 1191.54 1026.26C1189.3 1026.26 1187.48 1024.68 1187.36 1022.62ZM1205.79 1022.62H1208.25C1207.53 1024.76 1205.37 1026.26 1202.95 1026.26C1199.61 1026.26 1197.03 1023.74 1197.03 1020.5C1197.03 1017.26 1199.57 1014.7 1202.81 1014.7C1206.05 1014.7 1208.55 1017.24 1208.55 1020.54C1208.55 1020.9 1208.51 1021.12 1208.45 1021.44H1199.43C1199.69 1023.06 1201.09 1024.18 1202.89 1024.18C1204.19 1024.18 1205.13 1023.64 1205.79 1022.62ZM1199.39 1019.42H1206.29C1205.89 1017.76 1204.63 1016.78 1202.83 1016.78C1201.07 1016.78 1199.81 1017.76 1199.39 1019.42ZM1210.29 1029.74V1014.96H1212.41V1016.46C1213.29 1015.32 1214.63 1014.7 1216.27 1014.7C1219.49 1014.7 1221.87 1017.14 1221.87 1020.46C1221.87 1023.78 1219.47 1026.26 1216.25 1026.26C1214.73 1026.26 1213.57 1025.76 1212.55 1024.68V1029.74H1210.29ZM1216.03 1024.18C1218.05 1024.18 1219.59 1022.58 1219.59 1020.52C1219.59 1018.36 1218.05 1016.78 1215.97 1016.78C1213.95 1016.78 1212.41 1018.4 1212.41 1020.52C1212.41 1022.58 1213.99 1024.18 1216.03 1024.18ZM1225.27 1017.2L1225.31 1017.22C1225.93 1015.88 1227.79 1014.86 1229.55 1014.86C1232.65 1014.86 1235.01 1017.3 1235.01 1020.54C1235.01 1023.74 1232.43 1026.26 1229.17 1026.26C1225.53 1026.26 1223.39 1023.84 1223.39 1019.76V1018.1C1223.39 1013.3 1225.37 1010.86 1229.49 1010.52L1234.27 1010.14V1012.18L1229.61 1012.58C1226.69 1012.84 1225.29 1014.32 1225.27 1017.2ZM1229.13 1024.18C1231.15 1024.18 1232.73 1022.58 1232.73 1020.52C1232.73 1018.48 1231.15 1016.9 1229.11 1016.9C1227.15 1016.9 1225.59 1018.5 1225.59 1020.5C1225.59 1022.58 1227.13 1024.18 1229.13 1024.18ZM1236.33 1020.52C1236.33 1017.16 1238.73 1014.7 1242.01 1014.7C1243.71 1014.7 1244.89 1015.28 1245.85 1016.6V1014.96H1247.97V1026H1245.85V1024.4C1244.77 1025.72 1243.67 1026.26 1242.01 1026.26C1238.71 1026.26 1236.33 1023.84 1236.33 1020.52ZM1238.61 1020.54C1238.61 1022.64 1240.15 1024.18 1242.25 1024.18C1244.33 1024.18 1245.81 1022.64 1245.81 1020.5C1245.81 1018.34 1244.27 1016.78 1242.15 1016.78C1240.13 1016.78 1238.61 1018.4 1238.61 1020.54ZM1252.07 1011.08H1253.91C1253.91 1012.12 1254.35 1012.58 1255.29 1012.58C1256.23 1012.58 1256.67 1012.12 1256.67 1011.08H1258.51C1258.21 1012.8 1257.13 1013.68 1255.29 1013.68C1253.45 1013.68 1252.37 1012.8 1252.07 1011.08ZM1250.25 1026V1014.96H1252.51V1022.8L1258.03 1014.96H1260.33V1026H1258.07V1018.18L1252.55 1026H1250.25ZM1261.71 1028.6V1023.94H1263.33L1267.15 1014.96H1269.27L1273.09 1023.94H1274.71V1028.6H1273.09L1272.55 1026H1263.89L1263.33 1028.6H1261.71ZM1265.69 1023.94H1270.73L1268.21 1017.96L1265.69 1023.94ZM1275.01 1026L1279.39 1020.4L1275.17 1014.96H1277.85L1281.61 1020.06V1014.96H1283.89V1020.06L1287.65 1014.96H1290.33L1286.11 1020.4L1290.49 1026H1287.71L1283.89 1020.82V1026H1281.61V1020.82L1277.79 1026H1275.01ZM1291.21 1020.52C1291.21 1017.16 1293.61 1014.7 1296.89 1014.7C1298.59 1014.7 1299.77 1015.28 1300.73 1016.6V1014.96H1302.85V1026H1300.73V1024.4C1299.65 1025.72 1298.55 1026.26 1296.89 1026.26C1293.59 1026.26 1291.21 1023.84 1291.21 1020.52ZM1293.49 1020.54C1293.49 1022.64 1295.03 1024.18 1297.13 1024.18C1299.21 1024.18 1300.69 1022.64 1300.69 1020.5C1300.69 1018.34 1299.15 1016.78 1297.03 1016.78C1295.01 1016.78 1293.49 1018.4 1293.49 1020.54ZM1305.13 1026V1014.96H1307.39V1019.38H1312.83V1014.96H1315.11V1026H1312.83V1021.44H1307.39V1026H1305.13Z" fill="#F5F1EE"/>
<g opacity="0.68">
<path d="M1092.5 851L1152.5 816.5L1190.5 820.5L1134.5 853.5L1092.5 851Z" fill="url(#paint3_linear_924_2)"/>
<path d="M1092.5 851L1152.5 816.5L1190.5 820.5L1134.5 853.5L1092.5 851Z" fill="url(#paint4_radial_924_2)"/>
<path d="M1092.5 851L1152.5 816.5L1190.5 820.5L1134.5 853.5L1092.5 851Z" fill="url(#paint5_radial_924_2)"/>
</g>
<path d="M1207.46 828V813.22H1215.04V815.42H1209.78V828H1207.46ZM1216.32 831.74V816.96H1218.44V818.46C1219.32 817.32 1220.66 816.7 1222.3 816.7C1225.52 816.7 1227.9 819.14 1227.9 822.46C1227.9 825.78 1225.5 828.26 1222.28 828.26C1220.76 828.26 1219.6 827.76 1218.58 826.68V831.74H1216.32ZM1222.06 826.18C1224.08 826.18 1225.62 824.58 1225.62 822.52C1225.62 820.36 1224.08 818.78 1222 818.78C1219.98 818.78 1218.44 820.4 1218.44 822.52C1218.44 824.58 1220.02 826.18 1222.06 826.18ZM1230.8 831.74L1232.78 827.18L1228.66 816.96H1231.22L1234.02 824.66L1237.04 816.96H1239.6L1233.24 831.74H1230.8ZM1240.25 824.62H1242.51C1242.59 825.52 1243.39 826.18 1244.41 826.18C1245.47 826.18 1246.31 825.48 1246.31 824.62C1246.31 823.52 1245.47 823.04 1243.63 823.04V821.46C1245.19 821.46 1245.91 821 1245.91 820.04C1245.91 819.34 1245.25 818.76 1244.41 818.76C1243.59 818.76 1242.95 819.28 1242.83 820.04H1240.67C1240.79 818.12 1242.39 816.7 1244.41 816.7C1246.49 816.7 1248.13 818.18 1248.13 820.04C1248.13 821.02 1247.51 821.86 1246.55 822.12V822.18C1247.77 822.5 1248.59 823.48 1248.59 824.62C1248.59 826.64 1246.73 828.26 1244.43 828.26C1242.19 828.26 1240.37 826.68 1240.25 824.62ZM1250.4 828V816.96H1252.66V824.8L1258.18 816.96H1260.48V828H1258.22V820.18L1252.7 828H1250.4ZM1268.42 821.9V819.02H1266.42C1265.3 819.02 1264.64 819.56 1264.64 820.46C1264.64 821.36 1265.3 821.9 1266.42 821.9H1268.42ZM1261.9 828L1264.82 823.76C1263.32 823.28 1262.36 822 1262.36 820.46C1262.36 818.44 1263.96 816.96 1266.16 816.96H1270.68V828H1268.42V823.96H1267.18L1264.6 828H1261.9Z" fill="#F5F1EE"/>
<g opacity="0.68">
<path d="M1305 518.5L1270 464.5L1308 461.5L1344.5 516L1305 518.5Z" fill="url(#paint6_linear_924_2)"/>
<path d="M1305 518.5L1270 464.5L1308 461.5L1344.5 516L1305 518.5Z" fill="url(#paint7_radial_924_2)"/>
<path d="M1305 518.5L1270 464.5L1308 461.5L1344.5 516L1305 518.5Z" fill="url(#paint8_radial_924_2)"/>
</g>
<path d="M1326.46 467V452.22H1328.76V463.24L1335.98 452.22H1338.32V467H1336.02V455.98L1328.8 467H1326.46ZM1349.27 463.5H1351.83C1350.79 465.96 1348.89 467.26 1346.37 467.26C1343.07 467.26 1340.45 464.7 1340.45 461.48C1340.45 458.24 1343.01 455.7 1346.29 455.7C1348.87 455.7 1350.95 457.14 1351.83 459.54H1349.27C1348.63 458.38 1347.63 457.78 1346.29 457.78C1344.23 457.78 1342.73 459.34 1342.73 461.48C1342.73 463.58 1344.29 465.18 1346.35 465.18C1347.59 465.18 1348.45 464.68 1349.27 463.5ZM1353.56 467V455.96H1363.5V467H1361.24V458.02H1355.82V467H1353.56ZM1365.31 461.52C1365.31 458.16 1367.71 455.7 1370.99 455.7C1372.69 455.7 1373.87 456.28 1374.83 457.6V455.96H1376.95V467H1374.83V465.4C1373.75 466.72 1372.65 467.26 1370.99 467.26C1367.69 467.26 1365.31 464.84 1365.31 461.52ZM1367.59 461.54C1367.59 463.64 1369.13 465.18 1371.23 465.18C1373.31 465.18 1374.79 463.64 1374.79 461.5C1374.79 459.34 1373.25 457.78 1371.13 457.78C1369.11 457.78 1367.59 459.4 1367.59 461.54ZM1379.23 467V455.96H1381.49V460.38H1386.93V455.96H1389.21V467H1386.93V462.44H1381.49V467H1379.23ZM1391.49 467V455.96H1393.75V463.8L1399.27 455.96H1401.57V467H1399.31V459.18L1393.79 467H1391.49ZM1409.51 460.9V458.02H1407.51C1406.39 458.02 1405.73 458.56 1405.73 459.46C1405.73 460.36 1406.39 460.9 1407.51 460.9H1409.51ZM1402.99 467L1405.91 462.76C1404.41 462.28 1403.45 461 1403.45 459.46C1403.45 457.44 1405.05 455.96 1407.25 455.96H1411.77V467H1409.51V462.96H1408.27L1405.69 467H1402.99Z" fill="#F5F1EE"/>
<path d="M833.5 765.5L799.5 715L869 681.5L900.5 731L833.5 765.5Z" fill="url(#paint9_linear_924_2)"/>
<path d="M833.5 765.5L799.5 715L869 681.5L900.5 731L833.5 765.5Z" fill="url(#paint10_radial_924_2)"/>
<path d="M833.5 765.5L799.5 715L869 681.5L900.5 731L833.5 765.5Z" fill="url(#paint11_radial_924_2)"/>
<path d="M885.46 685V670.22H887.78V676.74L893.08 670.22H895.92L889.78 677.5L895.92 685H893.06L887.78 678.38V685H885.46ZM896.789 679.52C896.789 676.16 899.189 673.7 902.469 673.7C904.169 673.7 905.349 674.28 906.309 675.6V673.96H908.429L908.429 685H906.309V683.4C905.229 684.72 904.129 685.26 902.469 685.26C899.169 685.26 896.789 682.84 896.789 679.52ZM899.069 679.54C899.069 681.64 900.609 683.18 902.709 683.18C904.789 683.18 906.269 681.64 906.269 679.5C906.269 677.34 904.729 675.78 902.609 675.78C900.589 675.78 899.069 677.4 899.069 679.54ZM910.126 681.62H912.386C912.466 682.52 913.266 683.18 914.286 683.18C915.346 683.18 916.186 682.48 916.186 681.62C916.186 680.52 915.346 680.04 913.506 680.04V678.46C915.066 678.46 915.786 678 915.786 677.04C915.786 676.34 915.126 675.76 914.286 675.76C913.466 675.76 912.826 676.28 912.706 677.04H910.546C910.666 675.12 912.266 673.7 914.286 673.7C916.366 673.7 918.006 675.18 918.006 677.04C918.006 678.02 917.386 678.86 916.426 679.12V679.18C917.646 679.5 918.466 680.48 918.466 681.62C918.466 683.64 916.606 685.26 914.306 685.26C912.066 685.26 910.246 683.68 910.126 681.62ZM919.797 679.52C919.797 676.16 922.197 673.7 925.477 673.7C927.177 673.7 928.357 674.28 929.317 675.6V673.96H931.437V685H929.317V683.4C928.237 684.72 927.137 685.26 925.477 685.26C922.177 685.26 919.797 682.84 919.797 679.52ZM922.077 679.54C922.077 681.64 923.617 683.18 925.717 683.18C927.797 683.18 929.277 681.64 929.277 679.5C929.277 677.34 927.737 675.78 925.617 675.78C923.597 675.78 922.077 677.4 922.077 679.54ZM932.674 685L936.554 679.32L933.014 673.96H935.574L937.894 677.6L940.174 673.96H942.754L939.214 679.32L943.114 685H940.414L937.894 681L935.354 685H932.674ZM952.699 681.5H955.259C954.219 683.96 952.319 685.26 949.799 685.26C946.499 685.26 943.879 682.7 943.879 679.48C943.879 676.24 946.439 673.7 949.719 673.7C952.299 673.7 954.379 675.14 955.259 677.54H952.699C952.059 676.38 951.059 675.78 949.719 675.78C947.659 675.78 946.159 677.34 946.159 679.48C946.159 681.58 947.719 683.18 949.779 683.18C951.019 683.18 951.879 682.68 952.699 681.5ZM958.855 685V676.02H956.175V673.96H963.795V676.02H961.115V685H958.855ZM964.777 679.52C964.777 676.16 967.177 673.7 970.457 673.7C972.157 673.7 973.337 674.28 974.297 675.6V673.96H976.417V685H974.297V683.4C973.217 684.72 972.117 685.26 970.457 685.26C967.157 685.26 964.777 682.84 964.777 679.52ZM967.057 679.54C967.057 681.64 968.597 683.18 970.697 683.18C972.777 683.18 974.257 681.64 974.257 679.5C974.257 677.34 972.717 675.78 970.597 675.78C968.577 675.78 967.057 677.4 967.057 679.54ZM978.695 685V673.96H980.955V678.38H986.395V673.96H988.675V685H986.395V680.44H980.955V685H978.695Z" fill="#F5F1EE"/>
<g opacity="0.52">
<path d="M1290.5 187.5L1218 109L1262 102.5L1333.5 180.5L1290.5 187.5Z" fill="url(#paint12_linear_924_2)"/>
<path d="M1290.5 187.5L1218 109L1262 102.5L1333.5 180.5L1290.5 187.5Z" fill="url(#paint13_radial_924_2)"/>
<path d="M1290.5 187.5L1218 109L1262 102.5L1333.5 180.5L1290.5 187.5Z" fill="url(#paint14_radial_924_2)"/>
</g>
<path d="M1280.46 108V93.22H1282.78V99.74L1288.08 93.22H1290.92L1284.78 100.5L1290.92 108H1288.06L1282.78 101.38V108H1280.46ZM1292.27 108V96.96H1294.53V104.8L1300.05 96.96H1302.35V108H1300.09V100.18L1294.57 108H1292.27ZM1304.63 108V96.96H1314.57V108H1312.31V99.02H1306.89V108H1304.63ZM1316.86 111.74V96.96H1318.98V98.46C1319.86 97.32 1321.2 96.7 1322.84 96.7C1326.06 96.7 1328.44 99.14 1328.44 102.46C1328.44 105.78 1326.04 108.26 1322.82 108.26C1321.3 108.26 1320.14 107.76 1319.12 106.68V111.74H1316.86ZM1322.6 106.18C1324.62 106.18 1326.16 104.58 1326.16 102.52C1326.16 100.36 1324.62 98.78 1322.54 98.78C1320.52 98.78 1318.98 100.4 1318.98 102.52C1318.98 104.58 1320.56 106.18 1322.6 106.18Z" fill="#F5F1EE"/>
<g opacity="0.68">
<path d="M1143 344L1082.5 280.5L1122 279L1181.5 344H1143Z" fill="url(#paint15_linear_924_2)"/>
<path d="M1143 344L1082.5 280.5L1122 279L1181.5 344H1143Z" fill="url(#paint16_radial_924_2)"/>
<path d="M1143 344L1082.5 280.5L1122 279L1181.5 344H1143Z" fill="url(#paint17_radial_924_2)"/>
</g>
<path d="M1139.78 280.8H1141.12C1142.16 280.8 1142.78 280.74 1143.38 280.6C1144.3 280.32 1144.86 279.52 1144.86 278.44C1144.86 276.34 1142.84 276.16 1141.24 276.16H1139.78V280.8ZM1137.46 283V268.22H1146.28V270.42H1139.78V273.96H1141.32C1143.4 273.96 1144.4 274.14 1145.28 274.66C1146.48 275.36 1147.2 276.8 1147.2 278.46C1147.2 280.14 1146.52 281.5 1145.32 282.24C1144.4 282.8 1143.32 283 1141.26 283H1137.46ZM1148.53 277.52C1148.53 274.16 1150.93 271.7 1154.21 271.7C1155.91 271.7 1157.09 272.28 1158.05 273.6V271.96H1160.17V283H1158.05V281.4C1156.97 282.72 1155.87 283.26 1154.21 283.26C1150.91 283.26 1148.53 280.84 1148.53 277.52ZM1150.81 277.54C1150.81 279.64 1152.35 281.18 1154.45 281.18C1156.53 281.18 1158.01 279.64 1158.01 277.5C1158.01 275.34 1156.47 273.78 1154.35 273.78C1152.33 273.78 1150.81 275.4 1150.81 277.54ZM1161.39 283L1166.03 271.96H1167.97L1172.61 283H1170.21L1167.01 275L1163.79 283H1161.39ZM1173.84 283V271.96H1176.1V279.8L1181.62 271.96H1183.92V283H1181.66V275.18L1176.14 283H1173.84Z" fill="#F5F1EE"/>
<g opacity="0.68">
<path d="M834.5 495L793.5 445L862.5 411.5L904.5 464.5L834.5 495Z" fill="url(#paint18_linear_924_2)"/>
<path d="M834.5 495L793.5 445L862.5 411.5L904.5 464.5L834.5 495Z" fill="url(#paint19_radial_924_2)"/>
<path d="M834.5 495L793.5 445L862.5 411.5L904.5 464.5L834.5 495Z" fill="url(#paint20_radial_924_2)"/>
</g>
<path d="M876.46 417V402.22H880.26C882.22 402.22 883.28 402.42 884.16 402.98C885.34 403.72 886 405.08 886 406.76C886 408.42 885.3 409.84 884.14 410.56C883.3 411.08 882.3 411.26 880.3 411.26H878.78V417H876.46ZM878.78 409.06H880.22C881.24 409.06 881.94 408.98 882.42 408.76C883.2 408.48 883.66 407.74 883.66 406.78C883.66 404.48 881.82 404.42 880.08 404.42H878.78V409.06ZM887.242 411.5C887.242 408.22 889.802 405.7 893.122 405.7C896.342 405.7 898.902 408.28 898.902 411.5C898.902 414.72 896.342 417.26 893.122 417.26C889.822 417.26 887.242 414.72 887.242 411.5ZM893.082 415.18C895.082 415.18 896.602 413.58 896.602 411.52C896.602 409.4 895.062 407.78 893.022 407.78C891.082 407.78 889.522 409.42 889.522 411.5C889.522 413.56 891.082 415.18 893.082 415.18ZM909.031 413.5H911.591C910.551 415.96 908.651 417.26 906.131 417.26C902.831 417.26 900.211 414.7 900.211 411.48C900.211 408.24 902.771 405.7 906.051 405.7C908.631 405.7 910.711 407.14 911.591 409.54H909.031C908.391 408.38 907.391 407.78 906.051 407.78C903.991 407.78 902.491 409.34 902.491 411.48C902.491 413.58 904.051 415.18 906.111 415.18C907.351 415.18 908.211 414.68 909.031 413.5ZM921.667 413.5H924.227C923.187 415.96 921.287 417.26 918.767 417.26C915.467 417.26 912.847 414.7 912.847 411.48C912.847 408.24 915.407 405.7 918.687 405.7C921.267 405.7 923.347 407.14 924.227 409.54H921.667C921.027 408.38 920.027 407.78 918.687 407.78C916.627 407.78 915.127 409.34 915.127 411.48C915.127 413.58 916.687 415.18 918.747 415.18C919.987 415.18 920.847 414.68 921.667 413.5ZM925.964 417V405.96H928.224V413.8L933.744 405.96H936.044V417H933.784V409.18L928.264 417H925.964ZM943.987 410.9V408.02H941.987C940.867 408.02 940.207 408.56 940.207 409.46C940.207 410.36 940.867 410.9 941.987 410.9H943.987ZM937.467 417L940.387 412.76C938.887 412.28 937.927 411 937.927 409.46C937.927 407.44 939.527 405.96 941.727 405.96H946.247V417H943.987V412.96H942.747L940.167 417H937.467Z" fill="#F5F1EE"/>
<g opacity="0.68">
<path d="M794 591.5L680.5 645.5C680.5 645.5 642 644 630.5 631C619 618 625.5 591.5 625.5 591.5L733 538.5C733 538.5 736.5 563.5 754 574.5C771.5 585.5 794 591.5 794 591.5Z" fill="url(#paint21_linear_924_2)"/>
<path d="M794 591.5L680.5 645.5C680.5 645.5 642 644 630.5 631C619 618 625.5 591.5 625.5 591.5L733 538.5C733 538.5 736.5 563.5 754 574.5C771.5 585.5 794 591.5 794 591.5Z" fill="url(#paint22_radial_924_2)"/>
<path d="M794 591.5L680.5 645.5C680.5 645.5 642 644 630.5 631C619 618 625.5 591.5 625.5 591.5L733 538.5C733 538.5 736.5 563.5 754 574.5C771.5 585.5 794 591.5 794 591.5Z" fill="url(#paint23_radial_924_2)"/>
</g>
<path d="M750.78 540.8H752.12C753.16 540.8 753.78 540.74 754.38 540.6C755.3 540.32 755.86 539.52 755.86 538.44C755.86 536.34 753.84 536.16 752.24 536.16H750.78V540.8ZM748.46 543V528.22H757.28V530.42H750.78V533.96H752.32C754.4 533.96 755.4 534.14 756.28 534.66C757.48 535.36 758.2 536.8 758.2 538.46C758.2 540.14 757.52 541.5 756.32 542.24C755.4 542.8 754.32 543 752.26 543H748.46ZM768.295 539.62H770.755C770.035 541.76 767.875 543.26 765.455 543.26C762.115 543.26 759.535 540.74 759.535 537.5C759.535 534.26 762.075 531.7 765.315 531.7C768.555 531.7 771.055 534.24 771.055 537.54C771.055 537.9 771.015 538.12 770.955 538.44H761.935C762.195 540.06 763.595 541.18 765.395 541.18C766.695 541.18 767.635 540.64 768.295 539.62ZM761.895 536.42H768.795C768.395 534.76 767.135 533.78 765.335 533.78C763.575 533.78 762.315 534.76 761.895 536.42ZM771.435 543L776.075 531.96H778.015L782.655 543H780.255L777.055 535L773.835 543H771.435ZM783.109 537.52C783.109 534.16 785.509 531.7 788.789 531.7C790.489 531.7 791.669 532.28 792.629 533.6V531.96H794.749V543H792.629V541.4C791.549 542.72 790.449 543.26 788.789 543.26C785.489 543.26 783.109 540.84 783.109 537.52ZM785.389 537.54C785.389 539.64 786.929 541.18 789.029 541.18C791.109 541.18 792.589 539.64 792.589 537.5C792.589 535.34 791.049 533.78 788.929 533.78C786.909 533.78 785.389 535.4 785.389 537.54ZM797.027 546.74V531.96H799.147V533.46C800.027 532.32 801.367 531.7 803.007 531.7C806.227 531.7 808.607 534.14 808.607 537.46C808.607 540.78 806.207 543.26 802.987 543.26C801.467 543.26 800.307 542.76 799.287 541.68V546.74H797.027ZM802.767 541.18C804.787 541.18 806.327 539.58 806.327 537.52C806.327 535.36 804.787 533.78 802.707 533.78C800.687 533.78 799.147 535.4 799.147 537.52C799.147 539.58 800.727 541.18 802.767 541.18ZM811.506 546.74L813.486 542.18L809.366 531.96H811.926L814.726 539.66L817.746 531.96H820.306L813.946 546.74H811.506ZM829.878 539.5H832.438C831.398 541.96 829.498 543.26 826.978 543.26C823.678 543.26 821.058 540.7 821.058 537.48C821.058 534.24 823.618 531.7 826.898 531.7C829.478 531.7 831.558 533.14 832.438 535.54H829.878C829.238 534.38 828.238 533.78 826.898 533.78C824.838 533.78 823.338 535.34 823.338 537.48C823.338 539.58 824.898 541.18 826.958 541.18C828.198 541.18 829.058 540.68 829.878 539.5ZM836.435 540.94H838.755C839.855 540.94 840.515 540.38 840.515 539.48C840.515 538.58 839.855 538.02 838.755 538.02H836.435V540.94ZM834.175 543V531.96H836.435V535.96H838.995C841.195 535.96 842.815 537.46 842.815 539.48C842.815 541.5 841.195 543 838.995 543H834.175Z" fill="#F5F1EE"/>
<defs>
<linearGradient id="paint0_linear_924_2" x1="1078.08" y1="1019.38" x2="1116.22" y2="1091.1" gradientUnits="userSpaceOnUse">
<stop stop-color="#E31717"/>
<stop offset="1" stop-color="#FFB800"/>
</linearGradient>
<radialGradient id="paint1_radial_924_2" cx="0" cy="0" r="1" gradientUnits="userSpaceOnUse" gradientTransform="translate(1129.12 1052.99) rotate(-142.169) scale(47.0794 58.3156)">
<stop stop-color="#E31717" stop-opacity="0"/>
<stop offset="1" stop-color="#FFB800"/>
</radialGradient>
<radialGradient id="paint2_radial_924_2" cx="0" cy="0" r="1" gradientUnits="userSpaceOnUse" gradientTransform="translate(1142.24 1067.34) rotate(-143.176) scale(55.56 70.5912)">
<stop stop-color="#FFB800"/>
<stop offset="0.986758" stop-color="#E31717" stop-opacity="0"/>
</radialGradient>
<linearGradient id="paint3_linear_924_2" x1="1099.31" y1="817.425" x2="1117.25" y2="873.593" gradientUnits="userSpaceOnUse">
<stop stop-color="#E31717"/>
<stop offset="1" stop-color="#FFB800"/>
</linearGradient>
<radialGradient id="paint4_radial_924_2" cx="0" cy="0" r="1" gradientUnits="userSpaceOnUse" gradientTransform="translate(1156.47 840.037) rotate(-154.994) scale(45.954 45.0142)">
<stop stop-color="#E31717" stop-opacity="0"/>
<stop offset="1" stop-color="#FFB800"/>
</radialGradient>
<radialGradient id="paint5_radial_924_2" cx="0" cy="0" r="1" gradientUnits="userSpaceOnUse" gradientTransform="translate(1171.16 849.695) rotate(-155.785) scale(54.6174 54.1052)">
<stop stop-color="#FFB800"/>
<stop offset="0.986758" stop-color="#E31717" stop-opacity="0"/>
</radialGradient>
<linearGradient id="paint6_linear_924_2" x1="1275.17" y1="462.926" x2="1318.67" y2="530.124" gradientUnits="userSpaceOnUse">
<stop stop-color="#E31717"/>
<stop offset="1" stop-color="#FFB800"/>
</linearGradient>
<radialGradient id="paint7_radial_924_2" cx="0" cy="0" r="1" gradientUnits="userSpaceOnUse" gradientTransform="translate(1318.63 497.76) rotate(-136.613) scale(43.5647 55.6085)">
<stop stop-color="#E31717" stop-opacity="0"/>
<stop offset="1" stop-color="#FFB800"/>
</radialGradient>
<radialGradient id="paint8_radial_924_2" cx="0" cy="0" r="1" gradientUnits="userSpaceOnUse" gradientTransform="translate(1329.8 512.638) rotate(-137.655) scale(51.2342 67.5481)">
<stop stop-color="#FFB800"/>
<stop offset="0.986758" stop-color="#E31717" stop-opacity="0"/>
</radialGradient>
<linearGradient id="paint9_linear_924_2" x1="806.516" y1="683.601" x2="872.652" y2="777.589" gradientUnits="userSpaceOnUse">
<stop stop-color="#E31717"/>
<stop offset="1" stop-color="#FFB800"/>
</linearGradient>
<radialGradient id="paint10_radial_924_2" cx="0" cy="0" r="1" gradientUnits="userSpaceOnUse" gradientTransform="translate(865.431 734.935) rotate(-134.223) scale(61.5397 78.6485)">
<stop stop-color="#E31717" stop-opacity="0"/>
<stop offset="1" stop-color="#FFB800"/>
</radialGradient>
<radialGradient id="paint11_radial_924_2" cx="0" cy="0" r="1" gradientUnits="userSpaceOnUse" gradientTransform="translate(880.572 756.862) rotate(-135.268) scale(72.2638 95.6802)">
<stop stop-color="#FFB800"/>
<stop offset="0.986758" stop-color="#E31717" stop-opacity="0"/>
</radialGradient>
<linearGradient id="paint12_linear_924_2" x1="1226.02" y1="104.626" x2="1289.83" y2="207.097" gradientUnits="userSpaceOnUse">
<stop stop-color="#E31717"/>
<stop offset="1" stop-color="#FFB800"/>
</linearGradient>
<radialGradient id="paint13_radial_924_2" cx="0" cy="0" r="1" gradientUnits="userSpaceOnUse" gradientTransform="translate(1293.4 156.571) rotate(-137.723) scale(66.3374 84.4283)">
<stop stop-color="#E31717" stop-opacity="0"/>
<stop offset="1" stop-color="#FFB800"/>
</radialGradient>
<radialGradient id="paint14_radial_924_2" cx="0" cy="0" r="1" gradientUnits="userSpaceOnUse" gradientTransform="translate(1310.71 178.759) rotate(-138.761) scale(78.0707 102.484)">
<stop stop-color="#FFB800"/>
<stop offset="0.986758" stop-color="#E31717" stop-opacity="0"/>
</radialGradient>
<linearGradient id="paint15_linear_924_2" x1="1089.38" y1="280.626" x2="1135.54" y2="363.723" gradientUnits="userSpaceOnUse">
<stop stop-color="#E31717"/>
<stop offset="1" stop-color="#FFB800"/>
</linearGradient>
<radialGradient id="paint16_radial_924_2" cx="0" cy="0" r="1" gradientUnits="userSpaceOnUse" gradientTransform="translate(1147.13 320.349) rotate(-140.953) scale(54.1717 67.7675)">
<stop stop-color="#E31717" stop-opacity="0"/>
<stop offset="1" stop-color="#FFB800"/>
</radialGradient>
<radialGradient id="paint17_radial_924_2" cx="0" cy="0" r="1" gradientUnits="userSpaceOnUse" gradientTransform="translate(1161.97 337.316) rotate(-141.971) scale(63.8821 82.0941)">
<stop stop-color="#FFB800"/>
<stop offset="0.986758" stop-color="#E31717" stop-opacity="0"/>
</radialGradient>
<linearGradient id="paint18_linear_924_2" x1="801.21" y1="413.589" x2="864.485" y2="513.006" gradientUnits="userSpaceOnUse">
<stop stop-color="#E31717"/>
<stop offset="1" stop-color="#FFB800"/>
</linearGradient>
<radialGradient id="paint19_radial_924_2" cx="0" cy="0" r="1" gradientUnits="userSpaceOnUse" gradientTransform="translate(865.959 464.617) rotate(-137.097) scale(64.3965 82.1093)">
<stop stop-color="#E31717" stop-opacity="0"/>
<stop offset="1" stop-color="#FFB800"/>
</radialGradient>
<radialGradient id="paint20_radial_924_2" cx="0" cy="0" r="1" gradientUnits="userSpaceOnUse" gradientTransform="translate(882.599 486.413) rotate(-138.137) scale(75.7566 99.7083)">
<stop stop-color="#FFB800"/>
<stop offset="0.986758" stop-color="#E31717" stop-opacity="0"/>
</radialGradient>
<linearGradient id="paint21_linear_924_2" x1="635.501" y1="541.176" x2="709.685" y2="680.751" gradientUnits="userSpaceOnUse">
<stop stop-color="#E31717"/>
<stop offset="1" stop-color="#FFB800"/>
</linearGradient>
<radialGradient id="paint22_radial_924_2" cx="0" cy="0" r="1" gradientUnits="userSpaceOnUse" gradientTransform="translate(734.858 606.566) rotate(-142.185) scale(91.6254 113.476)">
<stop stop-color="#E31717" stop-opacity="0"/>
<stop offset="1" stop-color="#FFB800"/>
</radialGradient>
<radialGradient id="paint23_radial_924_2" cx="0" cy="0" r="1" gradientUnits="userSpaceOnUse" gradientTransform="translate(760.392 634.496) rotate(-143.193) scale(108.131 137.362)">
<stop stop-color="#FFB800"/>
<stop offset="0.986758" stop-color="#E31717" stop-opacity="0"/>
</radialGradient>
</defs>
</svg>
