<svg width="366" height="320" viewBox="0 0 366 320" fill="none" xmlns="http://www.w3.org/2000/svg">
<path d="M183 318.339C247.141 278.71 311.282 233.726 345.953 164.719C358.439 139.871 366.671 111.84 364.712 83.7477C362.754 55.6554 349.411 27.6243 326.583 13.3028C316.025 6.69286 303.937 3.17358 291.758 1.73531C250.507 -3.13034 207.573 17.281 183 52.7176" stroke="url(#paint0_linear_185_918)" stroke-width="0.612031" stroke-linecap="round" stroke-linejoin="round"/>
<path d="M183 318.339C247.141 278.71 311.282 233.726 345.953 164.719C358.439 139.871 366.671 111.84 364.712 83.7477C362.754 55.6554 349.411 27.6243 326.583 13.3028C316.025 6.69286 303.937 3.17358 291.758 1.73531C250.507 -3.13034 207.573 17.281 183 52.7176" stroke="url(#paint1_radial_185_918)" stroke-width="0.612031" stroke-linecap="round" stroke-linejoin="round"/>
<path d="M183 57.1861C203.105 22.3615 238.236 2.31763 271.989 7.06087C281.966 8.46854 291.85 11.9264 300.479 18.4446C319.146 32.5213 330.071 60.0933 331.693 87.6959C333.315 115.299 326.552 142.871 316.331 167.291C287.963 235.134 235.482 279.354 183 318.34" stroke="url(#paint2_linear_185_918)" stroke-width="0.612031" stroke-linecap="round" stroke-linejoin="round"/>
<path d="M183 57.1861C203.105 22.3615 238.236 2.31763 271.989 7.06087C281.966 8.46854 291.85 11.9264 300.479 18.4446C319.146 32.5213 330.071 60.0933 331.693 87.6959C333.315 115.299 326.552 142.871 316.331 167.291C287.963 235.134 235.482 279.354 183 318.34" stroke="url(#paint3_radial_185_918)" stroke-width="0.612031" stroke-linecap="round" stroke-linejoin="round"/>
<path d="M183 62.0826C198.637 27.9312 225.965 8.22379 252.221 12.9058C259.963 14.2829 267.675 17.6797 274.376 24.0755C288.912 37.9074 297.389 64.9285 298.643 92.0415C299.898 119.154 294.635 146.176 286.709 170.137C264.645 236.726 223.823 280.119 183 318.34" stroke="url(#paint4_linear_185_918)" stroke-width="0.612031" stroke-linecap="round" stroke-linejoin="round"/>
<path d="M183 62.0826C198.637 27.9312 225.965 8.22379 252.221 12.9058C259.963 14.2829 267.675 17.6797 274.376 24.0755C288.912 37.9074 297.389 64.9285 298.643 92.0415C299.898 119.154 294.635 146.176 286.709 170.137C264.645 236.726 223.823 280.119 183 318.34" stroke="url(#paint5_radial_185_918)" stroke-width="0.612031" stroke-linecap="round" stroke-linejoin="round"/>
<path d="M183 68.3841C194.17 35.059 213.693 15.8413 232.422 20.4315C237.96 21.778 243.469 25.0829 248.243 31.3257C258.617 44.821 264.676 71.1994 265.563 97.6086C266.45 124.048 262.717 150.396 257.025 173.807C241.265 238.743 212.102 281.065 182.969 318.368" stroke="url(#paint6_linear_185_918)" stroke-width="0.612031" stroke-linecap="round" stroke-linejoin="round"/>
<path d="M183 68.3841C194.17 35.059 213.693 15.8413 232.422 20.4315C237.96 21.778 243.469 25.0829 248.243 31.3257C258.617 44.821 264.676 71.1994 265.563 97.6086C266.45 124.048 262.717 150.396 257.025 173.807C241.265 238.743 212.102 281.065 182.969 318.368" stroke="url(#paint7_radial_185_918)" stroke-width="0.612031" stroke-linecap="round" stroke-linejoin="round"/>
<path d="M183 76.4329C189.702 44.1788 201.422 25.6037 212.653 30.0103C215.989 31.3262 219.263 34.5086 222.139 40.5371C228.352 53.604 231.993 79.1258 232.544 104.709C233.095 130.292 230.83 155.813 227.433 178.428C217.978 241.284 200.473 282.228 183 318.338" stroke="url(#paint8_linear_185_918)" stroke-width="0.612031" stroke-linecap="round" stroke-linejoin="round"/>
<path d="M183 76.4329C189.702 44.1788 201.422 25.6037 212.653 30.0103C215.989 31.3262 219.263 34.5086 222.139 40.5371C228.352 53.604 231.993 79.1258 232.544 104.709C233.095 130.292 230.83 155.813 227.433 178.428C217.978 241.284 200.473 282.228 183 318.338" stroke="url(#paint9_radial_185_918)" stroke-width="0.612031" stroke-linecap="round" stroke-linejoin="round"/>
<path d="M183 89.7454C185.234 59.2663 189.151 41.7009 192.884 45.8933C193.986 47.1174 195.088 50.1469 196.036 55.8388C198.117 68.1713 199.311 92.2855 199.494 116.461C199.678 140.636 198.913 164.75 197.781 186.14C194.629 245.538 188.784 284.249 182.969 318.339" stroke="url(#paint10_linear_185_918)" stroke-width="0.612031" stroke-linecap="round" stroke-linejoin="round"/>
<path d="M183 89.7454C185.234 59.2663 189.151 41.7009 192.884 45.8933C193.986 47.1174 195.088 50.1469 196.036 55.8388C198.117 68.1713 199.311 92.2855 199.494 116.461C199.678 140.636 198.913 164.75 197.781 186.14C194.629 245.538 188.784 284.249 182.969 318.339" stroke="url(#paint11_radial_185_918)" stroke-width="0.612031" stroke-linecap="round" stroke-linejoin="round"/>
<path d="M183 89.7454C180.766 59.2663 176.849 41.7009 173.116 45.8933C172.014 47.1174 170.912 50.1469 169.964 55.8388C167.883 68.1713 166.689 92.2855 166.506 116.461C166.322 140.636 167.087 164.75 168.219 186.14C171.371 245.538 177.216 284.249 183.031 318.339" stroke="url(#paint12_linear_185_918)" stroke-width="0.612031" stroke-linecap="round" stroke-linejoin="round"/>
<path d="M183 89.7454C180.766 59.2663 176.849 41.7009 173.116 45.8933C172.014 47.1174 170.912 50.1469 169.964 55.8388C167.883 68.1713 166.689 92.2855 166.506 116.461C166.322 140.636 167.087 164.75 168.219 186.14C171.371 245.538 177.216 284.249 183.031 318.339" stroke="url(#paint13_radial_185_918)" stroke-width="0.612031" stroke-linecap="round" stroke-linejoin="round"/>
<path d="M183 76.4329C176.298 44.1788 164.578 25.6037 153.347 30.0103C150.012 31.3262 146.737 34.5086 143.861 40.5371C137.648 53.604 134.007 79.1258 133.456 104.709C132.905 130.292 135.17 155.813 138.567 178.428C148.022 241.284 165.527 282.228 183 318.338" stroke="url(#paint14_linear_185_918)" stroke-width="0.612031" stroke-linecap="round" stroke-linejoin="round"/>
<path d="M183 76.4329C176.298 44.1788 164.578 25.6037 153.347 30.0103C150.012 31.3262 146.737 34.5086 143.861 40.5371C137.648 53.604 134.007 79.1258 133.456 104.709C132.905 130.292 135.17 155.813 138.567 178.428C148.022 241.284 165.527 282.228 183 318.338" stroke="url(#paint15_radial_185_918)" stroke-width="0.612031" stroke-linecap="round" stroke-linejoin="round"/>
<path d="M183 68.3841C171.83 35.059 152.307 15.8413 133.578 20.4315C128.04 21.778 122.531 25.0829 117.757 31.3257C107.383 44.821 101.324 71.1994 100.437 97.6086C99.5495 124.048 103.283 150.396 108.975 173.807C124.735 238.743 153.898 281.065 183.031 318.368" stroke="url(#paint16_linear_185_918)" stroke-width="0.612031" stroke-linecap="round" stroke-linejoin="round"/>
<path d="M183 68.3841C171.83 35.059 152.307 15.8413 133.578 20.4315C128.04 21.778 122.531 25.0829 117.757 31.3257C107.383 44.821 101.324 71.1994 100.437 97.6086C99.5495 124.048 103.283 150.396 108.975 173.807C124.735 238.743 153.898 281.065 183.031 318.368" stroke="url(#paint17_radial_185_918)" stroke-width="0.612031" stroke-linecap="round" stroke-linejoin="round"/>
<path d="M183 62.0826C167.363 27.9312 140.035 8.22379 113.779 12.9058C106.037 14.2829 98.3254 17.6797 91.6237 24.0755C77.0879 37.9074 68.6113 64.9285 67.3566 92.0415C66.102 119.154 71.3654 146.176 79.2912 170.137C101.355 236.726 142.178 280.119 183 318.34" stroke="url(#paint18_linear_185_918)" stroke-width="0.612031" stroke-linecap="round" stroke-linejoin="round"/>
<path d="M183 62.0826C167.363 27.9312 140.035 8.22379 113.779 12.9058C106.037 14.2829 98.3254 17.6797 91.6237 24.0755C77.0879 37.9074 68.6113 64.9285 67.3566 92.0415C66.102 119.154 71.3654 146.176 79.2912 170.137C101.355 236.726 142.178 280.119 183 318.34" stroke="url(#paint19_radial_185_918)" stroke-width="0.612031" stroke-linecap="round" stroke-linejoin="round"/>
<path d="M183 57.1861C162.895 22.3615 127.764 2.31763 94.0106 7.06087C84.0345 8.46854 74.1502 11.9264 65.5205 18.4446C46.8536 32.5213 35.9289 60.0933 34.307 87.6959C32.6851 115.299 39.448 142.871 49.6689 167.291C78.0366 235.134 130.518 279.354 183 318.34" stroke="url(#paint20_linear_185_918)" stroke-width="0.612031" stroke-linecap="round" stroke-linejoin="round"/>
<path d="M183 57.1861C162.895 22.3615 127.764 2.31763 94.0106 7.06087C84.0345 8.46854 74.1502 11.9264 65.5205 18.4446C46.8536 32.5213 35.9289 60.0933 34.307 87.6959C32.6851 115.299 39.448 142.871 49.6689 167.291C78.0366 235.134 130.518 279.354 183 318.34" stroke="url(#paint21_radial_185_918)" stroke-width="0.612031" stroke-linecap="round" stroke-linejoin="round"/>
<path d="M183 52.6859C158.427 17.2799 115.493 -3.13128 74.242 1.70377C62.0625 3.14204 49.9749 6.66112 39.4173 13.2711C16.5886 27.5926 3.24631 55.6237 1.28781 83.716C-0.670692 111.808 7.56115 139.839 20.0466 164.688C54.7182 233.694 118.859 278.679 183 318.308" stroke="url(#paint22_linear_185_918)" stroke-width="0.612031" stroke-linecap="round" stroke-linejoin="round"/>
<path d="M183 52.6859C158.427 17.2799 115.493 -3.13128 74.242 1.70377C62.0625 3.14204 49.9749 6.66112 39.4173 13.2711C16.5886 27.5926 3.24631 55.6237 1.28781 83.716C-0.670692 111.808 7.56115 139.839 20.0466 164.688C54.7182 233.694 118.859 278.679 183 318.308" stroke="url(#paint23_radial_185_918)" stroke-width="0.612031" stroke-linecap="round" stroke-linejoin="round"/>
<path d="M1.10423 96.6934C1.99168 120.379 9.48907 143.697 20.0466 164.721C54.7182 233.727 118.859 278.712 183 318.341C247.141 278.712 311.282 233.727 345.953 164.721C356.511 143.697 364.008 120.379 364.896 96.6934" stroke="url(#paint24_linear_185_918)" stroke-width="0.612031" stroke-linecap="round" stroke-linejoin="round"/>
<path d="M1.10423 96.6934C1.99168 120.379 9.48907 143.697 20.0466 164.721C54.7182 233.727 118.859 278.712 183 318.341C247.141 278.712 311.282 233.727 345.953 164.721C356.511 143.697 364.008 120.379 364.896 96.6934" stroke="url(#paint25_radial_185_918)" stroke-width="0.612031" stroke-linecap="round" stroke-linejoin="round"/>
<path d="M364.896 96.6934C364.743 100.488 364.345 104.283 363.672 108.047C361.101 122.215 354.858 135.986 346.504 148.838C340.537 157.988 333.56 166.71 325.726 175.186C317.157 184.489 307.61 193.517 297.48 202.299C263.176 231.952 221.956 258.576 183 285.168C144.075 258.576 102.824 231.952 68.5501 202.33C58.421 193.578 48.8733 184.52 40.3049 175.217C32.5014 166.74 25.5243 158.019 19.5264 148.869C11.1721 136.016 4.89885 122.276 2.35892 108.077C1.68568 104.313 1.25728 100.519 1.13487 96.724" stroke="url(#paint26_linear_185_918)" stroke-width="0.612031" stroke-linecap="round" stroke-linejoin="round"/>
<path d="M364.896 96.6934C364.743 100.488 364.345 104.283 363.672 108.047C361.101 122.215 354.858 135.986 346.504 148.838C340.537 157.988 333.56 166.71 325.726 175.186C317.157 184.489 307.61 193.517 297.48 202.299C263.176 231.952 221.956 258.576 183 285.168C144.075 258.576 102.824 231.952 68.5501 202.33C58.421 193.578 48.8733 184.52 40.3049 175.217C32.5014 166.74 25.5243 158.019 19.5264 148.869C11.1721 136.016 4.89885 122.276 2.35892 108.077C1.68568 104.313 1.25728 100.519 1.13487 96.724" stroke="url(#paint27_radial_185_918)" stroke-width="0.612031" stroke-linecap="round" stroke-linejoin="round"/>
<path d="M364.896 96.6934C364.804 99.3251 364.437 101.957 363.825 104.589C361.469 114.412 355.409 123.867 347.024 132.956C341.026 139.413 333.927 145.656 325.848 152.082C316.974 159.12 307.089 166.373 296.654 173.656C261.371 198.382 219.875 224.118 183 251.966C146.125 224.118 104.629 198.382 69.3457 173.656C58.9106 166.342 49.0263 159.09 40.1519 152.082C32.0731 145.686 24.9735 139.413 18.9755 132.956C10.5907 123.898 4.53163 114.412 2.17531 104.589C1.56328 101.987 1.19604 99.3557 1.10423 96.724" stroke="url(#paint28_linear_185_918)" stroke-width="0.612031" stroke-linecap="round" stroke-linejoin="round"/>
<path d="M364.896 96.6934C364.804 99.3251 364.437 101.957 363.825 104.589C361.469 114.412 355.409 123.867 347.024 132.956C341.026 139.413 333.927 145.656 325.848 152.082C316.974 159.12 307.089 166.373 296.654 173.656C261.371 198.382 219.875 224.118 183 251.966C146.125 224.118 104.629 198.382 69.3457 173.656C58.9106 166.342 49.0263 159.09 40.1519 152.082C32.0731 145.686 24.9735 139.413 18.9755 132.956C10.5907 123.898 4.53163 114.412 2.17531 104.589C1.56328 101.987 1.19604 99.3557 1.10423 96.724" stroke="url(#paint29_radial_185_918)" stroke-width="0.612031" stroke-linecap="round" stroke-linejoin="round"/>
<path d="M364.896 96.6937C364.835 98.1932 364.529 99.6621 363.947 101.1C361.805 106.578 355.93 111.78 347.514 117.044C341.516 120.808 334.264 124.602 325.94 128.917C316.79 133.66 306.539 139.138 295.797 144.983C259.504 164.782 217.794 189.631 182.969 218.733C148.145 189.631 106.435 164.782 70.1414 144.983C59.4308 139.138 49.1487 133.691 40.0294 128.917C31.7058 124.572 24.4533 120.777 18.4554 117.013C10.0399 111.75 4.19495 106.547 2.02223 101.07C1.4408 99.6314 1.1348 98.1626 1.07359 96.6631" stroke="url(#paint30_linear_185_918)" stroke-width="0.612031" stroke-linecap="round" stroke-linejoin="round"/>
<path d="M364.896 96.6937C364.835 98.1932 364.529 99.6621 363.947 101.1C361.805 106.578 355.93 111.78 347.514 117.044C341.516 120.808 334.264 124.602 325.94 128.917C316.79 133.66 306.539 139.138 295.797 144.983C259.504 164.782 217.794 189.631 182.969 218.733C148.145 189.631 106.435 164.782 70.1414 144.983C59.4308 139.138 49.1487 133.691 40.0294 128.917C31.7058 124.572 24.4533 120.777 18.4554 117.013C10.0399 111.75 4.19495 106.547 2.02223 101.07C1.4408 99.6314 1.1348 98.1626 1.07359 96.6631" stroke="url(#paint31_radial_185_918)" stroke-width="0.612031" stroke-linecap="round" stroke-linejoin="round"/>
<path d="M364.896 96.6934C364.896 97.03 364.62 97.336 364.1 97.642C362.142 98.7437 356.45 99.6924 348.065 101.161C342.036 102.202 334.661 103.548 326.093 105.813C316.668 108.291 306.049 111.963 295.032 116.34C257.76 131.212 215.805 155.173 183 185.53C150.226 155.173 108.271 131.212 70.9676 116.34C59.951 111.933 49.3323 108.291 39.907 105.813C31.3386 103.548 23.9636 102.202 17.9351 101.161C9.55027 99.6924 3.8278 98.7743 1.8999 97.642C1.37968 97.336 1.13483 97.03 1.10423 96.6934" stroke="url(#paint32_linear_185_918)" stroke-width="0.612031" stroke-linecap="round" stroke-linejoin="round"/>
<path d="M364.896 96.6934C364.896 97.03 364.62 97.336 364.1 97.642C362.142 98.7437 356.45 99.6924 348.065 101.161C342.036 102.202 334.661 103.548 326.093 105.813C316.668 108.291 306.049 111.963 295.032 116.34C257.76 131.212 215.805 155.173 183 185.53C150.226 155.173 108.271 131.212 70.9676 116.34C59.951 111.933 49.3323 108.291 39.907 105.813C31.3386 103.548 23.9636 102.202 17.9351 101.161C9.55027 99.6924 3.8278 98.7743 1.8999 97.642C1.37968 97.336 1.13483 97.03 1.10423 96.6934" stroke="url(#paint33_radial_185_918)" stroke-width="0.612031" stroke-linecap="round" stroke-linejoin="round"/>
<path d="M364.896 96.691C364.926 95.8647 364.712 95.0078 364.253 94.151C362.509 90.9072 356.97 87.5411 348.585 85.246C342.526 83.5935 335.029 82.4612 326.215 82.6754C316.515 82.8896 305.498 84.7564 294.206 87.6941C255.924 97.6396 213.724 120.713 183 152.325C152.276 120.683 110.076 97.609 71.7939 87.6941C60.5019 84.7564 49.4853 82.8896 39.7846 82.6754C30.9714 82.4918 23.4434 83.5935 17.3843 85.246C8.99944 87.5411 3.46057 90.9072 1.71628 94.151C1.25725 95.0078 1.04298 95.8647 1.07358 96.691" stroke="url(#paint34_linear_185_918)" stroke-width="0.612031" stroke-linecap="round" stroke-linejoin="round"/>
<path d="M364.896 96.691C364.926 95.8647 364.712 95.0078 364.253 94.151C362.509 90.9072 356.97 87.5411 348.585 85.246C342.526 83.5935 335.029 82.4612 326.215 82.6754C316.515 82.8896 305.498 84.7564 294.206 87.6941C255.924 97.6396 213.724 120.713 183 152.325C152.276 120.683 110.076 97.609 71.7939 87.6941C60.5019 84.7564 49.4853 82.8896 39.7846 82.6754C30.9714 82.4918 23.4434 83.5935 17.3843 85.246C8.99944 87.5411 3.46057 90.9072 1.71628 94.151C1.25725 95.0078 1.04298 95.8647 1.07358 96.691" stroke="url(#paint35_radial_185_918)" stroke-width="0.612031" stroke-linecap="round" stroke-linejoin="round"/>
<path d="M364.896 96.6908C364.957 94.7017 364.835 92.7125 364.406 90.6928C362.845 83.1036 357.49 75.4227 349.105 69.3636C343.016 64.9876 335.396 61.4378 326.307 59.5405C316.331 57.4596 304.947 57.5514 293.349 59.0203C254.088 64.0389 211.643 86.2251 182.969 119.091C154.296 86.1945 111.851 64.0083 72.5895 59.0203C60.9915 57.5514 49.6384 57.4596 39.6316 59.5405C30.543 61.4072 22.9232 64.957 16.8335 69.3636C8.44869 75.4227 3.09342 83.1036 1.53274 90.6928C1.13492 92.7125 0.981898 94.7017 1.0431 96.6908" stroke="url(#paint36_linear_185_918)" stroke-width="0.612031" stroke-linecap="round" stroke-linejoin="round"/>
<path d="M364.896 96.6908C364.957 94.7017 364.835 92.7125 364.406 90.6928C362.845 83.1036 357.49 75.4227 349.105 69.3636C343.016 64.9876 335.396 61.4378 326.307 59.5405C316.331 57.4596 304.947 57.5514 293.349 59.0203C254.088 64.0389 211.643 86.2251 182.969 119.091C154.296 86.1945 111.851 64.0083 72.5895 59.0203C60.9915 57.5514 49.6384 57.4596 39.6316 59.5405C30.543 61.4072 22.9232 64.957 16.8335 69.3636C8.44869 75.4227 3.09342 83.1036 1.53274 90.6928C1.13492 92.7125 0.981898 94.7017 1.0431 96.6908" stroke="url(#paint37_radial_185_918)" stroke-width="0.612031" stroke-linecap="round" stroke-linejoin="round"/>
<path d="M364.896 96.6907C365.018 93.5388 364.896 90.3867 364.559 87.2348C363.213 75.3002 358.072 63.3044 349.626 53.4813C343.536 46.3512 335.763 40.3838 326.43 36.4362C316.147 32.0908 304.427 30.377 292.554 30.4076C252.282 30.4688 209.623 51.7982 182.969 85.9496C156.346 51.7982 113.657 30.4995 73.3852 30.4383C61.5118 30.4383 49.7607 32.1215 39.5092 36.4975C30.1757 40.4451 22.403 46.4122 16.3132 53.5424C7.89781 63.3655 2.72616 75.3308 1.41029 87.296C1.04307 90.448 0.95122 93.6306 1.07363 96.752" stroke="url(#paint38_linear_185_918)" stroke-width="0.612031" stroke-linecap="round" stroke-linejoin="round"/>
<path d="M364.896 96.6907C365.018 93.5388 364.896 90.3867 364.559 87.2348C363.213 75.3002 358.072 63.3044 349.626 53.4813C343.536 46.3512 335.763 40.3838 326.43 36.4362C316.147 32.0908 304.427 30.377 292.554 30.4076C252.282 30.4688 209.623 51.7982 182.969 85.9496C156.346 51.7982 113.657 30.4995 73.3852 30.4383C61.5118 30.4383 49.7607 32.1215 39.5092 36.4975C30.1757 40.4451 22.403 46.4122 16.3132 53.5424C7.89781 63.3655 2.72616 75.3308 1.41029 87.296C1.04307 90.448 0.95122 93.6306 1.07363 96.752" stroke="url(#paint39_radial_185_918)" stroke-width="0.612031" stroke-linecap="round" stroke-linejoin="round"/>
<path d="M364.896 96.6921C365.049 92.3773 365.018 88.0625 364.712 83.7477C362.754 55.6554 349.411 27.6243 326.583 13.3028C316.025 6.69285 303.937 3.17358 291.758 1.73531C250.507 -3.13034 207.573 17.281 183 52.7176C158.427 17.3116 115.493 -3.09974 74.242 1.73531C62.0626 3.17358 49.9749 6.69285 39.4174 13.3028C16.5886 27.6243 3.24635 55.6554 1.28785 83.7477C0.98183 88.0625 0.951236 92.3773 1.10424 96.6921" stroke="url(#paint40_linear_185_918)" stroke-width="0.612031" stroke-linecap="round" stroke-linejoin="round"/>
<path d="M364.896 96.6921C365.049 92.3773 365.018 88.0625 364.712 83.7477C362.754 55.6554 349.411 27.6243 326.583 13.3028C316.025 6.69285 303.937 3.17358 291.758 1.73531C250.507 -3.13034 207.573 17.281 183 52.7176C158.427 17.3116 115.493 -3.09974 74.242 1.73531C62.0626 3.17358 49.9749 6.69285 39.4174 13.3028C16.5886 27.6243 3.24635 55.6554 1.28785 83.7477C0.98183 88.0625 0.951236 92.3773 1.10424 96.6921" stroke="url(#paint41_radial_185_918)" stroke-width="0.612031" stroke-linecap="round" stroke-linejoin="round"/>
<path d="M183 89.7451V318.339" stroke="url(#paint42_linear_185_918)" stroke-width="0.612031" stroke-linecap="round" stroke-linejoin="round"/>
<path d="M183 89.7451V318.339" stroke="url(#paint43_radial_185_918)" stroke-width="0.612031" stroke-linecap="round" stroke-linejoin="round"/>
<path d="M183 318.341C118.859 278.712 54.7182 233.728 20.0466 164.721C7.56115 139.873 -0.670692 111.842 1.28781 83.7496C3.24631 55.6574 16.5886 27.6263 39.4173 13.3047C49.9749 6.69481 62.0625 3.17554 74.242 1.73726C115.493 -3.12839 158.427 17.283 183 52.7196C207.573 17.3136 250.507 -3.09779 291.758 1.73726C303.937 3.17554 316.025 6.69481 326.583 13.3047C349.411 27.6263 362.754 55.6574 364.712 83.7496C366.671 111.842 358.439 139.873 345.953 164.721C311.282 233.728 247.141 278.712 183 318.341Z" stroke="url(#paint44_linear_185_918)" stroke-width="1.53008" stroke-linecap="round" stroke-linejoin="round"/>
<path d="M183 318.341C118.859 278.712 54.7182 233.728 20.0466 164.721C7.56115 139.873 -0.670692 111.842 1.28781 83.7496C3.24631 55.6574 16.5886 27.6263 39.4173 13.3047C49.9749 6.69481 62.0625 3.17554 74.242 1.73726C115.493 -3.12839 158.427 17.283 183 52.7196C207.573 17.3136 250.507 -3.09779 291.758 1.73726C303.937 3.17554 316.025 6.69481 326.583 13.3047C349.411 27.6263 362.754 55.6574 364.712 83.7496C366.671 111.842 358.439 139.873 345.953 164.721C311.282 233.728 247.141 278.712 183 318.341Z" stroke="url(#paint45_radial_185_918)" stroke-width="1.53008" stroke-linecap="round" stroke-linejoin="round"/>
<defs>
<linearGradient id="paint0_linear_185_918" x1="195.642" y1="8.96023" x2="442.199" y2="176.103" gradientUnits="userSpaceOnUse">
<stop stop-color="#E31717"/>
<stop offset="1" stop-color="#FFB800"/>
</linearGradient>
<radialGradient id="paint1_radial_185_918" cx="0" cy="0" r="1" gradientUnits="userSpaceOnUse" gradientTransform="translate(329.09 285.707) rotate(-115.711) scale(213.234 220.724)">
<stop stop-color="#FFB800"/>
<stop offset="0.986758" stop-color="#E31717" stop-opacity="0"/>
</radialGradient>
<linearGradient id="paint2_linear_185_918" x1="193.345" y1="14.1741" x2="416.712" y2="140.209" gradientUnits="userSpaceOnUse">
<stop stop-color="#E31717"/>
<stop offset="1" stop-color="#FFB800"/>
</linearGradient>
<radialGradient id="paint3_radial_185_918" cx="0" cy="0" r="1" gradientUnits="userSpaceOnUse" gradientTransform="translate(302.547 286.258) rotate(-111.84) scale(203.49 186.081)">
<stop stop-color="#FFB800"/>
<stop offset="0.986758" stop-color="#E31717" stop-opacity="0"/>
</radialGradient>
<linearGradient id="paint4_linear_185_918" x1="191.045" y1="19.8794" x2="381.899" y2="105.232" gradientUnits="userSpaceOnUse">
<stop stop-color="#E31717"/>
<stop offset="1" stop-color="#FFB800"/>
</linearGradient>
<radialGradient id="paint5_radial_185_918" cx="0" cy="0" r="1" gradientUnits="userSpaceOnUse" gradientTransform="translate(275.974 286.86) rotate(-107.622) scale(194.468 148.592)">
<stop stop-color="#FFB800"/>
<stop offset="0.986758" stop-color="#E31717" stop-opacity="0"/>
</radialGradient>
<linearGradient id="paint6_linear_185_918" x1="188.715" y1="27.2277" x2="336.445" y2="75.5988" gradientUnits="userSpaceOnUse">
<stop stop-color="#E31717"/>
<stop offset="1" stop-color="#FFB800"/>
</linearGradient>
<radialGradient id="paint7_radial_185_918" cx="0" cy="0" r="1" gradientUnits="userSpaceOnUse" gradientTransform="translate(249.371 287.66) rotate(-103.092) scale(185.622 108.455)">
<stop stop-color="#FFB800"/>
<stop offset="0.986758" stop-color="#E31717" stop-opacity="0"/>
</radialGradient>
<linearGradient id="paint8_linear_185_918" x1="186.447" y1="36.596" x2="280.689" y2="55.7252" gradientUnits="userSpaceOnUse">
<stop stop-color="#E31717"/>
<stop offset="1" stop-color="#FFB800"/>
</linearGradient>
<radialGradient id="paint9_radial_185_918" cx="0" cy="0" r="1" gradientUnits="userSpaceOnUse" gradientTransform="translate(222.835 288.621) rotate(-98.2039) scale(176.769 66.1152)">
<stop stop-color="#FFB800"/>
<stop offset="0.986758" stop-color="#E31717" stop-opacity="0"/>
</radialGradient>
<linearGradient id="paint10_linear_185_918" x1="184.119" y1="52.1091" x2="216.68" y2="54.442" gradientUnits="userSpaceOnUse">
<stop stop-color="#E31717"/>
<stop offset="1" stop-color="#FFB800"/>
</linearGradient>
<radialGradient id="paint11_radial_185_918" cx="0" cy="0" r="1" gradientUnits="userSpaceOnUse" gradientTransform="translate(196.256 290.258) rotate(-92.9131) scale(165.541 22.2508)">
<stop stop-color="#FFB800"/>
<stop offset="0.986758" stop-color="#E31717" stop-opacity="0"/>
</radialGradient>
<linearGradient id="paint12_linear_185_918" x1="167.628" y1="52.1091" x2="200.189" y2="54.442" gradientUnits="userSpaceOnUse">
<stop stop-color="#E31717"/>
<stop offset="1" stop-color="#FFB800"/>
</linearGradient>
<radialGradient id="paint13_radial_185_918" cx="0" cy="0" r="1" gradientUnits="userSpaceOnUse" gradientTransform="translate(179.765 290.258) rotate(-92.9131) scale(165.541 22.2509)">
<stop stop-color="#FFB800"/>
<stop offset="0.986758" stop-color="#E31717" stop-opacity="0"/>
</radialGradient>
<linearGradient id="paint14_linear_185_918" x1="136.821" y1="36.596" x2="231.063" y2="55.7252" gradientUnits="userSpaceOnUse">
<stop stop-color="#E31717"/>
<stop offset="1" stop-color="#FFB800"/>
</linearGradient>
<radialGradient id="paint15_radial_185_918" cx="0" cy="0" r="1" gradientUnits="userSpaceOnUse" gradientTransform="translate(173.208 288.621) rotate(-98.2039) scale(176.769 66.1152)">
<stop stop-color="#FFB800"/>
<stop offset="0.986758" stop-color="#E31717" stop-opacity="0"/>
</radialGradient>
<linearGradient id="paint16_linear_185_918" x1="106.053" y1="27.2277" x2="253.783" y2="75.599" gradientUnits="userSpaceOnUse">
<stop stop-color="#E31717"/>
<stop offset="1" stop-color="#FFB800"/>
</linearGradient>
<radialGradient id="paint17_radial_185_918" cx="0" cy="0" r="1" gradientUnits="userSpaceOnUse" gradientTransform="translate(166.708 287.66) rotate(-103.092) scale(185.622 108.455)">
<stop stop-color="#FFB800"/>
<stop offset="0.986758" stop-color="#E31717" stop-opacity="0"/>
</radialGradient>
<linearGradient id="paint18_linear_185_918" x1="75.2174" y1="19.8794" x2="266.071" y2="105.232" gradientUnits="userSpaceOnUse">
<stop stop-color="#E31717"/>
<stop offset="1" stop-color="#FFB800"/>
</linearGradient>
<radialGradient id="paint19_radial_185_918" cx="0" cy="0" r="1" gradientUnits="userSpaceOnUse" gradientTransform="translate(160.146 286.86) rotate(-107.622) scale(194.468 148.592)">
<stop stop-color="#FFB800"/>
<stop offset="0.986758" stop-color="#E31717" stop-opacity="0"/>
</radialGradient>
<linearGradient id="paint20_linear_185_918" x1="44.412" y1="14.1741" x2="267.779" y2="140.209" gradientUnits="userSpaceOnUse">
<stop stop-color="#E31717"/>
<stop offset="1" stop-color="#FFB800"/>
</linearGradient>
<radialGradient id="paint21_radial_185_918" cx="0" cy="0" r="1" gradientUnits="userSpaceOnUse" gradientTransform="translate(153.614 286.258) rotate(-111.84) scale(203.49 186.081)">
<stop stop-color="#FFB800"/>
<stop offset="0.986758" stop-color="#E31717" stop-opacity="0"/>
</radialGradient>
<linearGradient id="paint22_linear_185_918" x1="13.6418" y1="8.93659" x2="260.195" y2="176.081" gradientUnits="userSpaceOnUse">
<stop stop-color="#E31717"/>
<stop offset="1" stop-color="#FFB800"/>
</linearGradient>
<radialGradient id="paint23_radial_185_918" cx="0" cy="0" r="1" gradientUnits="userSpaceOnUse" gradientTransform="translate(147.09 285.676) rotate(-115.712) scale(213.229 220.723)">
<stop stop-color="#FFB800"/>
<stop offset="0.986758" stop-color="#E31717" stop-opacity="0"/>
</radialGradient>
<linearGradient id="paint24_linear_185_918" x1="26.3733" y1="102.237" x2="177.388" y2="395.191" gradientUnits="userSpaceOnUse">
<stop stop-color="#E31717"/>
<stop offset="1" stop-color="#FFB800"/>
</linearGradient>
<radialGradient id="paint25_radial_185_918" cx="0" cy="0" r="1" gradientUnits="userSpaceOnUse" gradientTransform="translate(293.116 295.547) rotate(-144.029) scale(228.475 287.62)">
<stop stop-color="#FFB800"/>
<stop offset="0.986758" stop-color="#E31717" stop-opacity="0"/>
</radialGradient>
<linearGradient id="paint26_linear_185_918" x1="26.4019" y1="101.408" x2="142.343" y2="365.887" gradientUnits="userSpaceOnUse">
<stop stop-color="#E31717"/>
<stop offset="1" stop-color="#FFB800"/>
</linearGradient>
<radialGradient id="paint27_radial_185_918" cx="0" cy="0" r="1" gradientUnits="userSpaceOnUse" gradientTransform="translate(293.122 265.786) rotate(-148.318) scale(217.273 257.161)">
<stop stop-color="#FFB800"/>
<stop offset="0.986758" stop-color="#E31717" stop-opacity="0"/>
</radialGradient>
<linearGradient id="paint28_linear_185_918" x1="26.3733" y1="100.577" x2="109.356" y2="330.37" gradientUnits="userSpaceOnUse">
<stop stop-color="#E31717"/>
<stop offset="1" stop-color="#FFB800"/>
</linearGradient>
<radialGradient id="paint29_radial_185_918" cx="0" cy="0" r="1" gradientUnits="userSpaceOnUse" gradientTransform="translate(293.116 235.998) rotate(-153.05) scale(207.436 221.925)">
<stop stop-color="#FFB800"/>
<stop offset="0.986758" stop-color="#E31717" stop-opacity="0"/>
</radialGradient>
<linearGradient id="paint30_linear_185_918" x1="26.3448" y1="99.7163" x2="79.9929" y2="288.701" gradientUnits="userSpaceOnUse">
<stop stop-color="#E31717"/>
<stop offset="1" stop-color="#FFB800"/>
</linearGradient>
<radialGradient id="paint31_radial_185_918" cx="0" cy="0" r="1" gradientUnits="userSpaceOnUse" gradientTransform="translate(293.11 206.179) rotate(-158.215) scale(199.147 181.746)">
<stop stop-color="#FFB800"/>
<stop offset="0.986758" stop-color="#E31717" stop-opacity="0"/>
</radialGradient>
<linearGradient id="paint32_linear_185_918" x1="26.3733" y1="98.9154" x2="55.8217" y2="241.448" gradientUnits="userSpaceOnUse">
<stop stop-color="#E31717"/>
<stop offset="1" stop-color="#FFB800"/>
</linearGradient>
<radialGradient id="paint33_radial_185_918" cx="0" cy="0" r="1" gradientUnits="userSpaceOnUse" gradientTransform="translate(293.116 176.394) rotate(-163.781) scale(192.573 136.77)">
<stop stop-color="#FFB800"/>
<stop offset="0.986758" stop-color="#E31717" stop-opacity="0"/>
</radialGradient>
<linearGradient id="paint34_linear_185_918" x1="26.3423" y1="84.3922" x2="44.7455" y2="197.972" gradientUnits="userSpaceOnUse">
<stop stop-color="#E31717"/>
<stop offset="1" stop-color="#FFB800"/>
</linearGradient>
<radialGradient id="paint35_radial_185_918" cx="0" cy="0" r="1" gradientUnits="userSpaceOnUse" gradientTransform="translate(293.112 145.159) rotate(-167.15) scale(189.678 108.918)">
<stop stop-color="#FFB800"/>
<stop offset="0.986758" stop-color="#E31717" stop-opacity="0"/>
</radialGradient>
<linearGradient id="paint36_linear_185_918" x1="26.3054" y1="59.4738" x2="40.5609" y2="159.741" gradientUnits="userSpaceOnUse">
<stop stop-color="#E31717"/>
<stop offset="1" stop-color="#FFB800"/>
</linearGradient>
<radialGradient id="paint37_radial_185_918" cx="0" cy="0" r="1" gradientUnits="userSpaceOnUse" gradientTransform="translate(293.113 112.803) rotate(-168.681) scale(188.623 96.1347)">
<stop stop-color="#FFB800"/>
<stop offset="0.986758" stop-color="#E31717" stop-opacity="0"/>
</radialGradient>
<linearGradient id="paint38_linear_185_918" x1="26.3005" y1="32.0667" x2="43.0223" y2="140.477" gradientUnits="userSpaceOnUse">
<stop stop-color="#E31717"/>
<stop offset="1" stop-color="#FFB800"/>
</linearGradient>
<radialGradient id="paint39_radial_185_918" cx="0" cy="0" r="1" gradientUnits="userSpaceOnUse" gradientTransform="translate(293.137 89.9293) rotate(-167.748) scale(189.285 103.953)">
<stop stop-color="#FFB800"/>
<stop offset="0.986758" stop-color="#E31717" stop-opacity="0"/>
</radialGradient>
<linearGradient id="paint40_linear_185_918" x1="26.296" y1="3.41633" x2="60.2112" y2="155.921" gradientUnits="userSpaceOnUse">
<stop stop-color="#E31717"/>
<stop offset="1" stop-color="#FFB800"/>
</linearGradient>
<radialGradient id="paint41_radial_185_918" cx="0" cy="0" r="1" gradientUnits="userSpaceOnUse" gradientTransform="translate(293.17 86.8538) rotate(-162.615) scale(193.856 146.386)">
<stop stop-color="#FFB800"/>
<stop offset="0.986758" stop-color="#E31717" stop-opacity="0"/>
</radialGradient>
<linearGradient id="paint42_linear_185_918" x1="183.069" y1="95.4628" x2="185.047" y2="95.473" gradientUnits="userSpaceOnUse">
<stop stop-color="#E31717"/>
<stop offset="1" stop-color="#FFB800"/>
</linearGradient>
<radialGradient id="paint43_radial_185_918" cx="0" cy="0" r="1" gradientUnits="userSpaceOnUse" gradientTransform="translate(183.803 294.831) rotate(-90.2104) scale(138.406 1.34602)">
<stop stop-color="#FFB800"/>
<stop offset="0.986758" stop-color="#E31717" stop-opacity="0"/>
</radialGradient>
<linearGradient id="paint44_linear_185_918" x1="26.2836" y1="8.96219" x2="279.867" y2="352.774" gradientUnits="userSpaceOnUse">
<stop stop-color="#E31717"/>
<stop offset="1" stop-color="#FFB800"/>
</linearGradient>
<radialGradient id="paint45_radial_185_918" cx="0" cy="0" r="1" gradientUnits="userSpaceOnUse" gradientTransform="translate(293.179 285.709) rotate(-133.92) scale(266.724 352.918)">
<stop stop-color="#FFB800"/>
<stop offset="0.986758" stop-color="#E31717" stop-opacity="0"/>
</radialGradient>
</defs>
</svg>
