<svg width="134" height="38" viewBox="0 0 134 38" fill="none" xmlns="http://www.w3.org/2000/svg">
<path d="M19.3325 29.691L17.6415 6.5538C17.5998 5.98354 17.8549 5.43206 18.3164 5.09458L24.3001 0.719409C24.8855 0.291408 25.681 0.293462 26.2642 0.724477L32.1846 5.10043C32.6373 5.43501 32.8892 5.9764 32.8538 6.53818L31.3938 29.6671C31.3576 30.2405 31.0272 30.7543 30.5204 31.025L26.0762 33.3993C25.582 33.6633 24.9879 33.6599 24.4968 33.3901L20.1879 31.0233C19.6954 30.7528 19.3735 30.2513 19.3325 29.691Z" fill="#FF4E27"/>
<path d="M12.4382 12.5395L14.3889 29.5571C14.4613 30.1885 14.1663 30.8057 13.6296 31.146L6.27239 35.8116C5.31125 36.4211 4.03583 35.9032 3.77176 34.7961L0.248281 20.0246C0.0971336 19.3909 0.331062 18.7275 0.84622 18.3288L9.77628 11.4172C10.7978 10.6265 12.2911 11.2561 12.4382 12.5395Z" fill="#FF4E27"/>
<path d="M38.2956 12.5395L36.3449 29.5571C36.2726 30.1885 36.5675 30.8057 37.1042 31.146L44.4614 35.8116C45.4226 36.4211 46.698 35.9032 46.9621 34.7961L50.4855 20.0246C50.6367 19.3909 50.4028 18.7275 49.8876 18.3288L40.9575 11.4172C39.936 10.6265 38.4427 11.2561 38.2956 12.5395Z" fill="#FF4E27"/>
<path d="M19.994 29.6426L18.3029 6.50546C18.2779 6.1633 18.4309 5.83241 18.7079 5.62992L24.6915 1.25475C25.0428 0.997955 25.5201 0.999187 25.87 1.2578L31.7904 5.63375C32.062 5.8345 32.2132 6.15933 32.1919 6.4964L30.7319 29.6253C30.7102 29.9694 30.5119 30.2776 30.2079 30.4401L25.7637 32.8144C25.4672 32.9728 25.1107 32.9707 24.816 32.8088L20.5072 30.442C20.2117 30.2797 20.0185 29.9788 19.994 29.6426ZM11.7794 12.615L13.73 29.6326C13.7734 30.0114 13.5965 30.3818 13.2744 30.586L5.91723 35.2515C5.34054 35.6172 4.57529 35.3065 4.41685 34.6422L0.89337 19.8707C0.802681 19.4905 0.943039 19.0925 1.25213 18.8532L10.1822 11.9416C10.7951 11.4672 11.6911 11.845 11.7794 12.615ZM37.0038 29.6326L38.9544 12.615C39.0427 11.845 39.9387 11.4672 40.5516 11.9416L49.4817 18.8532C49.7908 19.0925 49.9311 19.4905 49.8404 19.8707L46.317 34.6422C46.1585 35.3065 45.3933 35.6172 44.8166 35.2515L37.4594 30.586C37.1373 30.3818 36.9604 30.0114 37.0038 29.6326Z" stroke="url(#paint0_linear_1299_11)" stroke-opacity="0.2" stroke-width="1.32637"/>
<path d="M61.9468 6.33237H68.9205L75.1385 24.0931L81.3221 6.33237H88.2959V30.7234H83.0742V14.9207L77.3371 30.6546H72.8712L67.1685 14.9207V30.7234H61.9468V6.33237Z" fill="#F5F1EE"/>
<path d="M102.698 31.273C99.5831 31.273 97.1211 30.5058 95.3118 28.9713C93.5025 27.4369 92.5063 25.3413 92.3231 22.6846L97.5791 22.4442C97.7624 23.9099 98.2891 25.0321 99.1594 25.8108C100.03 26.5666 101.232 26.9445 102.767 26.9445C104.072 26.9445 105.08 26.704 105.79 26.223C106.5 25.7421 106.855 25.0436 106.855 24.1275C106.855 23.532 106.706 23.0282 106.408 22.6159C106.133 22.1808 105.606 21.7914 104.828 21.4479C104.049 21.1044 102.915 20.7608 101.427 20.4173C99.2739 19.9364 97.5791 19.3982 96.3424 18.8027C95.1057 18.2072 94.201 17.4629 93.6285 16.5697C93.0559 15.6765 92.7696 14.5314 92.7696 13.1344C92.7696 11.6915 93.1361 10.4204 93.869 9.32112C94.6018 8.19891 95.6553 7.32862 97.0295 6.71026C98.4036 6.0919 100.03 5.78271 101.908 5.78271C104.839 5.78271 107.141 6.53849 108.813 8.05005C110.485 9.5387 111.469 11.5312 111.767 14.0276L106.545 14.3024C106.408 12.9969 105.927 11.9778 105.103 11.2449C104.301 10.4891 103.213 10.1113 101.839 10.1113C100.671 10.1113 99.7434 10.3746 99.0563 10.9014C98.3922 11.4052 98.0601 12.0923 98.0601 12.9626C98.0601 13.581 98.209 14.0963 98.5067 14.5085C98.8044 14.8978 99.3083 15.2414 100.018 15.5391C100.751 15.8139 101.793 16.0888 103.144 16.3636C106.419 17.0278 108.733 17.9668 110.084 19.1806C111.458 20.3944 112.145 21.9632 112.145 23.887C112.145 25.3986 111.756 26.7154 110.977 27.8377C110.221 28.937 109.133 29.7844 107.713 30.3798C106.293 30.9753 104.622 31.273 102.698 31.273Z" fill="#F5F1EE"/>
<path d="M121.461 10.7296H114.144V6.33237H134V10.7296H126.717V30.7234H121.461V10.7296Z" fill="#F5F1EE"/>
<defs>
<linearGradient id="paint0_linear_1299_11" x1="25.3669" y1="0" x2="25.3669" y2="37.0556" gradientUnits="userSpaceOnUse">
<stop stop-color="white"/>
<stop offset="1" stop-color="white" stop-opacity="0"/>
</linearGradient>
</defs>
</svg>
