<svg width="505" height="474" viewBox="0 0 505 474" fill="none" xmlns="http://www.w3.org/2000/svg">
<path d="M22.4658 328.147L14.9232 303.11L26.3858 339.144L34.218 365.147L22.4658 328.147Z" stroke="#F5F1EE" stroke-linecap="round" stroke-linejoin="round"/>
<path d="M14.9238 303.113L18.7239 260.991L23.7131 238.244L20.1908 277.23L14.9238 303.113Z" stroke="#F5F1EE" stroke-linecap="round" stroke-linejoin="round"/>
<path d="M34.2187 365.148L26.3864 339.146L52.3414 366.67L60.8672 393.376L34.2187 365.148Z" stroke="#F5F1EE" stroke-linecap="round" stroke-linejoin="round"/>
<path d="M26.386 339.146L14.9235 303.113L20.1904 277.229L30.8198 310.586L26.386 339.146Z" stroke="#F5F1EE" stroke-linecap="round" stroke-linejoin="round"/>
<path d="M60.8665 393.376L52.3407 366.67L91.0258 383.767L100.554 410.934L60.8665 393.376Z" stroke="#F5F1EE" stroke-linecap="round" stroke-linejoin="round"/>
<path d="M52.3403 366.671L26.3853 339.146L30.8191 310.586L54.839 336.079L52.3403 366.671Z" stroke="#F5F1EE" stroke-linecap="round" stroke-linejoin="round"/>
<path d="M60.8669 393.378L100.554 410.935L117.782 429.224L79.0966 412.127L60.8669 393.378Z" stroke="#F5F1EE" stroke-linecap="round" stroke-linejoin="round"/>
<path d="M100.554 410.935L91.026 383.769L139.778 389.316L150.596 416.604L100.554 410.935Z" stroke="#F5F1EE" stroke-linecap="round" stroke-linejoin="round"/>
<path d="M91.025 383.767L52.3399 366.67L54.8386 336.078L90.6599 351.904L91.025 383.767Z" stroke="#F5F1EE" stroke-linecap="round" stroke-linejoin="round"/>
<path d="M100.553 410.935L150.596 416.604L166.533 434.771L117.781 429.224L100.553 410.935Z" stroke="#F5F1EE" stroke-linecap="round" stroke-linejoin="round"/>
<path d="M150.596 416.602L139.777 389.314L195.32 382.893L207.558 410.007L150.596 416.602Z" stroke="#F5F1EE" stroke-linecap="round" stroke-linejoin="round"/>
<path d="M139.777 389.315L91.0255 383.768L90.6604 351.905L135.792 357.055L139.777 389.315Z" stroke="#F5F1EE" stroke-linecap="round" stroke-linejoin="round"/>
<path d="M150.596 416.603L207.557 410.007L222.106 428.352L166.533 434.77L150.596 416.603Z" stroke="#F5F1EE" stroke-linecap="round" stroke-linejoin="round"/>
<path d="M207.558 410.008L195.32 382.894L253.841 364.954L267.591 391.626L207.558 410.008Z" stroke="#F5F1EE" stroke-linecap="round" stroke-linejoin="round"/>
<path d="M195.32 382.891L139.777 389.312L135.792 357.052L187.242 351.08L195.32 382.891Z" stroke="#F5F1EE" stroke-linecap="round" stroke-linejoin="round"/>
<path d="M207.558 410.007L267.592 391.625L280.597 410.409L222.107 428.352L207.558 410.007Z" stroke="#F5F1EE" stroke-linecap="round" stroke-linejoin="round"/>
<path d="M267.592 391.624L253.841 364.953L311.34 336.731L326.609 362.65L267.592 391.624Z" stroke="#F5F1EE" stroke-linecap="round" stroke-linejoin="round"/>
<path d="M253.841 364.955L195.32 382.894L187.242 351.082L241.408 334.493L253.841 364.955Z" stroke="#F5F1EE" stroke-linecap="round" stroke-linejoin="round"/>
<path d="M267.592 391.625L326.609 362.651L338.127 382.191L280.597 410.409L267.592 391.625Z" stroke="#F5F1EE" stroke-linecap="round" stroke-linejoin="round"/>
<path d="M326.609 362.652L311.341 336.733L363.923 300.162L380.548 325.123L326.609 362.652Z" stroke="#F5F1EE" stroke-linecap="round" stroke-linejoin="round"/>
<path d="M311.339 336.733L253.84 364.954L241.408 334.492L294.65 308.378L311.339 336.733Z" stroke="#F5F1EE" stroke-linecap="round" stroke-linejoin="round"/>
<path d="M326.608 362.651L380.546 325.121L390.677 345.616L338.125 382.191L326.608 362.651Z" stroke="#F5F1EE" stroke-linecap="round" stroke-linejoin="round"/>
<path d="M380.547 325.124L363.922 300.163L408.006 257.677L425.783 281.563L380.547 325.124Z" stroke="#F5F1EE" stroke-linecap="round" stroke-linejoin="round"/>
<path d="M363.921 300.163L311.339 336.734L294.649 308.379L343.341 274.486L363.921 300.163Z" stroke="#F5F1EE" stroke-linecap="round" stroke-linejoin="round"/>
<path d="M380.548 325.121L425.785 281.56L434.762 303.13L390.679 345.616L380.548 325.121Z" stroke="#F5F1EE" stroke-linecap="round" stroke-linejoin="round"/>
<path d="M425.783 281.563L408.006 257.678L440.568 212.245L459.202 234.926L425.783 281.563Z" stroke="#F5F1EE" stroke-linecap="round" stroke-linejoin="round"/>
<path d="M408.005 257.677L363.922 300.162L343.342 274.485L384.128 235.183L408.005 257.677Z" stroke="#F5F1EE" stroke-linecap="round" stroke-linejoin="round"/>
<path d="M425.783 281.562L459.202 234.925L467.323 257.7L434.761 303.133L425.783 281.562Z" stroke="#F5F1EE" stroke-linecap="round" stroke-linejoin="round"/>
<path d="M459.203 234.923L440.568 212.242L459.385 166.893L478.498 188.419L459.203 234.923Z" stroke="#F5F1EE" stroke-linecap="round" stroke-linejoin="round"/>
<path d="M440.567 212.243L408.005 257.676L384.127 235.183L414.274 193.1L440.567 212.243Z" stroke="#F5F1EE" stroke-linecap="round" stroke-linejoin="round"/>
<path d="M459.201 234.925L478.496 188.421L486.135 212.381L467.321 257.7L459.201 234.925Z" stroke="#F5F1EE" stroke-linecap="round" stroke-linejoin="round"/>
<path d="M478.499 188.421L459.385 166.895L463.216 124.777L482.429 145.196L478.499 188.421Z" stroke="#F5F1EE" stroke-linecap="round" stroke-linejoin="round"/>
<path d="M459.385 166.896L440.567 212.245L414.274 193.101L431.698 151.13L459.385 166.896Z" stroke="#F5F1EE" stroke-linecap="round" stroke-linejoin="round"/>
<path d="M478.498 188.421L482.429 145.195L489.971 170.232L486.137 212.381L478.498 188.421Z" stroke="#F5F1EE" stroke-linecap="round" stroke-linejoin="round"/>
<path d="M482.429 145.192L463.216 124.773L451.723 88.7349L470.646 108.188L482.429 145.192Z" stroke="#F5F1EE" stroke-linecap="round" stroke-linejoin="round"/>
<path d="M463.215 124.778L459.384 166.896L431.697 151.13L435.254 112.118L463.215 124.778Z" stroke="#F5F1EE" stroke-linecap="round" stroke-linejoin="round"/>
<path d="M470.646 108.189L451.722 88.7367L425.798 61.2161L444.028 79.9653L470.646 108.189Z" stroke="#F5F1EE" stroke-linecap="round" stroke-linejoin="round"/>
<path d="M451.723 88.7383L463.216 124.776L435.255 112.116L424.626 78.76L451.723 88.7383Z" stroke="#F5F1EE" stroke-linecap="round" stroke-linejoin="round"/>
<path d="M425.8 61.2165L451.724 88.7371L424.626 78.7588L400.607 53.2657L425.8 61.2165Z" stroke="#F5F1EE" stroke-linecap="round" stroke-linejoin="round"/>
<path d="M387.114 44.121L425.799 61.2182L400.606 53.2674L364.785 37.4409L387.114 44.121Z" stroke="#F5F1EE" stroke-linecap="round" stroke-linejoin="round"/>
<path d="M23.7131 238.243L41.1368 196.272L55.9509 183.201L40.5836 220.133L23.7131 238.243Z" stroke="#F5F1EE" stroke-linecap="round" stroke-linejoin="round"/>
<path d="M20.1899 277.228L23.7122 238.243L40.5827 220.133L37.485 254.476L20.1899 277.228Z" stroke="#F5F1EE" stroke-linecap="round" stroke-linejoin="round"/>
<path d="M30.8195 310.586L20.1901 277.229L37.4851 254.477L46.8171 283.827L30.8195 310.586Z" stroke="#F5F1EE" stroke-linecap="round" stroke-linejoin="round"/>
<path d="M54.8391 336.08L30.8193 310.587L46.8169 283.828L67.9685 306.248L54.8391 336.08Z" stroke="#F5F1EE" stroke-linecap="round" stroke-linejoin="round"/>
<path d="M90.6603 351.904L54.8389 336.078L67.9683 306.246L99.5056 320.198L90.6603 351.904Z" stroke="#F5F1EE" stroke-linecap="round" stroke-linejoin="round"/>
<path d="M135.793 357.054L90.6614 351.904L99.5067 320.198L139.245 324.711L135.793 357.054Z" stroke="#F5F1EE" stroke-linecap="round" stroke-linejoin="round"/>
<path d="M187.241 351.083L135.791 357.056L139.243 324.712L184.485 319.466L187.241 351.083Z" stroke="#F5F1EE" stroke-linecap="round" stroke-linejoin="round"/>
<path d="M241.409 334.492L187.243 351.081L184.487 319.464L232.174 304.843L241.409 334.492Z" stroke="#F5F1EE" stroke-linecap="round" stroke-linejoin="round"/>
<path d="M294.65 308.379L241.408 334.494L232.174 304.845L279.048 281.861L294.65 308.379Z" stroke="#F5F1EE" stroke-linecap="round" stroke-linejoin="round"/>
<path d="M343.342 274.484L294.65 308.376L279.048 281.859L321.881 252.059L343.342 274.484Z" stroke="#F5F1EE" stroke-linecap="round" stroke-linejoin="round"/>
<path d="M384.128 235.184L343.342 274.486L321.88 252.061L357.825 217.438L384.128 235.184Z" stroke="#F5F1EE" stroke-linecap="round" stroke-linejoin="round"/>
<path d="M414.274 193.1L384.128 235.183L357.825 217.436L384.327 180.423L414.274 193.1Z" stroke="#F5F1EE" stroke-linecap="round" stroke-linejoin="round"/>
<path d="M431.698 151.128L414.274 193.099L384.326 180.422L399.697 143.46L431.698 151.128Z" stroke="#F5F1EE" stroke-linecap="round" stroke-linejoin="round"/>
<path d="M435.254 112.115L431.698 151.127L399.697 143.459L402.791 109.147L435.254 112.115Z" stroke="#F5F1EE" stroke-linecap="round" stroke-linejoin="round"/>
<path d="M424.626 78.7595L435.255 112.116L402.792 109.147L393.464 79.7669L424.626 78.7595Z" stroke="#F5F1EE" stroke-linecap="round" stroke-linejoin="round"/>
<path d="M400.606 53.2656L424.626 78.7588L393.464 79.7662L372.312 57.3467L400.606 53.2656Z" stroke="#F5F1EE" stroke-linecap="round" stroke-linejoin="round"/>
<path d="M364.783 37.4412L400.605 53.2677L372.311 57.3488L340.774 43.3962L364.783 37.4412Z" stroke="#F5F1EE" stroke-linecap="round" stroke-linejoin="round"/>
<path d="M319.618 32.317L364.784 37.4402L340.774 43.3952L301.032 38.9134L319.618 32.317Z" stroke="#F5F1EE" stroke-linecap="round" stroke-linejoin="round"/>
<path d="M268.204 38.2618L319.62 32.3159L301.034 38.9122L255.765 44.1245L268.204 38.2618Z" stroke="#F5F1EE" stroke-linecap="round" stroke-linejoin="round"/>
<path d="M214.033 54.8839L268.202 38.2633L255.763 44.1261L208.076 58.7473L214.033 54.8839Z" stroke="#F5F1EE" stroke-linecap="round" stroke-linejoin="round"/>
<path d="M160.791 80.9967L214.033 54.8822L208.076 58.7456L161.232 81.7324L160.791 80.9967Z" stroke="#F5F1EE" stroke-linecap="round" stroke-linejoin="round"/>
<path d="M112.103 114.86L160.792 80.9975L118.366 111.561L112.103 114.86Z" stroke="#F5F1EE" stroke-linecap="round" stroke-linejoin="round"/>
<path d="M71.3127 154.194L112.103 114.861L118.366 111.562L82.4552 146.158L71.3127 154.194Z" stroke="#F5F1EE" stroke-linecap="round" stroke-linejoin="round"/>
<path d="M41.1372 196.272L71.3139 154.193L82.4563 146.157L55.9513 183.201L41.1372 196.272Z" stroke="#F5F1EE" stroke-linecap="round" stroke-linejoin="round"/>
<path d="M40.5824 220.136L55.9497 183.204L79.6305 178.453L66.7654 209.466L40.5824 220.136Z" stroke="#F5F1EE" stroke-linecap="round" stroke-linejoin="round"/>
<path d="M37.4855 254.477L40.5832 220.134L66.7663 209.464L64.1676 238.273L37.4855 254.477Z" stroke="#F5F1EE" stroke-linecap="round" stroke-linejoin="round"/>
<path d="M46.8166 283.829L37.4846 254.479L64.1667 238.275L72.0014 262.942L46.8166 283.829Z" stroke="#F5F1EE" stroke-linecap="round" stroke-linejoin="round"/>
<path d="M67.9688 306.244L46.8172 283.825L72.002 262.938L89.7576 281.755L67.9688 306.244Z" stroke="#F5F1EE" stroke-linecap="round" stroke-linejoin="round"/>
<path d="M99.5054 320.198L67.9682 306.246L89.757 281.757L116.215 293.462L99.5054 320.198Z" stroke="#F5F1EE" stroke-linecap="round" stroke-linejoin="round"/>
<path d="M139.244 324.712L99.5059 320.199L116.216 293.463L149.58 297.222L139.244 324.712Z" stroke="#F5F1EE" stroke-linecap="round" stroke-linejoin="round"/>
<path d="M184.488 319.464L139.245 324.711L149.581 297.22L187.572 292.857L184.488 319.464Z" stroke="#F5F1EE" stroke-linecap="round" stroke-linejoin="round"/>
<path d="M232.175 304.843L184.487 319.464L187.571 292.857L227.585 280.591L232.175 304.843Z" stroke="#F5F1EE" stroke-linecap="round" stroke-linejoin="round"/>
<path d="M279.047 281.859L232.173 304.843L227.584 280.59L266.937 261.286L279.047 281.859Z" stroke="#F5F1EE" stroke-linecap="round" stroke-linejoin="round"/>
<path d="M321.879 252.06L279.047 281.86L266.937 261.287L302.9 236.236L321.879 252.06Z" stroke="#F5F1EE" stroke-linecap="round" stroke-linejoin="round"/>
<path d="M357.825 217.438L321.881 252.061L302.901 236.238L333.027 207.203L357.825 217.438Z" stroke="#F5F1EE" stroke-linecap="round" stroke-linejoin="round"/>
<path d="M384.327 180.422L357.826 217.436L333.027 207.201L355.316 176.121L384.327 180.422Z" stroke="#F5F1EE" stroke-linecap="round" stroke-linejoin="round"/>
<path d="M399.697 143.46L384.326 180.423L355.314 176.123L368.18 145.109L399.697 143.46Z" stroke="#F5F1EE" stroke-linecap="round" stroke-linejoin="round"/>
<path d="M402.792 109.147L399.698 143.46L368.181 145.109L370.779 116.3L402.792 109.147Z" stroke="#F5F1EE" stroke-linecap="round" stroke-linejoin="round"/>
<path d="M393.463 79.7668L402.791 109.147L370.778 116.3L362.943 91.6328L393.463 79.7668Z" stroke="#F5F1EE" stroke-linecap="round" stroke-linejoin="round"/>
<path d="M372.312 57.3484L393.464 79.7679L362.944 91.6338L345.189 72.8165L372.312 57.3484Z" stroke="#F5F1EE" stroke-linecap="round" stroke-linejoin="round"/>
<path d="M340.773 43.3952L372.311 57.3478L345.187 72.8159L318.729 61.111L340.773 43.3952Z" stroke="#F5F1EE" stroke-linecap="round" stroke-linejoin="round"/>
<path d="M301.033 38.9126L340.775 43.3944L318.731 61.1102L285.401 57.3244L301.033 38.9126Z" stroke="#F5F1EE" stroke-linecap="round" stroke-linejoin="round"/>
<path d="M255.762 44.1255L301.032 38.9132L285.4 57.3251L247.405 61.7194L255.762 44.1255Z" stroke="#F5F1EE" stroke-linecap="round" stroke-linejoin="round"/>
<path d="M208.075 58.7456L255.763 44.1244L247.405 61.7183L207.361 73.9807L208.075 58.7456Z" stroke="#F5F1EE" stroke-linecap="round" stroke-linejoin="round"/>
<path d="M161.232 81.7353L208.075 58.7485L207.361 73.9835L168.038 93.2918L161.232 81.7353Z" stroke="#F5F1EE" stroke-linecap="round" stroke-linejoin="round"/>
<path d="M118.365 111.56L161.232 81.7331L168.038 93.2895L132.045 118.336L118.365 111.56Z" stroke="#F5F1EE" stroke-linecap="round" stroke-linejoin="round"/>
<path d="M82.4547 146.157L118.365 111.561L132.045 118.336L101.919 147.371L82.4547 146.157Z" stroke="#F5F1EE" stroke-linecap="round" stroke-linejoin="round"/>
<path d="M55.9503 183.201L82.4553 146.157L101.919 147.371L79.6311 178.451L55.9503 183.201Z" stroke="#F5F1EE" stroke-linecap="round" stroke-linejoin="round"/>
<path d="M66.7664 209.463L79.6314 178.45L108.674 182.754L98.2839 207.814L66.7664 209.463Z" stroke="#F5F1EE" stroke-linecap="round" stroke-linejoin="round"/>
<path d="M64.1679 238.271L66.7666 209.462L98.2841 207.813L96.1503 231.114L64.1679 238.271Z" stroke="#F5F1EE" stroke-linecap="round" stroke-linejoin="round"/>
<path d="M72.002 262.94L64.1672 238.273L96.1496 231.117L102.491 251.07L72.002 262.94Z" stroke="#F5F1EE" stroke-linecap="round" stroke-linejoin="round"/>
<path d="M89.7561 281.758L72.0006 262.941L102.489 251.071L116.849 266.286L89.7561 281.758Z" stroke="#F5F1EE" stroke-linecap="round" stroke-linejoin="round"/>
<path d="M116.216 293.462L89.758 281.757L116.851 266.285L138.26 275.746L116.216 293.462Z" stroke="#F5F1EE" stroke-linecap="round" stroke-linejoin="round"/>
<path d="M149.58 297.222L116.216 293.463L138.261 275.747L165.212 278.81L149.58 297.222Z" stroke="#F5F1EE" stroke-linecap="round" stroke-linejoin="round"/>
<path d="M187.571 292.857L149.579 297.221L165.212 278.809L195.932 275.233L187.571 292.857Z" stroke="#F5F1EE" stroke-linecap="round" stroke-linejoin="round"/>
<path d="M227.584 280.592L187.571 292.858L195.932 275.233L228.302 265.326L227.584 280.592Z" stroke="#F5F1EE" stroke-linecap="round" stroke-linejoin="round"/>
<path d="M266.938 261.286L227.584 280.59L228.302 265.324L260.132 249.729L266.938 261.286Z" stroke="#F5F1EE" stroke-linecap="round" stroke-linejoin="round"/>
<path d="M302.902 236.235L266.939 261.286L260.133 249.729L289.219 229.49L302.902 236.235Z" stroke="#F5F1EE" stroke-linecap="round" stroke-linejoin="round"/>
<path d="M333.027 207.201L302.901 236.235L289.218 229.49L313.593 205.99L333.027 207.201Z" stroke="#F5F1EE" stroke-linecap="round" stroke-linejoin="round"/>
<path d="M355.315 176.122L333.026 207.201L313.593 205.991L331.603 180.869L355.315 176.122Z" stroke="#F5F1EE" stroke-linecap="round" stroke-linejoin="round"/>
<path d="M368.18 145.111L355.315 176.124L331.604 180.872L341.997 155.781L368.18 145.111Z" stroke="#F5F1EE" stroke-linecap="round" stroke-linejoin="round"/>
<path d="M370.777 116.301L368.178 145.111L341.995 155.78L344.129 132.479L370.777 116.301Z" stroke="#F5F1EE" stroke-linecap="round" stroke-linejoin="round"/>
<path d="M362.945 91.6325L370.78 116.299L344.132 132.477L337.788 112.554L362.945 91.6325Z" stroke="#F5F1EE" stroke-linecap="round" stroke-linejoin="round"/>
<path d="M345.188 72.8179L362.943 91.6352L337.785 112.556L323.426 97.3412L345.188 72.8179Z" stroke="#F5F1EE" stroke-linecap="round" stroke-linejoin="round"/>
<path d="M318.73 61.1096L345.188 72.8144L323.427 97.3378L302.017 87.8767L318.73 61.1096Z" stroke="#F5F1EE" stroke-linecap="round" stroke-linejoin="round"/>
<path d="M285.399 57.3273L318.729 61.1131L302.015 87.8802L275.033 84.8138L285.399 57.3273Z" stroke="#F5F1EE" stroke-linecap="round" stroke-linejoin="round"/>
<path d="M247.406 61.7202L285.401 57.3258L275.035 84.8124L244.318 88.3583L247.406 61.7202Z" stroke="#F5F1EE" stroke-linecap="round" stroke-linejoin="round"/>
<path d="M207.362 73.9813L247.406 61.719L244.318 88.3571L211.979 98.2678L207.362 73.9813Z" stroke="#F5F1EE" stroke-linecap="round" stroke-linejoin="round"/>
<path d="M168.038 93.2919L207.361 73.9836L211.979 98.2701L180.148 113.865L168.038 93.2919Z" stroke="#F5F1EE" stroke-linecap="round" stroke-linejoin="round"/>
<path d="M132.045 118.336L168.039 93.2894L180.148 113.863L151.059 134.133L132.045 118.336Z" stroke="#F5F1EE" stroke-linecap="round" stroke-linejoin="round"/>
<path d="M101.92 147.37L132.046 118.336L151.06 134.132L126.688 157.601L101.92 147.37Z" stroke="#F5F1EE" stroke-linecap="round" stroke-linejoin="round"/>
<path d="M79.629 178.452L101.917 147.372L126.685 157.603L108.671 182.756L79.629 178.452Z" stroke="#F5F1EE" stroke-linecap="round" stroke-linejoin="round"/>
<path d="M98.2826 207.816L108.672 182.755L138.62 195.432L130.283 215.484L98.2826 207.816Z" stroke="#F5F1EE" stroke-linecap="round" stroke-linejoin="round"/>
<path d="M96.1492 231.115L98.283 207.813L130.284 215.481L128.612 234.084L96.1492 231.115Z" stroke="#F5F1EE" stroke-linecap="round" stroke-linejoin="round"/>
<path d="M102.49 251.072L96.1486 231.119L128.612 234.087L133.655 250.034L102.49 251.072Z" stroke="#F5F1EE" stroke-linecap="round" stroke-linejoin="round"/>
<path d="M116.851 266.286L102.492 251.071L133.658 250.033L145.145 262.205L116.851 266.286Z" stroke="#F5F1EE" stroke-linecap="round" stroke-linejoin="round"/>
<path d="M138.26 275.746L116.85 266.285L145.144 262.204L162.242 269.757L138.26 275.746Z" stroke="#F5F1EE" stroke-linecap="round" stroke-linejoin="round"/>
<path d="M165.213 278.808L138.261 275.745L162.244 269.756L171.962 270.874L177.145 271.456L183.278 272.15L165.213 278.808Z" stroke="#F5F1EE" stroke-linecap="round" stroke-linejoin="round"/>
<path d="M195.933 275.231L165.213 278.808L183.829 272.215L186.728 271.875L189.532 271.553L194.068 271.033L208.368 269.399L195.933 275.231Z" stroke="#F5F1EE" stroke-linecap="round" stroke-linejoin="round"/>
<path d="M228.303 265.323L195.933 275.23L208.369 269.398L234.26 261.46L228.303 265.323Z" stroke="#F5F1EE" stroke-linecap="round" stroke-linejoin="round"/>
<path d="M260.132 249.732L228.302 265.327L234.258 261.464L259.694 248.966L260.132 249.732Z" stroke="#F5F1EE" stroke-linecap="round" stroke-linejoin="round"/>
<path d="M289.219 229.491L260.133 249.73L282.925 232.786L289.219 229.491Z" stroke="#F5F1EE" stroke-linecap="round" stroke-linejoin="round"/>
<path d="M313.593 205.992L289.218 229.492L282.924 232.787L302.42 214.024L313.593 205.992Z" stroke="#F5F1EE" stroke-linecap="round" stroke-linejoin="round"/>
<path d="M331.603 180.869L313.593 205.991L302.42 214.023L310.797 202.304L313.474 198.581L315.109 196.32L316.823 193.912L331.603 180.869Z" stroke="#F5F1EE" stroke-linecap="round" stroke-linejoin="round"/>
<path d="M341.997 155.779L331.603 180.87L316.823 193.914L319.389 187.723L321.389 182.894L325.126 173.89L341.997 155.779Z" stroke="#F5F1EE" stroke-linecap="round" stroke-linejoin="round"/>
<path d="M344.13 132.478L341.996 155.779L325.126 173.889L326.831 155.26L344.13 132.478Z" stroke="#F5F1EE" stroke-linecap="round" stroke-linejoin="round"/>
<path d="M337.787 112.553L344.132 132.476L326.833 155.258L321.759 139.308L337.787 112.553Z" stroke="#F5F1EE" stroke-linecap="round" stroke-linejoin="round"/>
<path d="M323.427 97.3387L337.786 112.554L321.758 139.309L310.27 127.137L323.427 97.3387Z" stroke="#F5F1EE" stroke-linecap="round" stroke-linejoin="round"/>
<path d="M302.016 87.878L323.426 97.3391L310.27 127.137L293.171 119.584L302.016 87.878Z" stroke="#F5F1EE" stroke-linecap="round" stroke-linejoin="round"/>
<path d="M275.034 84.8127L302.017 87.879L293.171 119.585L271.617 117.129L275.034 84.8127Z" stroke="#F5F1EE" stroke-linecap="round" stroke-linejoin="round"/>
<path d="M244.317 88.3593L275.034 84.8133L271.616 117.13L247.073 119.977L244.317 88.3593Z" stroke="#F5F1EE" stroke-linecap="round" stroke-linejoin="round"/>
<path d="M211.979 98.2678L244.318 88.3572L247.074 119.975L221.183 127.913L211.979 98.2678Z" stroke="#F5F1EE" stroke-linecap="round" stroke-linejoin="round"/>
<path d="M180.148 113.864L211.979 98.2684L221.183 127.914L195.75 140.381L180.148 113.864Z" stroke="#F5F1EE" stroke-linecap="round" stroke-linejoin="round"/>
<path d="M151.059 134.133L180.148 113.864L195.75 140.381L172.49 156.555L151.059 134.133Z" stroke="#F5F1EE" stroke-linecap="round" stroke-linejoin="round"/>
<path d="M126.687 157.603L151.058 134.134L172.489 156.555L152.99 175.349L126.687 157.603Z" stroke="#F5F1EE" stroke-linecap="round" stroke-linejoin="round"/>
<path d="M108.675 182.753L126.689 157.6L152.992 175.346L138.623 195.43L108.675 182.753Z" stroke="#F5F1EE" stroke-linecap="round" stroke-linejoin="round"/>
<path d="M130.283 215.485L138.62 195.433L164.913 214.577L157.97 231.25L130.283 215.485Z" stroke="#F5F1EE" stroke-linecap="round" stroke-linejoin="round"/>
<path d="M128.612 234.086L130.283 215.484L157.97 231.25L156.569 246.776L128.612 234.086Z" stroke="#F5F1EE" stroke-linecap="round" stroke-linejoin="round"/>
<path d="M133.657 250.031L128.613 234.084L156.571 246.775L160.785 260.013L133.657 250.031Z" stroke="#F5F1EE" stroke-linecap="round" stroke-linejoin="round"/>
<path d="M145.144 262.202L133.657 250.03L160.785 260.012L170.337 270.153L145.144 262.202Z" stroke="#F5F1EE" stroke-linecap="round" stroke-linejoin="round"/>
<path d="M162.242 269.758L145.144 262.204L170.337 270.155L171.96 270.876L162.242 269.758Z" stroke="#F5F1EE" stroke-linecap="round" stroke-linejoin="round"/>
<path d="M326.832 155.26L325.126 173.889L321.389 182.893L321.569 181.112L326.832 155.26Z" stroke="#F5F1EE" stroke-linecap="round" stroke-linejoin="round"/>
<path d="M321.757 139.31L326.831 155.26L321.568 181.113L317.327 167.84L321.757 139.31Z" stroke="#F5F1EE" stroke-linecap="round" stroke-linejoin="round"/>
<path d="M310.27 127.138L321.757 139.31L317.327 167.84L307.802 157.733L310.27 127.138Z" stroke="#F5F1EE" stroke-linecap="round" stroke-linejoin="round"/>
<path d="M293.171 119.584L310.269 127.137L307.801 157.733L293.536 151.447L293.171 119.584Z" stroke="#F5F1EE" stroke-linecap="round" stroke-linejoin="round"/>
<path d="M271.617 117.128L293.172 119.583L293.537 151.446L275.602 149.388L271.617 117.128Z" stroke="#F5F1EE" stroke-linecap="round" stroke-linejoin="round"/>
<path d="M247.074 119.975L271.617 117.129L275.602 149.389L255.155 151.756L247.074 119.975Z" stroke="#F5F1EE" stroke-linecap="round" stroke-linejoin="round"/>
<path d="M221.183 127.912L247.074 119.974L255.155 151.755L233.619 158.344L221.183 127.912Z" stroke="#F5F1EE" stroke-linecap="round" stroke-linejoin="round"/>
<path d="M195.751 140.381L221.183 127.914L233.619 158.345L212.472 168.74L195.751 140.381Z" stroke="#F5F1EE" stroke-linecap="round" stroke-linejoin="round"/>
<path d="M172.491 156.555L195.751 140.382L212.472 168.741L193.105 182.205L172.491 156.555Z" stroke="#F5F1EE" stroke-linecap="round" stroke-linejoin="round"/>
<path d="M152.991 175.35L172.49 156.556L193.105 182.206L176.868 197.843L152.991 175.35Z" stroke="#F5F1EE" stroke-linecap="round" stroke-linejoin="round"/>
<path d="M138.621 195.431L152.99 175.347L176.867 197.841L164.914 214.575L138.621 195.431Z" stroke="#F5F1EE" stroke-linecap="round" stroke-linejoin="round"/>
<path d="M157.972 231.25L164.915 214.576L183.519 237.254L177.085 252.776L157.972 231.25Z" stroke="#F5F1EE" stroke-linecap="round" stroke-linejoin="round"/>
<path d="M156.57 246.777L157.971 231.25L177.084 252.776L175.787 267.165L156.57 246.777Z" stroke="#F5F1EE" stroke-linecap="round" stroke-linejoin="round"/>
<path d="M160.785 260.012L156.57 246.774L175.787 267.162L177.144 271.455L171.961 270.874L160.785 260.012Z" stroke="#F5F1EE" stroke-linecap="round" stroke-linejoin="round"/>
<path d="M170.337 270.155L160.784 260.014L170.84 270.37L170.337 270.155Z" stroke="#F5F1EE" stroke-linecap="round" stroke-linejoin="round"/>
<path d="M317.327 167.84L321.538 181.109" stroke="#F5F1EE" stroke-linecap="round" stroke-linejoin="round"/>
<path d="M307.802 157.733L317.328 167.839L321.504 181.664L319.389 187.722L316.298 184.435L307.802 157.733Z" stroke="#F5F1EE" stroke-linecap="round" stroke-linejoin="round"/>
<path d="M293.538 151.446L307.803 157.731L316.298 184.434L303.069 178.582L293.538 151.446Z" stroke="#F5F1EE" stroke-linecap="round" stroke-linejoin="round"/>
<path d="M275.603 149.387L293.538 151.445L303.069 178.581L286.387 176.702L275.603 149.387Z" stroke="#F5F1EE" stroke-linecap="round" stroke-linejoin="round"/>
<path d="M255.154 151.757L275.601 149.389L286.385 176.704L267.388 178.901L255.154 151.757Z" stroke="#F5F1EE" stroke-linecap="round" stroke-linejoin="round"/>
<path d="M233.618 158.346L255.154 151.757L267.388 178.902L247.399 185.021L233.618 158.346Z" stroke="#F5F1EE" stroke-linecap="round" stroke-linejoin="round"/>
<path d="M212.469 168.742L233.617 158.347L247.398 185.022L227.707 194.657L212.469 168.742Z" stroke="#F5F1EE" stroke-linecap="round" stroke-linejoin="round"/>
<path d="M193.105 182.204L212.471 168.739L227.709 194.655L209.726 207.195L193.105 182.204Z" stroke="#F5F1EE" stroke-linecap="round" stroke-linejoin="round"/>
<path d="M176.868 197.841L193.104 182.204L209.725 207.196L194.649 221.696L176.868 197.841Z" stroke="#F5F1EE" stroke-linecap="round" stroke-linejoin="round"/>
<path d="M164.914 214.577L176.868 197.843L194.649 221.697L183.518 237.254L164.914 214.577Z" stroke="#F5F1EE" stroke-linecap="round" stroke-linejoin="round"/>
<path d="M177.084 252.774L183.519 237.252L191.67 260.03L186.727 271.875L183.828 272.216L177.084 252.774Z" stroke="#F5F1EE" stroke-linecap="round" stroke-linejoin="round"/>
<path d="M175.785 267.165L177.083 252.775L183.275 272.152L177.142 271.458L175.785 267.165Z" stroke="#F5F1EE" stroke-linecap="round" stroke-linejoin="round"/>
<path d="M316.296 184.437L319.388 187.724L317.037 193.412L303.067 178.585L316.296 184.437Z" stroke="#F5F1EE" stroke-linecap="round" stroke-linejoin="round"/>
<path d="M286.387 176.703L303.069 178.582L317.039 193.409L315.11 196.32L302.354 194.874L286.387 176.703Z" stroke="#F5F1EE" stroke-linecap="round" stroke-linejoin="round"/>
<path d="M267.388 178.902L286.385 176.705L302.352 194.876L281.909 197.212L267.388 178.902Z" stroke="#F5F1EE" stroke-linecap="round" stroke-linejoin="round"/>
<path d="M247.398 185.021L267.388 178.901L281.909 197.212L260.369 203.832L247.398 185.021Z" stroke="#F5F1EE" stroke-linecap="round" stroke-linejoin="round"/>
<path d="M227.709 194.656L247.4 185.021L260.371 203.832L239.227 214.196L227.709 194.656Z" stroke="#F5F1EE" stroke-linecap="round" stroke-linejoin="round"/>
<path d="M209.725 207.196L227.708 194.656L239.226 214.196L219.856 227.691L209.725 207.196Z" stroke="#F5F1EE" stroke-linecap="round" stroke-linejoin="round"/>
<path d="M194.65 221.695L209.726 207.195L219.856 227.69L203.654 243.3L194.65 221.695Z" stroke="#F5F1EE" stroke-linecap="round" stroke-linejoin="round"/>
<path d="M183.518 237.254L194.649 221.697L203.653 243.302L191.669 260.032L183.518 237.254Z" stroke="#F5F1EE" stroke-linecap="round" stroke-linejoin="round"/>
<path d="M186.727 271.875L191.67 260.03L189.531 271.554L186.727 271.875Z" stroke="#F5F1EE" stroke-linecap="round" stroke-linejoin="round"/>
<path d="M302.353 194.876L315.109 196.322L313.474 198.583L302.353 194.876Z" stroke="#F5F1EE" stroke-linecap="round" stroke-linejoin="round"/>
<path d="M281.91 197.213L302.353 194.876L313.474 198.584L310.797 202.307L296.492 203.971L281.91 197.213Z" stroke="#F5F1EE" stroke-linecap="round" stroke-linejoin="round"/>
<path d="M260.369 203.833L281.909 197.213L296.492 203.971L270.631 211.914L260.369 203.833Z" stroke="#F5F1EE" stroke-linecap="round" stroke-linejoin="round"/>
<path d="M239.225 214.195L260.369 203.83L270.631 211.911L245.199 224.379L239.225 214.195Z" stroke="#F5F1EE" stroke-linecap="round" stroke-linejoin="round"/>
<path d="M219.857 227.691L239.227 214.195L245.201 224.379L221.94 240.553L219.857 227.691Z" stroke="#F5F1EE" stroke-linecap="round" stroke-linejoin="round"/>
<path d="M203.655 243.299L219.857 227.689L221.941 240.552L202.441 259.345L203.655 243.299Z" stroke="#F5F1EE" stroke-linecap="round" stroke-linejoin="round"/>
<path d="M191.669 260.031L203.653 243.301L202.44 259.347L194.066 271.035L189.53 271.555L191.669 260.031Z" stroke="#F5F1EE" stroke-linecap="round" stroke-linejoin="round"/>
<path d="M185.246 441.022L140.111 435.903L117.782 429.223L166.533 434.77L185.246 441.022Z" stroke="#F5F1EE" stroke-linecap="round" stroke-linejoin="round"/>
<path d="M236.693 435.081L185.246 441.023L166.533 434.771L222.106 428.353L236.693 435.081Z" stroke="#F5F1EE" stroke-linecap="round" stroke-linejoin="round"/>
<path d="M290.859 418.489L236.693 435.079L222.107 428.352L280.597 410.409L290.859 418.489Z" stroke="#F5F1EE" stroke-linecap="round" stroke-linejoin="round"/>
<path d="M344.103 392.344L290.858 418.489L280.596 410.409L338.125 382.191L344.103 392.344Z" stroke="#F5F1EE" stroke-linecap="round" stroke-linejoin="round"/>
<path d="M392.793 358.483L344.104 392.345L338.127 382.192L390.678 345.617L392.793 358.483Z" stroke="#F5F1EE" stroke-linecap="round" stroke-linejoin="round"/>
<path d="M433.577 319.183L392.79 358.485L390.676 345.619L434.76 303.133L433.577 319.183Z" stroke="#F5F1EE" stroke-linecap="round" stroke-linejoin="round"/>
<path d="M463.728 277.067L433.578 319.181L434.762 303.131L467.324 257.698L463.728 277.067Z" stroke="#F5F1EE" stroke-linecap="round" stroke-linejoin="round"/>
<path d="M481.149 235.126L463.729 277.067L467.324 257.698L486.138 212.38L481.149 235.126Z" stroke="#F5F1EE" stroke-linecap="round" stroke-linejoin="round"/>
<path d="M187.06 267.223L185.673 262.926" stroke="#F5F1EE" stroke-linecap="round" stroke-linejoin="round"/>
<path d="M307.779 191.043L310.871 194.33" stroke="#F5F1EE" stroke-linecap="round" stroke-linejoin="round"/>
<path d="M194.564 271.84L202.938 260.152L222.437 241.358L245.667 225.181L271.099 212.714L296.99 204.775L311.294 203.11" stroke="#F5F1EE" stroke-linecap="round" stroke-linejoin="round"/>
<path d="M79.0973 412.128L117.783 429.225L140.112 435.905L185.247 441.025L236.694 435.082L290.86 418.492L344.105 392.347L392.793 358.485L433.579 319.183L463.729 277.069L481.149 235.128L486.138 212.382L489.972 170.233L482.43 145.197L470.647 108.193L444.029 79.9684L425.799 61.2192L387.114 44.1221L364.785 37.442L319.619 32.3188L268.203 38.2647L214.034 54.8852L160.792 80.9998L112.104 114.862L71.3139 154.195L41.1372 196.274L23.7135 238.246L18.7244 260.992L14.9243 303.114L22.4669 328.15L34.2191 365.151L60.8676 393.379L79.0973 412.128Z" stroke="#F5F1EE" stroke-linecap="round" stroke-linejoin="round"/>
<path d="M325.232 174.057L321.495 183.062L319.495 187.89L317.114 193.575L316.93 194.081L315.215 196.489L313.581 198.75L310.903 202.473L302.526 214.192L283.03 232.955L259.8 249.132L234.365 261.63L208.473 269.569L194.173 271.203L189.606 271.719L186.833 272.044L183.934 272.385L183.382 272.32L177.25 271.625L172.067 271.044L162.349 269.926" stroke="#F5F1EE" stroke-linecap="round" stroke-linejoin="round"/>
</svg>
