<svg width="84" height="24" viewBox="0 0 84 24" fill="none" xmlns="http://www.w3.org/2000/svg">
<path d="M12.0689 18.5354L11.0132 4.0914C10.9872 3.7354 11.1464 3.39112 11.4346 3.18044L15.17 0.449112C15.5355 0.18192 16.0321 0.183201 16.3962 0.452274L20.0922 3.18409C20.3748 3.39296 20.5321 3.73094 20.5099 4.08164L19.5985 18.5205C19.5759 18.8785 19.3696 19.1993 19.0532 19.3683L16.2788 20.8505C15.9703 21.0153 15.5994 21.0132 15.2928 20.8447L12.6029 19.3672C12.2955 19.1983 12.0945 18.8852 12.0689 18.5354Z" fill="#FF4E27"/>
<path d="M7.76493 7.82814L8.98267 18.4519C9.02785 18.846 8.84374 19.2313 8.50868 19.4438L3.91572 22.3564C3.3157 22.7369 2.51948 22.4136 2.35463 21.7225L0.154996 12.5009C0.0606385 12.1054 0.206676 11.6912 0.528278 11.4423L6.10313 7.12749C6.74086 6.6339 7.6731 7.02695 7.76493 7.82814Z" fill="#FF4E27"/>
<path d="M23.9071 7.82814L22.6894 18.4519C22.6442 18.846 22.8283 19.2313 23.1634 19.4438L27.7563 22.3564C28.3564 22.7369 29.1526 22.4136 29.3174 21.7225L31.5171 12.5009C31.6114 12.1054 31.4654 11.6912 31.1438 11.4423L25.5689 7.12749C24.9312 6.6339 23.999 7.02695 23.9071 7.82814Z" fill="#FF4E27"/>
<path d="M12.4818 18.5053L11.4261 4.06122C11.4105 3.84762 11.506 3.64105 11.6789 3.51464L15.4144 0.783317C15.6337 0.623002 15.9317 0.62377 16.1501 0.785214L19.8461 3.51703C20.0156 3.64235 20.11 3.84514 20.0967 4.05556L19.1853 18.4945C19.1717 18.7092 19.048 18.9017 18.8582 19.0031L16.0838 20.4853C15.8986 20.5842 15.6761 20.5829 15.4921 20.4819L12.8022 19.0043C12.6177 18.903 12.4972 18.7151 12.4818 18.5053ZM7.35361 7.87528L8.57135 18.499C8.59846 18.7355 8.48799 18.9667 8.28695 19.0942L3.694 22.0068C3.33399 22.2351 2.85626 22.0411 2.75735 21.6264L0.557712 12.4049C0.501097 12.1675 0.58872 11.919 0.78168 11.7697L6.35653 7.4549C6.73917 7.15874 7.29851 7.39457 7.35361 7.87528ZM23.1007 18.499L24.3184 7.87528C24.3735 7.39457 24.9329 7.15874 25.3155 7.4549L30.8904 11.7697C31.0833 11.919 31.171 12.1675 31.1143 12.4049L28.9147 21.6264C28.8158 22.0411 28.3381 22.2351 27.9781 22.0068L23.3851 19.0942C23.1841 18.9667 23.0736 18.7355 23.1007 18.499Z" stroke="url(#paint0_linear_42_218)" stroke-opacity="0.2" stroke-width="0.828027"/>
<path d="M39.0186 3.95349H43.3721L47.2539 15.0412L51.1142 3.95349H55.4678V19.1803H52.2079V9.31503L48.6264 19.1374H45.8384L42.2784 9.31503V19.1803H39.0186V3.95349Z" fill="#F5F1EE"/>
<path d="M64.4586 19.5234C62.5141 19.5234 60.9771 19.0444 59.8476 18.0865C58.7181 17.1286 58.0962 15.8204 57.9818 14.1619L61.2631 14.0117C61.3775 14.9268 61.7063 15.6274 62.2496 16.1135C62.7929 16.5853 63.5435 16.8212 64.5015 16.8212C65.3164 16.8212 65.9455 16.6711 66.3887 16.3708C66.8319 16.0706 67.0536 15.6345 67.0536 15.0626C67.0536 14.6909 66.9606 14.3763 66.7748 14.119C66.6032 13.8473 66.2743 13.6043 65.7882 13.3898C65.3021 13.1753 64.5944 12.9609 63.6651 12.7464C62.3211 12.4462 61.2631 12.1102 60.491 11.7384C59.719 11.3667 59.1542 10.902 58.7968 10.3444C58.4393 9.78685 58.2606 9.07198 58.2606 8.19983C58.2606 7.29909 58.4894 6.50558 58.9469 5.81931C59.4044 5.11873 60.0621 4.57543 60.92 4.1894C61.7778 3.80337 62.7929 3.61035 63.9653 3.61035C65.7954 3.61035 67.2323 4.08217 68.276 5.0258C69.3197 5.95513 69.9345 7.19901 70.1204 8.75743L66.8605 8.929C66.7748 8.11405 66.4745 7.47781 65.9598 7.02029C65.4594 6.54848 64.7803 6.31257 63.9224 6.31257C63.1932 6.31257 62.6142 6.47699 62.1853 6.80583C61.7706 7.12037 61.5633 7.5493 61.5633 8.0926C61.5633 8.47863 61.6563 8.80032 61.8421 9.05768C62.028 9.30073 62.3425 9.5152 62.7858 9.70106C63.2433 9.87263 63.8938 10.0442 64.7374 10.2158C66.7819 10.6304 68.2259 11.2166 69.0695 11.9744C69.9273 12.7321 70.3563 13.7115 70.3563 14.9125C70.3563 15.8561 70.1132 16.6782 69.6271 17.3788C69.1553 18.0651 68.4762 18.5941 67.5897 18.9658C66.7033 19.3375 65.6596 19.5234 64.4586 19.5234Z" fill="#F5F1EE"/>
<path d="M76.172 6.6986H71.604V3.95349H83.9999V6.6986H79.4533V19.1803H76.172V6.6986Z" fill="#F5F1EE"/>
<defs>
<linearGradient id="paint0_linear_42_218" x1="15.836" y1="0" x2="15.836" y2="23.133" gradientUnits="userSpaceOnUse">
<stop stop-color="white"/>
<stop offset="1" stop-color="white" stop-opacity="0"/>
</linearGradient>
</defs>
</svg>
