<svg width="47" height="46" viewBox="0 0 47 46" fill="none" xmlns="http://www.w3.org/2000/svg">
<path d="M37.5 26C37.5 36.5469 30.7131 44.5 23 44.5C15.2869 44.5 8.5 36.5469 8.5 26C8.5 15.4531 15.2869 7.5 23 7.5C30.7131 7.5 37.5 15.4531 37.5 26Z" stroke="url(#paint0_linear_332_372)" stroke-width="3"/>
<path d="M37.5 26C37.5 36.5469 30.7131 44.5 23 44.5C15.2869 44.5 8.5 36.5469 8.5 26C8.5 15.4531 15.2869 7.5 23 7.5C30.7131 7.5 37.5 15.4531 37.5 26Z" stroke="url(#paint1_radial_332_372)" stroke-width="3"/>
<path d="M34.5 23C34.5 33.9948 26.9041 42.5 18 42.5C9.0959 42.5 1.5 33.9948 1.5 23C1.5 12.0052 9.0959 3.5 18 3.5C26.9041 3.5 34.5 12.0052 34.5 23Z" stroke="url(#paint2_linear_332_372)" stroke-width="3"/>
<path d="M34.5 23C34.5 33.9948 26.9041 42.5 18 42.5C9.0959 42.5 1.5 33.9948 1.5 23C1.5 12.0052 9.0959 3.5 18 3.5C26.9041 3.5 34.5 12.0052 34.5 23Z" stroke="url(#paint3_radial_332_372)" stroke-width="3"/>
<path d="M45.5 20C45.5 30.2907 37.5934 38.5 28 38.5C18.4066 38.5 10.5 30.2907 10.5 20C10.5 9.7093 18.4066 1.5 28 1.5C37.5934 1.5 45.5 9.7093 45.5 20Z" stroke="url(#paint4_linear_332_372)" stroke-width="3"/>
<path d="M45.5 20C45.5 30.2907 37.5934 38.5 28 38.5C18.4066 38.5 10.5 30.2907 10.5 20C10.5 9.7093 18.4066 1.5 28 1.5C37.5934 1.5 45.5 9.7093 45.5 20Z" stroke="url(#paint5_radial_332_372)" stroke-width="3"/>
<defs>
<linearGradient id="paint0_linear_332_372" x1="9.22273" y1="7.00049" x2="42.6289" y2="38.5874" gradientUnits="userSpaceOnUse">
<stop stop-color="#E31717"/>
<stop offset="1" stop-color="#FFB800"/>
</linearGradient>
<radialGradient id="paint1_radial_332_372" cx="0" cy="0" r="1" gradientUnits="userSpaceOnUse" gradientTransform="translate(32.6861 41.8865) rotate(-123.885) scale(29.1734 35.7574)">
<stop stop-color="#FFB800"/>
<stop offset="0.986758" stop-color="#E31717" stop-opacity="0"/>
</radialGradient>
<linearGradient id="paint2_linear_332_372" x1="2.50057" y1="3.05052" x2="37.6291" y2="38.6385" gradientUnits="userSpaceOnUse">
<stop stop-color="#E31717"/>
<stop offset="1" stop-color="#FFB800"/>
</linearGradient>
<radialGradient id="paint3_radial_332_372" cx="0" cy="0" r="1" gradientUnits="userSpaceOnUse" gradientTransform="translate(28.8968 39.6808) rotate(-125.738) scale(31.3285 39.3327)">
<stop stop-color="#FFB800"/>
<stop offset="0.986758" stop-color="#E31717" stop-opacity="0"/>
</radialGradient>
<linearGradient id="paint4_linear_332_372" x1="11.6395" y1="1.00049" x2="44.8748" y2="38.3181" gradientUnits="userSpaceOnUse">
<stop stop-color="#E31717"/>
<stop offset="1" stop-color="#FFB800"/>
</linearGradient>
<radialGradient id="paint5_radial_332_372" cx="0" cy="0" r="1" gradientUnits="userSpaceOnUse" gradientTransform="translate(39.5022 35.8865) rotate(-128.573) scale(30.9773 39.9891)">
<stop stop-color="#FFB800"/>
<stop offset="0.986758" stop-color="#E31717" stop-opacity="0"/>
</radialGradient>
</defs>
</svg>
